<?xml version="1.0" encoding="UTF-8"?>
<!DOCTYPE svg PUBLIC "-//W3C//DTD SVG 1.1//EN" "http://www.w3.org/Graphics/SVG/1.1/DTD/svg11.dtd">
<!-- Creator: CorelDRAW 2021 (64-Bit) -->
<svg xmlns="http://www.w3.org/2000/svg" xml:space="preserve" width="0.639091in" height="0.639091in" version="1.1" style="shape-rendering:geometricPrecision; text-rendering:geometricPrecision; image-rendering:optimizeQuality; fill-rule:evenodd; clip-rule:evenodd"
viewBox="0 0 84.33 84.33"
 xmlns:xlink="http://www.w3.org/1999/xlink"
 xmlns:xodm="http://www.corel.com/coreldraw/odm/2003">
 <defs>
  <style type="text/css">
   <![CDATA[
    .fil1 {fill:#0A0A0A}
    .fil0 {fill:white}
   ]]>
  </style>
 </defs>
 <g id="Layer_x0020_1">
  <metadata id="CorelCorpID_0Corel-Layer"/>
  <g id="_2557756757136">
   <path class="fil0" d="M25.97 0l32.38 0c14.29,0 25.97,11.69 25.97,25.97l0 32.38c0,14.29 -11.69,25.97 -25.97,25.97l-32.38 0c-14.29,0 -25.97,-11.69 -25.97,-25.97l0 -32.38c0,-14.29 11.69,-25.97 25.97,-25.97z"/>
   <path class="fil1" d="M66.61 29.68c-5.34,-1.27 -12.82,-6.13 -15.83,-0.98 -2.93,-0.89 -11.4,-6.29 -10.79,-12.57 -3.62,6.56 1.66,8.51 6.19,12.16l-7.43 -2.09c2.59,4.71 17.22,12.02 22.28,14.8 -6.8,-0.64 -14.74,-5.2 -19.98,-7.74 4.34,5.31 13.53,11.82 19.44,16.17 2.21,1.62 5.14,3.29 6.95,4.99 -4.86,-0.66 -10.68,-3.32 -14.22,-5.54 -2.86,-1.79 -9.08,-6.34 -10.76,-8.88 0.78,4.14 21.86,27.28 25.71,30.11 -2.93,-1.28 -8.46,-5.48 -11.27,-7.51 -11.28,-8.15 -38.64,-27.9 -27.84,-43 5,-6.99 23.62,-8.34 28.23,0.02 1.86,3.36 8.26,3.87 9.31,10.07zm-21.94 25.04c-1.95,1.55 -3.03,4.21 -5.22,5.31l0.02 -5.69c-1.91,3.98 -4.05,10.64 -9.11,11.79l2.89 -12.06c-2.37,4.79 -2.89,7.74 -17.09,16.41 0.76,-2.64 15.89,-28.4 16.15,-28.06 2.5,3.39 8.91,10.19 12.37,12.29zm9.62 -34.43l-3.2 -2.4 1.43 2.68 1.77 -0.28z"/>
  </g>
 </g>
</svg>
