<?xml version="1.0" encoding="UTF-8"?>
<!DOCTYPE svg PUBLIC "-//W3C//DTD SVG 1.1//EN" "http://www.w3.org/Graphics/SVG/1.1/DTD/svg11.dtd">
<!-- Creator: CorelDRAW 2021 (64-Bit) -->
<svg xmlns="http://www.w3.org/2000/svg" xml:space="preserve" width="2.59126in" height="0.639091in" version="1.1" style="shape-rendering:geometricPrecision; text-rendering:geometricPrecision; image-rendering:optimizeQuality; fill-rule:evenodd; clip-rule:evenodd"
viewBox="0 0 830.91 204.93"
 xmlns:xlink="http://www.w3.org/1999/xlink"
 xmlns:xodm="http://www.corel.com/coreldraw/odm/2003">
 <defs>
  <style type="text/css">
   <![CDATA[
    .fil1 {fill:#0A0A0A}
    .fil0 {fill:#99FF99}
    .fil2 {fill:#0A0A0A;fill-rule:nonzero}
   ]]>
  </style>
 </defs>
 <g id="Layer_x0020_1">
  <metadata id="CorelCorpID_0Corel-Layer"/>
  <g id="_2557751252976">
   <g>
    <path class="fil0" d="M63.12 0l78.69 0c34.72,0 63.12,28.4 63.12,63.12l0 78.69c0,34.72 -28.4,63.12 -63.12,63.12l-78.69 0c-34.72,0 -63.12,-28.4 -63.12,-63.12l0 -78.69c0,-34.72 28.4,-63.12 63.12,-63.12z"/>
    <path class="fil1" d="M161.87 72.14c-12.98,-3.08 -31.16,-14.89 -38.47,-2.37 -7.11,-2.15 -27.7,-15.29 -26.23,-30.55 -8.81,15.93 4.04,20.67 15.05,29.55l-18.06 -5.08c6.29,11.44 41.85,29.22 54.14,35.96 -16.53,-1.55 -35.81,-12.63 -48.55,-18.81 10.56,12.9 32.87,28.72 47.25,39.3 5.36,3.94 12.48,8 16.9,12.12 -11.81,-1.61 -25.95,-8.08 -34.55,-13.47 -6.95,-4.36 -22.05,-15.4 -26.16,-21.59 1.9,10.05 53.13,66.3 62.47,73.16 -7.11,-3.12 -20.55,-13.31 -27.38,-18.25 -27.42,-19.82 -93.89,-67.79 -67.65,-104.51 12.14,-16.98 57.4,-20.27 68.61,0.06 4.51,8.17 20.08,9.4 22.64,24.47zm-53.31 60.85c-4.74,3.77 -7.35,10.24 -12.69,12.91l0.06 -13.82c-4.64,9.68 -9.85,25.86 -22.15,28.66l7.02 -29.3c-5.77,11.65 -7.02,18.8 -41.54,39.88 1.84,-6.43 38.63,-69.02 39.23,-68.2 6.09,8.25 21.64,24.75 30.06,29.87zm23.38 -83.66l-7.78 -5.83 3.47 6.51 4.31 -0.68z"/>
   </g>
   <path class="fil2" d="M259.86 73.79l0 83.56 -13.61 0 0 -96.96 13.61 13.4zm-13.61 -23.73l0 -6.29 13.61 0 0 19.62 -13.61 -13.33zm33.79 108.38l-13.61 0 0 -113.58 81.75 0 0 6.8 -68.14 0 0 53.37 54.5 0 0 6.84 -54.5 0 0 46.57zm88.5 0l-13.61 0 0 -113.58 81.75 0 0 6.8 -68.14 0 0 53.37 54.5 0 0 6.84 -54.5 0 0 46.57zm121.76 2.02c-14.29,0 -25.68,-3.79 -34.16,-11.39 -8.48,-7.59 -12.72,-18.19 -12.72,-31.8l0 -72.72 13.61 0 0 72.72c0,7.8 1.54,14.43 4.62,19.83 3.08,5.4 7.39,9.5 12.92,12.31 5.54,2.8 12,4.21 19.35,4.21 4.44,0 8.96,-0.79 13.5,-2.39 4.55,-1.61 8.65,-3.93 12.31,-7.01 3.69,-3.08 6.63,-6.87 8.89,-11.38 2.22,-4.48 3.35,-9.68 3.35,-15.56l0 -72.72 6.91 0 0 72.72c0,8.82 -2.05,16.45 -6.15,22.87 -4.1,6.46 -9.81,11.45 -17.13,14.97 -7.32,3.56 -15.76,5.33 -25.3,5.33zm55.33 -2.02l0 -113.58 6.8 0 0 87.43 77.85 -87.43 11.42 0 0 113.58 -6.84 0 0 -94.78 -83.53 94.78 -5.71 0zm116.43 -6.8l23.86 0c13.1,-0.2 23.56,-4.82 31.39,-13.88 7.86,-9.06 11.76,-21.1 11.76,-36.11 0,-15.04 -4,-27.11 -12,-36.28 -8.04,-9.13 -18.39,-13.71 -31.15,-13.71l-23.86 0 0 76.83 -13.61 0 0 -83.63 37.47 0c10.46,0 20.1,2.46 28.89,7.39 8.79,4.96 15.8,11.69 21.1,20.24 5.27,8.55 7.9,18.26 7.9,29.16 0,10.87 -2.63,20.58 -7.9,29.13 -5.3,8.55 -12.31,15.32 -21.1,20.24 -8.79,4.96 -18.43,7.42 -28.89,7.42l-37.47 0c2.33,-4.34 6.87,-6.6 13.61,-6.8zm121.18 8.82c-7.28,0 -13.57,-0.92 -18.84,-2.74 -5.3,-1.78 -9.71,-3.97 -13.27,-6.53 -3.59,-2.6 -6.43,-5.09 -8.58,-7.59l5.03 -4.58c8.21,9.54 20.21,14.39 36.04,14.6 7.35,0 13.47,-1.03 18.39,-3.14 4.89,-2.09 8.58,-4.89 11.08,-8.31 2.46,-3.45 3.69,-7.21 3.69,-11.28 0,-4.58 -1.57,-8.41 -4.65,-11.42 -3.11,-3.01 -7.11,-5.54 -12.03,-7.66 -4.89,-2.09 -10.19,-4.07 -15.86,-5.95 -12.17,-4 -21.06,-7.93 -26.74,-11.73 -8.38,-5.47 -12.55,-12.79 -12.55,-21.92 0,-8.75 4.03,-15.93 12.14,-21.51 8.07,-5.57 18.46,-8.38 31.15,-8.38 5.88,0 11.32,0.92 16.34,2.77 4.99,1.85 9.3,4 12.89,6.5 3.62,2.53 6.36,4.85 8.24,6.97l-5.13 4.62 -2.19 -2.12c-1.47,-1.47 -3.59,-3.11 -6.36,-4.89 -2.77,-1.81 -6.15,-3.42 -10.12,-4.86 -3.97,-1.44 -8.44,-2.15 -13.37,-2.15 -9.03,0 -16.17,1.74 -21.51,5.23 -5.3,3.52 -7.97,7.8 -7.97,12.79 0,4.82 1.57,8.75 4.72,11.86 3.14,3.11 7.21,5.71 12.17,7.83 4.99,2.09 10.29,4.07 15.97,5.95 12.1,3.93 20.96,7.8 26.57,11.52 8.27,5.4 12.41,12.68 12.41,21.85 0,5.98 -2.02,11.59 -6.05,16.75 -4.03,5.2 -9.64,9.4 -16.79,12.65 -7.15,3.21 -15.42,4.86 -24.82,4.86z"/>
  </g>
 </g>
</svg>
