<?xml version="1.0" encoding="UTF-8"?>
<!DOCTYPE svg PUBLIC "-//W3C//DTD SVG 1.1//EN" "http://www.w3.org/Graphics/SVG/1.1/DTD/svg11.dtd">
<!-- Creator: CorelDRAW 2021 (64-Bit) -->
<svg xmlns="http://www.w3.org/2000/svg" xml:space="preserve" width="2.59126in" height="0.639091in" version="1.1" style="shape-rendering:geometricPrecision; text-rendering:geometricPrecision; image-rendering:optimizeQuality; fill-rule:evenodd; clip-rule:evenodd"
viewBox="0 0 1386.34 341.92"
 xmlns:xlink="http://www.w3.org/1999/xlink"
 xmlns:xodm="http://www.corel.com/coreldraw/odm/2003">
 <defs>
  <style type="text/css">
   <![CDATA[
    .fil1 {fill:#0A0A0A}
    .fil0 {fill:white}
    .fil2 {fill:white;fill-rule:nonzero}
   ]]>
  </style>
 </defs>
 <g id="Layer_x0020_1">
  <metadata id="CorelCorpID_0Corel-Layer"/>
  <g id="_2557752252272">
   <g>
    <path class="fil0" d="M105.32 0l131.29 0c57.92,0 105.32,47.39 105.32,105.32l0 131.29c0,57.92 -47.39,105.32 -105.32,105.32l-131.29 0c-57.92,0 -105.32,-47.39 -105.32,-105.32l0 -131.29c0,-57.92 47.39,-105.32 105.32,-105.32z"/>
    <path class="fil1" d="M270.08 120.36c-21.66,-5.14 -51.99,-24.84 -64.19,-3.96 -11.86,-3.59 -46.21,-25.51 -43.76,-50.97 -14.69,26.58 6.75,34.49 25.11,49.3l-30.13 -8.48c10.5,19.09 69.83,48.76 90.33,60 -27.58,-2.58 -59.75,-21.08 -81.01,-31.39 17.62,21.52 54.84,47.91 78.83,65.57 8.94,6.58 20.83,13.35 28.19,20.23 -19.7,-2.68 -43.29,-13.47 -57.65,-22.48 -11.6,-7.27 -36.8,-25.7 -43.64,-36.02 3.16,16.77 88.65,110.62 104.23,122.07 -11.87,-5.2 -34.29,-22.21 -45.68,-30.44 -45.75,-33.06 -156.66,-113.11 -112.87,-174.36 20.26,-28.33 95.77,-33.81 114.47,0.1 7.52,13.64 33.5,15.69 37.77,40.83zm-88.94 101.52c-7.9,6.3 -12.27,17.09 -21.17,21.55l0.1 -23.06c-7.74,16.14 -16.44,43.15 -36.95,47.82l11.71 -48.89c-9.62,19.43 -11.71,31.37 -69.31,66.54 3.08,-10.72 64.45,-115.17 65.46,-113.79 10.15,13.76 36.11,41.3 50.16,49.84zm39 -139.58l-12.98 -9.73 5.78 10.86 7.2 -1.13z"/>
   </g>
   <path class="fil2" d="M433.57 123.11l0 139.42 -22.71 0 0 -161.78 22.71 22.36zm-22.71 -39.59l0 -10.5 22.71 0 0 32.74 -22.71 -22.25zm56.38 180.83l-22.7 0 0 -189.51 136.4 0 0 11.35 -113.69 0 0 89.05 90.93 0 0 11.41 -90.93 0 0 77.7zm147.65 0l-22.7 0 0 -189.51 136.4 0 0 11.35 -113.69 0 0 89.05 90.93 0 0 11.41 -90.93 0 0 77.7zm203.16 3.37c-23.85,0 -42.84,-6.33 -56.99,-19 -14.15,-12.66 -21.22,-30.35 -21.22,-53.05l0 -121.33 22.7 0 0 121.33c0,13.01 2.57,24.07 7.7,33.09 5.14,9.01 12.32,15.86 21.56,20.54 9.24,4.68 20.02,7.02 32.29,7.02 7.41,0 14.94,-1.31 22.53,-3.99 7.59,-2.68 14.43,-6.56 20.54,-11.69 6.16,-5.13 11.07,-11.46 14.83,-18.99 3.71,-7.47 5.59,-16.14 5.59,-25.96l0 -121.33 11.52 0 0 121.33c0,14.72 -3.42,27.44 -10.27,38.16 -6.85,10.78 -16.37,19.11 -28.58,24.99 -12.21,5.93 -26.3,8.9 -42.21,8.9zm92.32 -3.37l0 -189.51 11.35 0 0 145.87 129.89 -145.87 19.05 0 0 189.51 -11.41 0 0 -158.13 -139.36 158.13 -9.53 0zm194.26 -11.35l39.82 0c21.85,-0.34 39.3,-8.04 52.37,-23.16 13.12,-15.12 19.62,-35.2 19.62,-60.24 0,-25.1 -6.67,-45.24 -20.02,-60.53 -13.41,-15.23 -30.69,-22.87 -51.97,-22.87l-39.82 0 0 128.18 -22.7 0 0 -139.53 62.52 0c17.46,0 33.54,4.11 48.2,12.32 14.66,8.27 26.35,19.51 35.2,33.77 8.79,14.26 13.18,30.46 13.18,48.66 0,18.14 -4.39,34.34 -13.18,48.6 -8.84,14.26 -20.54,25.56 -35.2,33.77 -14.66,8.27 -30.75,12.38 -48.2,12.38l-62.52 0c3.88,-7.25 11.47,-11.01 22.7,-11.35zm202.19 14.72c-12.15,0 -22.65,-1.54 -31.43,-4.56 -8.84,-2.97 -16.2,-6.62 -22.13,-10.9 -5.99,-4.33 -10.73,-8.5 -14.32,-12.66l8.39 -7.64c13.69,15.92 33.71,24.02 60.13,24.36 12.27,0 22.47,-1.71 30.69,-5.25 8.16,-3.48 14.32,-8.16 18.48,-13.86 4.11,-5.76 6.16,-12.04 6.16,-18.82 0,-7.64 -2.62,-14.03 -7.76,-19.05 -5.19,-5.02 -11.86,-9.24 -20.08,-12.78 -8.16,-3.48 -17,-6.79 -26.47,-9.93 -20.31,-6.67 -35.14,-13.23 -44.61,-19.57 -13.98,-9.13 -20.93,-21.33 -20.93,-36.57 0,-14.61 6.73,-26.58 20.25,-35.88 13.46,-9.3 30.8,-13.98 51.97,-13.98 9.81,0 18.88,1.54 27.27,4.62 8.33,3.08 15.52,6.67 21.51,10.84 6.05,4.22 10.61,8.1 13.75,11.64l-8.56 7.7 -3.65 -3.54c-2.45,-2.45 -5.99,-5.19 -10.61,-8.16 -4.62,-3.02 -10.27,-5.71 -16.89,-8.1 -6.62,-2.4 -14.09,-3.59 -22.3,-3.59 -15.06,0 -26.98,2.91 -35.88,8.73 -8.84,5.88 -13.29,13.01 -13.29,21.33 0,8.04 2.62,14.61 7.87,19.8 5.25,5.19 12.04,9.53 20.31,13.06 8.33,3.48 17.17,6.79 26.64,9.93 20.19,6.56 34.97,13.01 44.32,19.22 13.8,9.01 20.71,21.16 20.71,36.45 0,9.98 -3.36,19.34 -10.1,27.95 -6.73,8.67 -16.09,15.69 -28.01,21.11 -11.92,5.36 -25.73,8.1 -41.41,8.1z"/>
  </g>
 </g>
</svg>
