<?xml version="1.0" encoding="UTF-8"?>
<!DOCTYPE svg PUBLIC "-//W3C//DTD SVG 1.1//EN" "http://www.w3.org/Graphics/SVG/1.1/DTD/svg11.dtd">
<!-- Creator: CorelDRAW 2021 (64-Bit) -->
<svg xmlns="http://www.w3.org/2000/svg" xml:space="preserve" width="3.07888in" height="0.639091in" version="1.1" style="shape-rendering:geometricPrecision; text-rendering:geometricPrecision; image-rendering:optimizeQuality; fill-rule:evenodd; clip-rule:evenodd"
viewBox="0 0 1253.83 260.26"
 xmlns:xlink="http://www.w3.org/1999/xlink"
 xmlns:xodm="http://www.corel.com/coreldraw/odm/2003">
 <defs>
  <style type="text/css">
   <![CDATA[
    .fil1 {fill:#0A0A0A}
    .fil0 {fill:#99FF99}
    .fil2 {fill:#0A0A0A;fill-rule:nonzero}
   ]]>
  </style>
 </defs>
 <g id="Layer_x0020_1">
  <metadata id="CorelCorpID_0Corel-Layer"/>
  <g id="_2557824695184">
   <g>
    <path class="fil0" d="M80.16 0l99.93 0c44.09,0 80.16,36.07 80.16,80.16l0 99.93c0,44.09 -36.07,80.16 -80.16,80.16l-99.93 0c-44.09,0 -80.16,-36.07 -80.16,-80.16l0 -99.93c0,-44.09 36.07,-80.16 80.16,-80.16z"/>
    <path class="fil1" d="M205.58 91.61c-16.49,-3.91 -39.57,-18.91 -48.86,-3.02 -9.03,-2.74 -35.18,-19.42 -33.31,-38.79 -11.18,20.23 5.14,26.26 19.11,37.53l-22.94 -6.45c7.99,14.53 53.15,37.11 68.75,45.67 -20.99,-1.96 -45.48,-16.04 -61.66,-23.89 13.41,16.38 41.75,36.47 60,49.91 6.81,5.01 15.85,10.16 21.46,15.4 -14.99,-2.04 -32.95,-10.26 -43.88,-17.11 -8.83,-5.53 -28.01,-19.56 -33.22,-27.42 2.41,12.76 67.48,84.2 79.34,92.92 -9.03,-3.96 -26.1,-16.91 -34.77,-23.17 -34.82,-25.17 -119.25,-86.1 -85.91,-132.72 15.42,-21.56 72.9,-25.74 87.13,0.07 5.73,10.38 25.5,11.94 28.75,31.08zm-67.7 77.28c-6.02,4.79 -9.34,13.01 -16.11,16.4l0.07 -17.55c-5.9,12.29 -12.51,32.84 -28.13,36.4l8.91 -37.21c-7.33,14.79 -8.91,23.87 -52.76,50.65 2.34,-8.16 49.05,-87.66 49.83,-86.61 7.73,10.48 27.49,31.44 38.18,37.94zm29.69 -106.25l-9.88 -7.41 4.4 8.27 5.48 -0.86z"/>
   </g>
   <path class="fil2" d="M334.64 84.17l0 134.5 -21.9 0 0 -156.08 21.9 21.57zm-21.9 -38.19l0 -10.13 21.9 0 0 31.59 -21.9 -21.46zm54.39 174.46l-21.9 0 0 -182.82 131.59 0 0 10.95 -109.68 0 0 85.91 87.72 0 0 11.01 -87.72 0 0 74.96zm142.45 0l-21.9 0 0 -182.82 131.59 0 0 10.95 -109.68 0 0 85.91 87.72 0 0 11.01 -87.72 0 0 74.96zm196 3.25c-23,0 -41.33,-6.11 -54.98,-18.33 -13.65,-12.22 -20.47,-29.28 -20.47,-51.18l0 -117.06 21.9 0 0 117.06c0,12.55 2.48,23.22 7.43,31.92 4.95,8.69 11.89,15.3 20.8,19.81 8.92,4.51 19.32,6.77 31.15,6.77 7.16,0 14.42,-1.26 21.74,-3.85 7.32,-2.59 13.92,-6.33 19.81,-11.28 5.94,-4.95 10.68,-11.06 14.31,-18.33 3.58,-7.21 5.39,-15.57 5.39,-25.04l0 -117.06 11.12 0 0 117.06c0,14.2 -3.3,26.47 -9.91,36.82 -6.6,10.4 -15.79,18.44 -27.57,24.1 -11.78,5.72 -25.37,8.59 -40.73,8.59zm89.06 -3.25l0 -182.82 10.95 0 0 140.72 125.31 -140.72 18.38 0 0 182.82 -11.01 0 0 -152.55 -134.45 152.55 -9.19 0zm187.41 -10.95l38.41 0c21.08,-0.33 37.92,-7.76 50.52,-22.34 12.66,-14.58 18.93,-33.96 18.93,-58.12 0,-24.22 -6.44,-43.64 -19.32,-58.39 -12.93,-14.69 -29.61,-22.07 -50.14,-22.07l-38.41 0 0 123.66 -21.9 0 0 -134.61 60.32 0c16.84,0 32.36,3.96 46.5,11.89 14.14,7.98 25.43,18.82 33.96,32.58 8.48,13.76 12.71,29.39 12.71,46.94 0,17.5 -4.24,33.13 -12.71,46.89 -8.53,13.76 -19.81,24.66 -33.96,32.58 -14.14,7.98 -29.66,11.94 -46.5,11.94l-60.32 0c3.74,-6.99 11.06,-10.62 21.9,-10.95zm195.06 14.2c-11.72,0 -21.85,-1.49 -30.32,-4.4 -8.53,-2.86 -15.63,-6.38 -21.35,-10.51 -5.78,-4.18 -10.35,-8.2 -13.81,-12.22l8.09 -7.38c13.21,15.35 32.52,23.17 58.01,23.5 11.83,0 21.68,-1.65 29.61,-5.06 7.87,-3.36 13.81,-7.87 17.83,-13.37 3.96,-5.56 5.94,-11.61 5.94,-18.16 0,-7.37 -2.53,-13.54 -7.48,-18.38 -5.01,-4.84 -11.45,-8.92 -19.37,-12.33 -7.87,-3.36 -16.4,-6.55 -25.54,-9.58 -19.59,-6.44 -33.9,-12.77 -43.04,-18.88 -13.48,-8.81 -20.2,-20.58 -20.2,-35.28 0,-14.09 6.49,-25.65 19.54,-34.62 12.99,-8.97 29.72,-13.48 50.14,-13.48 9.47,0 18.22,1.49 26.31,4.46 8.04,2.97 14.97,6.44 20.75,10.46 5.83,4.07 10.24,7.81 13.26,11.23l-8.25 7.43 -3.52 -3.41c-2.37,-2.37 -5.78,-5.01 -10.24,-7.87 -4.46,-2.92 -9.91,-5.5 -16.29,-7.81 -6.38,-2.31 -13.59,-3.47 -21.52,-3.47 -14.53,0 -26.03,2.81 -34.62,8.42 -8.53,5.67 -12.82,12.55 -12.82,20.58 0,7.76 2.53,14.09 7.59,19.1 5.06,5.01 11.61,9.19 19.59,12.6 8.04,3.36 16.57,6.55 25.7,9.58 19.48,6.33 33.73,12.55 42.76,18.55 13.32,8.69 19.98,20.42 19.98,35.17 0,9.63 -3.25,18.66 -9.74,26.97 -6.49,8.37 -15.52,15.14 -27.02,20.36 -11.5,5.17 -24.82,7.81 -39.95,7.81z"/>
  </g>
 </g>
</svg>
