<?xml version="1.0" encoding="UTF-8"?>
<!DOCTYPE svg PUBLIC "-//W3C//DTD SVG 1.1//EN" "http://www.w3.org/Graphics/SVG/1.1/DTD/svg11.dtd">
<!-- Creator: CorelDRAW 2021 (64-Bit) -->
<svg xmlns="http://www.w3.org/2000/svg" xml:space="preserve" width="0.639091in" height="0.639091in" version="1.1" style="shape-rendering:geometricPrecision; text-rendering:geometricPrecision; image-rendering:optimizeQuality; fill-rule:evenodd; clip-rule:evenodd"
viewBox="0 0 50.54 50.54"
 xmlns:xlink="http://www.w3.org/1999/xlink"
 xmlns:xodm="http://www.corel.com/coreldraw/odm/2003">
 <defs>
  <style type="text/css">
   <![CDATA[
    .fil1 {fill:#0A0A0A}
    .fil0 {fill:#99FF99}
   ]]>
  </style>
 </defs>
 <g id="Layer_x0020_1">
  <metadata id="CorelCorpID_0Corel-Layer"/>
  <g id="_2557754968624">
   <path class="fil0" d="M15.57 0l19.41 0c8.56,0 15.57,7.01 15.57,15.57l0 19.41c0,8.56 -7.01,15.57 -15.57,15.57l-19.41 0c-8.56,0 -15.57,-7.01 -15.57,-15.57l0 -19.41c0,-8.56 7.01,-15.57 15.57,-15.57z"/>
   <path class="fil1" d="M39.92 17.79c-3.2,-0.76 -7.68,-3.67 -9.49,-0.59 -1.75,-0.53 -6.83,-3.77 -6.47,-7.53 -2.17,3.93 1,5.1 3.71,7.29l-4.45 -1.25c1.55,2.82 10.32,7.21 13.35,8.87 -4.08,-0.38 -8.83,-3.12 -11.97,-4.64 2.6,3.18 8.11,7.08 11.65,9.69 1.32,0.97 3.08,1.97 4.17,2.99 -2.91,-0.4 -6.4,-1.99 -8.52,-3.32 -1.71,-1.07 -5.44,-3.8 -6.45,-5.32 0.47,2.48 13.1,16.35 15.41,18.04 -1.75,-0.77 -5.07,-3.28 -6.75,-4.5 -6.76,-4.89 -23.16,-16.72 -16.68,-25.77 2.99,-4.19 14.16,-5 16.92,0.01 1.11,2.02 4.95,2.32 5.58,6.04zm-13.15 15.01c-1.17,0.93 -1.81,2.53 -3.13,3.18l0.01 -3.41c-1.14,2.39 -2.43,6.38 -5.46,7.07l1.73 -7.23c-1.42,2.87 -1.73,4.64 -10.25,9.84 0.45,-1.58 9.53,-17.02 9.68,-16.82 1.5,2.03 5.34,6.1 7.41,7.37zm5.77 -20.63l-1.92 -1.44 0.85 1.61 1.06 -0.17z"/>
  </g>
 </g>
</svg>
