<?xml version="1.0" encoding="UTF-8"?>
<!DOCTYPE svg PUBLIC "-//W3C//DTD SVG 1.1//EN" "http://www.w3.org/Graphics/SVG/1.1/DTD/svg11.dtd">
<!-- Creator: CorelDRAW 2021 (64-Bit) -->
<svg xmlns="http://www.w3.org/2000/svg" xml:space="preserve" width="2.59126in" height="0.639091in" version="1.1" style="shape-rendering:geometricPrecision; text-rendering:geometricPrecision; image-rendering:optimizeQuality; fill-rule:evenodd; clip-rule:evenodd"
viewBox="0 0 3427.52 845.34"
 xmlns:xlink="http://www.w3.org/1999/xlink"
 xmlns:xodm="http://www.corel.com/coreldraw/odm/2003">
 <defs>
  <style type="text/css">
   <![CDATA[
    .fil1 {fill:#0A0A0A}
    .fil0 {fill:#99FF99}
    .fil2 {fill:white;fill-rule:nonzero}
   ]]>
  </style>
 </defs>
 <g id="Layer_x0020_1">
  <metadata id="CorelCorpID_0Corel-Layer"/>
  <g id="_2557757349776">
   <path class="fil0" d="M260.38 0l324.58 0c143.21,0 260.38,117.17 260.38,260.38l0 324.58c0,143.21 -117.17,260.38 -260.38,260.38l-324.58 0c-143.21,0 -260.38,-117.17 -260.38,-260.38l0 -324.58c0,-143.21 117.17,-260.38 260.38,-260.38z"/>
   <path class="fil1" d="M667.74 297.56c-53.54,-12.7 -128.53,-61.41 -158.7,-9.8 -29.32,-8.88 -114.25,-63.06 -108.18,-126.01 -36.32,65.71 16.68,85.28 62.08,121.89l-74.49 -20.96c25.95,47.21 172.65,120.54 223.32,148.35 -68.19,-6.37 -147.72,-52.11 -200.27,-77.61 43.55,53.21 135.59,118.46 194.89,162.11 22.11,16.27 51.5,33.01 69.7,50.01 -48.7,-6.63 -107.03,-33.31 -142.54,-55.57 -28.67,-17.97 -90.98,-63.53 -107.9,-89.06 7.82,41.45 219.17,273.49 257.7,301.79 -29.34,-12.87 -84.77,-54.91 -112.94,-75.26 -113.1,-81.74 -387.32,-279.66 -279.05,-431.09 50.08,-70.04 236.77,-83.6 283.01,0.24 18.6,33.72 82.82,38.78 93.38,100.95zm-219.89 251c-19.54,15.57 -30.34,42.25 -52.33,53.27l0.24 -57.02c-19.15,39.91 -40.65,106.67 -91.36,118.22l28.95 -120.87c-23.79,48.04 -28.95,77.55 -171.37,164.5 7.6,-26.51 159.33,-284.73 161.85,-281.32 25.11,34.03 89.28,102.1 124.01,123.23zm96.43 -345.1l-32.08 -24.06 14.29 26.86 17.79 -2.79z"/>
  </g>
  <path class="fil2" d="M1071.93 304.37l0 344.69 -56.14 0 0 -399.98 56.14 55.28zm-56.14 -97.88l0 -25.95 56.14 0 0 80.95 -56.14 -55zm139.4 447.09l-56.13 0 0 -468.52 337.22 0 0 28.07 -281.08 0 0 220.16 224.81 0 0 28.21 -224.81 0 0 192.09zm365.05 0l-56.13 0 0 -468.52 337.22 0 0 28.07 -281.08 0 0 220.16 224.81 0 0 28.21 -224.81 0 0 192.09zm502.28 8.32c-58.95,0 -105.92,-15.65 -140.9,-46.97 -34.98,-31.31 -52.47,-75.03 -52.47,-131.16l0 -299.98 56.13 0 0 299.98c0,32.16 6.35,59.52 19.04,81.8 12.7,22.28 30.46,39.21 53.32,50.77 22.85,11.57 49.5,17.35 79.83,17.35 18.33,0 36.95,-3.24 55.71,-9.87 18.76,-6.62 35.68,-16.22 50.77,-28.91 15.23,-12.69 27.36,-28.34 36.67,-46.96 9.17,-18.48 13.82,-39.92 13.82,-64.17l0 -299.98 28.49 0 0 299.98c0,36.39 -8.46,67.84 -25.39,94.36 -16.92,26.65 -40.48,47.24 -70.66,61.77 -30.18,14.67 -65.02,22 -104.36,22zm228.24 -8.32l0 -468.52 28.07 0 0 360.63 321.14 -360.63 47.1 0 0 468.52 -28.2 0 0 -390.95 -344.55 390.95 -23.55 0zm480.28 -28.07l98.44 0c54.02,-0.84 97.17,-19.88 129.47,-57.26 32.44,-37.37 48.52,-87.02 48.52,-148.94 0,-62.05 -16.5,-111.84 -49.5,-149.64 -33.15,-37.66 -75.88,-56.55 -128.49,-56.55l-98.44 0 0 316.91 -56.13 0 0 -344.98 154.58 0c43.16,0 82.93,10.15 119.18,30.46 36.24,20.45 65.16,48.24 87.02,83.49 21.72,35.26 32.58,75.32 32.58,120.31 0,44.85 -10.86,84.9 -32.58,120.16 -21.86,35.26 -50.77,63.18 -87.02,83.49 -36.24,20.45 -76.02,30.6 -119.18,30.6l-154.58 0c9.59,-17.91 28.35,-27.22 56.13,-28.07zm499.88 36.39c-30.04,0 -55.99,-3.81 -77.71,-11.28 -21.86,-7.33 -40.06,-16.36 -54.72,-26.94 -14.81,-10.72 -26.52,-21.01 -35.4,-31.31l20.73 -18.9c33.85,39.35 83.35,59.38 148.66,60.22 30.32,0 55.56,-4.23 75.87,-12.97 20.17,-8.6 35.4,-20.17 45.7,-34.28 10.15,-14.24 15.23,-29.76 15.23,-46.54 0,-18.9 -6.49,-34.69 -19.18,-47.11 -12.84,-12.41 -29.33,-22.85 -49.64,-31.59 -20.17,-8.6 -42.03,-16.78 -65.44,-24.54 -50.21,-16.5 -86.88,-32.72 -110.29,-48.37 -34.55,-22.56 -51.76,-52.75 -51.76,-90.4 0,-36.11 16.64,-65.72 50.07,-88.72 33.29,-22.99 76.16,-34.55 128.49,-34.55 24.26,0 46.68,3.81 67.42,11.43 20.59,7.61 38.36,16.5 53.17,26.8 14.95,10.44 26.23,20.02 33.99,28.77l-21.16 19.04 -9.02 -8.74c-6.06,-6.07 -14.81,-12.84 -26.23,-20.17 -11.43,-7.48 -25.39,-14.11 -41.75,-20.03 -16.36,-5.93 -34.83,-8.88 -55.14,-8.88 -37.23,0 -66.71,7.19 -88.72,21.57 -21.86,14.53 -32.86,32.16 -32.86,52.75 0,19.89 6.49,36.11 19.47,48.94 12.97,12.84 29.76,23.55 50.21,32.3 20.59,8.6 42.45,16.78 65.87,24.54 49.92,16.22 86.46,32.16 109.58,47.53 34.13,22.28 51.2,52.32 51.2,90.12 0,24.68 -8.32,47.81 -24.96,69.1 -16.64,21.44 -39.78,38.79 -69.25,52.19 -29.47,13.26 -63.61,20.03 -102.39,20.03z"/>
 </g>
</svg>
