<?xml version="1.0" encoding="UTF-8"?>
<!DOCTYPE svg PUBLIC "-//W3C//DTD SVG 1.1//EN" "http://www.w3.org/Graphics/SVG/1.1/DTD/svg11.dtd">
<!-- Creator: CorelDRAW 2021 (64-Bit) -->
<svg xmlns="http://www.w3.org/2000/svg" xml:space="preserve" width="5.41555in" height="3.15098in" version="1.1" style="shape-rendering:geometricPrecision; text-rendering:geometricPrecision; image-rendering:optimizeQuality; fill-rule:evenodd; clip-rule:evenodd"
viewBox="0 0 1200.47 698.48"
 xmlns:xlink="http://www.w3.org/1999/xlink"
 xmlns:xodm="http://www.corel.com/coreldraw/odm/2003">
 <defs>
  <style type="text/css">
   <![CDATA[
    .str0 {stroke:#828282;stroke-width:1.54;stroke-linecap:round;stroke-linejoin:round;stroke-miterlimit:2.61313}
    .str1 {stroke:#828282;stroke-width:3.08;stroke-linecap:round;stroke-linejoin:round;stroke-miterlimit:2.61313;stroke-dasharray:6.157938 15.394846}
    .str2 {stroke:#D4D4D4;stroke-width:3.08;stroke-linecap:round;stroke-linejoin:round;stroke-miterlimit:2.61313;stroke-dasharray:6.157938 15.394846}
    .fil0 {fill:none}
    .fil1 {fill:#5CE05C}
   ]]>
  </style>
 </defs>
 <g id="Layer_x0020_1">
  <metadata id="CorelCorpID_0Corel-Layer"/>
  <g id="_2584497232640">
   <path class="fil0 str0" d="M600.24 54.72c186.1,0 336.97,133.24 336.97,297.59 0,164.36 -150.86,297.59 -336.97,297.59 -186.1,0 -336.96,-133.24 -336.96,-297.59 0,-164.36 150.86,-297.59 336.96,-297.59z"/>
   <path class="fil0 str1" d="M600.24 1.54c216.04,0 391.17,155.67 391.17,347.7 0,192.03 -175.13,347.7 -391.17,347.7 -216.03,0 -391.17,-155.67 -391.17,-347.7 0,-192.03 175.13,-347.7 391.17,-347.7z"/>
   <path class="fil0 str1" d="M600.24 1.54c273.03,0 494.37,155.67 494.37,347.7 0,192.03 -221.34,347.7 -494.37,347.7 -273.03,0 -494.37,-155.67 -494.37,-347.7 0,-192.03 221.33,-347.7 494.37,-347.7z"/>
   <path class="fil0 str1" d="M600.24 1.54c326.94,0 591.98,155.67 591.98,347.7 0,192.03 -265.04,347.7 -591.98,347.7 -326.94,0 -591.98,-155.67 -591.98,-347.7 0,-192.03 265.04,-347.7 591.98,-347.7z"/>
   <path class="fil0 str1" d="M600.24 1.54c163.91,0 296.78,155.67 296.78,347.7 0,192.03 -132.87,347.7 -296.78,347.7 -163.91,0 -296.78,-155.67 -296.78,-347.7 0,-192.03 132.87,-347.7 296.78,-347.7z"/>
   <path class="fil0 str2" d="M600.24 1.54c109.35,0 197.99,155.67 197.99,347.7 0,192.03 -88.64,347.7 -197.99,347.7 -109.35,0 -197.99,-155.67 -197.99,-347.7 0,-192.03 88.64,-347.7 197.99,-347.7z"/>
   <path class="fil0 str2" d="M600.24 1.54c57.39,0 103.91,155.67 103.91,347.7 0,192.03 -46.52,347.7 -103.91,347.7 -57.39,0 -103.91,-155.67 -103.91,-347.7 0,-192.03 46.52,-347.7 103.91,-347.7z"/>
   <path class="fil0 str2" d="M600.24 1.54c28.81,0 52.16,155.67 52.16,347.7 0,192.03 -23.35,347.7 -52.16,347.7 -28.81,0 -52.16,-155.67 -52.16,-347.7 0,-192.03 23.35,-347.7 52.16,-347.7z"/>
   <path class="fil0 str2" d="M600.24 1.54c-0.29,0 -0.52,155.67 -0.52,347.7 0,192.03 0.23,347.7 0.52,347.7 0.29,0 0.52,-155.67 0.52,-347.7 0,-192.03 -0.23,-347.7 -0.52,-347.7z"/>
   <path class="fil1" d="M8.26 340.99c4.56,0 8.26,3.7 8.26,8.26 0,4.56 -3.7,8.26 -8.26,8.26 -4.56,0 -8.26,-3.7 -8.26,-8.26 0,-4.56 3.7,-8.26 8.26,-8.26z"/>
   <path class="fil1" d="M105.87 340.99c4.56,0 8.26,3.7 8.26,8.26 0,4.56 -3.7,8.26 -8.26,8.26 -4.56,0 -8.26,-3.7 -8.26,-8.26 0,-4.56 3.7,-8.26 8.26,-8.26z"/>
   <path class="fil1" d="M209.07 340.99c4.56,0 8.26,3.7 8.26,8.26 0,4.56 -3.7,8.26 -8.26,8.26 -4.56,0 -8.26,-3.7 -8.26,-8.26 0,-4.56 3.7,-8.26 8.26,-8.26z"/>
   <path class="fil1" d="M303.45 340.99c4.56,0 8.26,3.7 8.26,8.26 0,4.56 -3.7,8.26 -8.26,8.26 -4.56,0 -8.26,-3.7 -8.26,-8.26 0,-4.56 3.7,-8.26 8.26,-8.26z"/>
   <path class="fil1" d="M402.24 340.99c4.56,0 8.26,3.7 8.26,8.26 0,4.56 -3.7,8.26 -8.26,8.26 -4.56,0 -8.26,-3.7 -8.26,-8.26 0,-4.56 3.7,-8.26 8.26,-8.26z"/>
   <path class="fil1" d="M496.33 340.99c4.56,0 8.26,3.7 8.26,8.26 0,4.56 -3.7,8.26 -8.26,8.26 -4.56,0 -8.26,-3.7 -8.26,-8.26 0,-4.56 3.7,-8.26 8.26,-8.26z"/>
   <path class="fil1" d="M551.15 340.99c4.56,0 8.26,3.7 8.26,8.26 0,4.56 -3.7,8.26 -8.26,8.26 -4.56,0 -8.26,-3.7 -8.26,-8.26 0,-4.56 3.7,-8.26 8.26,-8.26z"/>
   <path class="fil1" d="M600.76 340.99c4.56,0 8.26,3.7 8.26,8.26 0,4.56 -3.7,8.26 -8.26,8.26 -4.56,0 -8.26,-3.7 -8.26,-8.26 0,-4.56 3.7,-8.26 8.26,-8.26z"/>
   <path class="fil1" d="M652.39 340.99c4.56,0 8.26,3.7 8.26,8.26 0,4.56 -3.7,8.26 -8.26,8.26 -4.56,0 -8.26,-3.7 -8.26,-8.26 0,-4.56 3.7,-8.26 8.26,-8.26z"/>
   <path class="fil1" d="M704.14 340.99c4.56,0 8.26,3.7 8.26,8.26 0,4.56 -3.7,8.26 -8.26,8.26 -4.56,0 -8.26,-3.7 -8.26,-8.26 0,-4.56 3.7,-8.26 8.26,-8.26z"/>
   <path class="fil1" d="M798.23 340.99c4.56,0 8.26,3.7 8.26,8.26 0,4.56 -3.7,8.26 -8.26,8.26 -4.56,0 -8.26,-3.7 -8.26,-8.26 0,-4.56 3.7,-8.26 8.26,-8.26z"/>
   <path class="fil1" d="M897.02 340.99c4.56,0 8.26,3.7 8.26,8.26 0,4.56 -3.7,8.26 -8.26,8.26 -4.56,0 -8.26,-3.7 -8.26,-8.26 0,-4.56 3.7,-8.26 8.26,-8.26z"/>
   <path class="fil1" d="M991.4 340.99c4.56,0 8.26,3.7 8.26,8.26 0,4.56 -3.7,8.26 -8.26,8.26 -4.56,0 -8.26,-3.7 -8.26,-8.26 0,-4.56 3.7,-8.26 8.26,-8.26z"/>
   <path class="fil1" d="M1094.6 340.99c4.56,0 8.26,3.7 8.26,8.26 0,4.56 -3.7,8.26 -8.26,8.26 -4.56,0 -8.26,-3.7 -8.26,-8.26 0,-4.56 3.7,-8.26 8.26,-8.26z"/>
   <path class="fil1" d="M1192.22 340.99c4.56,0 8.26,3.7 8.26,8.26 0,4.56 -3.7,8.26 -8.26,8.26 -4.56,0 -8.26,-3.7 -8.26,-8.26 0,-4.56 3.7,-8.26 8.26,-8.26z"/>
  </g>
 </g>
</svg>
