<?xml version="1.0" encoding="UTF-8"?>
<!DOCTYPE svg PUBLIC "-//W3C//DTD SVG 1.1//EN" "http://www.w3.org/Graphics/SVG/1.1/DTD/svg11.dtd">
<!-- Creator: CorelDRAW 2021 (64-Bit) -->
<svg xmlns="http://www.w3.org/2000/svg" xml:space="preserve" width="5.39993in" height="3.16069in" version="1.1" style="shape-rendering:geometricPrecision; text-rendering:geometricPrecision; image-rendering:optimizeQuality; fill-rule:evenodd; clip-rule:evenodd"
viewBox="0 0 2392.8 1400.56"
 xmlns:xlink="http://www.w3.org/1999/xlink"
 xmlns:xodm="http://www.corel.com/coreldraw/odm/2003">
 <defs>
  <style type="text/css">
   <![CDATA[
    .fil1 {fill:#5CE05C}
    .fil0 {fill:black;fill-rule:nonzero}
   ]]>
  </style>
 </defs>
 <g id="Layer_x0020_1">
  <metadata id="CorelCorpID_0Corel-Layer"/>
  <path class="fil0" d="M1178.98 6.37c3.86,0 4.09,-6.15 -0.16,-6.15 -4.12,0.09 -8.24,0.24 -12.36,0.41 -0.88,0.08 -1.56,0.41 -2.04,0.88 -0.54,-0.5 -1.27,-0.79 -2.17,-0.71 -4.11,0.19 -8.23,0.42 -12.34,0.7 -4.22,0.38 -3.45,6.49 0.41,6.14 4.08,-0.27 8.15,-0.5 12.23,-0.69 0.91,-0.08 1.59,-0.42 2.06,-0.89 0.52,0.43 1.23,0.71 2.12,0.71 4.08,-0.17 8.16,-0.32 12.25,-0.41zm17.42 -6.37l-3.27 0.01c-3.99,0 -4.07,6.15 0.06,6.15 0.72,-0.06 1.5,-0.1 2.31,-0.13 0.28,0.08 0.58,0.12 0.91,0.12 4.09,0.01 8.18,0.05 12.27,0.11 1.23,0 2.09,-0.54 2.58,-1.3l0 -0 0.07 -0.12 0.07 -0.12 0 -0 0.06 -0.13 0 -0 0.06 -0.13 0 -0 0.05 -0.13 0 -0 0.04 -0.13 0 -0 0.04 -0.14 0 -0 0.03 -0.14 0 -0 0.03 -0.14 0 -0 0.02 -0.14 0 -0 0.01 -0.14 0 -0 0.01 -0.14 0 -0 0 -0.14 0 -0 -0 -0.14 0 -0 -0.01 -0.14 0 -0 -0.02 -0.14 0 -0 -0.02 -0.14 0 -0 -0.03 -0.14 0 -0 -0.03 -0.14 -0 -0 -0.04 -0.14 0 -0 -0.04 -0.13 -0 -0 -0.05 -0.13 -0 -0 -0.06 -0.13 0 -0 -0.06 -0.13 -0 -0 -0.07 -0.12c-0.47,-0.83 -1.34,-1.43 -2.57,-1.43 -1.74,-0.03 -3.47,-0.05 -5.21,-0.06l0 -0 -0.39 -0 0 -0 -0.96 -0.01 0 -0 -0.77 -0.01 -0.19 0 0 -0 -1.35 -0.01 -0.19 0 -0.77 -0.01 -0.19 0 -0.19 -0 -0.19 0 -0.39 -0 -0.19 0 0 -0 -0.19 0 -0.19 0 0 -0 -0.19 0 -0.19 0 -0.19 0 -0.19 -0 -0.19 0zm169.82 27.21c3.95,1.03 7.9,2.07 11.83,3.17 2.02,0.55 3.42,-0.74 3.78,-2.28 0.46,-1.5 -0.1,-3.31 -2.12,-3.86 -3.98,-1.06 -7.96,-2.1 -11.95,-3.12 -1.59,-0.43 -2.83,0.37 -3.43,1.53 -1.99,0.37 -2.39,1.5 0.77,4.04 0.43,0.27 0.65,0.38 1.12,0.52zm-246.42 -16.9c0.87,-0.08 1.52,-0.45 1.97,-0.97 0.55,0.41 1.28,0.65 2.19,0.56 4.06,-0.43 8.13,-0.81 12.2,-1.16 4.06,-0.37 3.48,-6.5 -0.54,-6.13 -4.11,0.35 -8.21,0.73 -12.31,1.17 -0.88,0.08 -1.54,0.45 -1.99,0.98 -0.55,-0.41 -1.28,-0.64 -2.21,-0.56 -4.1,0.45 -8.19,0.93 -12.28,1.45 -3.75,0.34 -3.54,6.5 0.79,6.1 4.05,-0.52 8.11,-0.99 12.17,-1.44zm-42.46 6c0.87,-0.16 1.5,-0.57 1.91,-1.1 0.58,0.4 1.33,0.58 2.22,0.42 4.02,-0.69 8.07,-1.3 12.1,-1.91 4.21,-0.76 2.85,-6.77 -0.93,-6.09 -4.08,0.61 -8.16,1.23 -12.22,1.93 -0.88,0.16 -1.51,0.57 -1.92,1.1 -0.58,-0.39 -1.33,-0.58 -2.23,-0.42 -4.06,0.71 -8.11,1.45 -12.16,2.23 -3.9,0.71 -2.9,6.78 1.18,6.04 4.01,-0.77 8.03,-1.51 12.05,-2.21zm-41.98 8.72c0.89,-0.24 1.5,-0.71 1.88,-1.28 0.6,0.35 1.34,0.47 2.18,0.24 3.97,-0.94 7.97,-1.8 11.96,-2.65 3.74,-0.68 2.94,-6.79 -1.31,-6.02 -4.02,0.86 -8.08,1.71 -12.07,2.68 -0.9,0.25 -1.52,0.71 -1.89,1.28 -0.6,-0.34 -1.35,-0.47 -2.19,-0.24 -4,0.95 -8.03,1.96 -12,3.03 -3.95,1.08 -2.29,7 1.59,5.95 3.92,-1.06 7.92,-2.06 11.87,-3zm-41.29 11.5c0.95,-0.26 1.57,-0.88 1.88,-1.62 0.56,0.21 1.23,0.24 2,0.03 3.91,-1.18 7.84,-2.29 11.77,-3.39 3.83,-1.04 2.31,-7.01 -1.68,-5.92 -3.97,1.11 -7.94,2.23 -11.88,3.42 -0.98,0.27 -1.61,0.89 -1.92,1.63 -0.57,-0.2 -1.25,-0.24 -2.04,-0.03 -3.93,1.24 -7.85,2.53 -11.75,3.84 -3.97,1.44 -1.68,7.16 1.97,5.83 3.87,-1.3 7.75,-2.58 11.64,-3.81zm-40.38 14.36c1.14,-0.42 1.74,-1.29 1.88,-2.25 0.5,0.09 1.07,0.05 1.68,-0.17 3.82,-1.43 7.69,-2.78 11.54,-4.12 3.89,-1.41 1.7,-7.17 -2.04,-5.81 -3.89,1.36 -7.78,2.72 -11.65,4.16 -1.19,0.43 -1.8,1.32 -1.95,2.28 -0.51,-0.09 -1.1,-0.04 -1.74,0.19 -3.83,1.52 -7.67,3.08 -11.46,4.7 -3.79,1.89 -1.24,7.12 2.42,5.66 3.75,-1.59 7.53,-3.14 11.32,-4.64zm-39.17 17.32c1.53,-0.76 1.93,-2.16 1.62,-3.41 0.43,0.01 0.87,-0.09 1.32,-0.32 3.73,-1.65 7.49,-3.25 11.26,-4.83 3.52,-1.41 1.69,-7.16 -2.4,-5.67 -3.8,1.59 -7.59,3.21 -11.37,4.87 -1.65,0.82 -2.06,2.23 -1.74,3.47 -0.45,-0 -0.93,0.11 -1.43,0.36 -3.71,1.81 -7.38,3.67 -11.05,5.56 -3.53,1.76 -0.89,7.33 2.83,5.46 3.63,-1.87 7.27,-3.71 10.94,-5.51zm-37.65 20.38c2.31,-1.39 1.69,-4.19 -0.02,-5.3 0.58,0.09 1.23,-0 1.91,-0.35 3.63,-1.88 7.27,-3.71 10.94,-5.52 3.65,-1.82 0.87,-7.32 -2.74,-5.51 -3.7,1.82 -7.38,3.68 -11.04,5.57 -2.42,1.21 -1.93,4.22 -0.18,5.38 -0.63,-0.1 -1.33,0.02 -2.04,0.45 -3.54,2.12 -7.08,4.27 -10.56,6.49 -3.3,1.98 -0.35,7.38 3.31,5.19 3.44,-2.19 6.92,-4.31 10.42,-6.4zm-35.71 23.55c3.36,-2.61 -0.61,-7.33 -3.65,-4.95 -3.33,2.44 -6.63,4.91 -9.9,7.43 -3.22,2.51 0.58,7.35 3.76,4.87 3.24,-2.49 6.5,-4.93 9.79,-7.34zm-33.27 26.85c3.14,-3.14 -1.53,-7.16 -4.13,-4.56 -3.07,2.76 -6.13,5.56 -9.11,8.42 -2.97,2.97 1.5,7.2 4.27,4.43 2.94,-2.81 5.94,-5.56 8.97,-8.29zm-30.19 30.23c2.55,-2.87 -1.55,-7.14 -4.6,-4.09 -2.75,3.09 -5.48,6.24 -8.1,9.43 -2.61,3.35 2.39,6.95 4.76,3.9 2.59,-3.12 5.24,-6.21 7.94,-9.24zm-26.29 33.58c2.27,-3.41 -2.88,-6.78 -5.1,-3.44 -2.33,3.43 -4.6,6.88 -6.8,10.4 -2.15,3.59 3.2,6.62 5.23,3.25 2.16,-3.45 4.39,-6.84 6.68,-10.2zm-21.48 36.79c1.76,-3.53 -3.68,-6.4 -5.54,-2.67 -1.81,3.74 -3.55,7.48 -5.22,11.29 -1.48,3.69 3.77,6.2 5.65,2.44 1.63,-3.73 3.34,-7.4 5.12,-11.06zm-15.66 39.57c1.12,-4.1 -4.88,-5.49 -5.89,-1.77 -1.21,3.96 -2.36,7.99 -3.35,12.01 -1.02,3.72 4.86,5.57 5.98,1.47 1.05,-3.93 2.08,-7.8 3.27,-11.7zm-8.94 41.57c0.39,-4.31 -5.76,-4.54 -6.11,-0.77 -0.53,4.12 -0.94,8.27 -1.26,12.41 -0.35,3.9 5.76,4.62 6.14,0.44 0.32,-4.04 0.72,-8.07 1.23,-12.08zm-1.68 42.44c-0.39,-4.32 -6.49,-3.43 -6.14,0.33 0.2,4.16 0.49,8.27 0.89,12.41 0.36,3.97 6.49,3.49 6.12,-0.61 -0.38,-4.05 -0.67,-8.08 -0.87,-12.14zm5.64 42.14c-1.08,-3.94 -6.73,-2.66 -6,1.36 0.89,4.03 1.88,8.13 3,12.1 1.05,3.83 7.01,2.31 5.92,-1.67 -1.1,-3.86 -2.06,-7.87 -2.92,-11.79zm12.67 40.61c-1.29,-3.56 -7.19,-1.76 -5.71,2.31 1.42,3.78 3.24,7.76 4.93,11.44 1.92,3.84 7.3,0.84 5.59,-2.58 -1.64,-3.6 -3.42,-7.48 -4.81,-11.17zm18.92 38.12c-2.08,-3.47 -7.37,-0.31 -5.27,3.18 1.73,2.89 3.48,5.75 5.29,8.58 -0.79,1.74 -1.56,3.49 -2.32,5.24 -1.47,3.68 3.77,6.2 5.65,2.43 0.7,-1.61 1.41,-3.21 2.13,-4.81 1.02,-0.62 1.71,-1.77 1.42,-3.13l1.48 -3.22c1.61,-3.22 -3.1,-6.09 -5.25,-3.13 -1.06,-1.7 -2.1,-3.42 -3.12,-5.14zm24.22 35.11c-2.44,-3.13 -7.36,0.56 -4.81,3.83 2.57,3.25 5.21,6.43 7.89,9.59 2.28,2.93 7.39,-0.52 4.68,-4 -2.63,-3.11 -5.22,-6.23 -7.75,-9.43zm28.51 31.77c-2.84,-2.84 -7.23,1.48 -4.33,4.38 2.93,2.92 5.93,5.77 8.95,8.59 2.67,2.67 7.26,-1.44 4.19,-4.51 -2.98,-2.77 -5.93,-5.58 -8.81,-8.46zm31.93 28.38c-3.25,-2.53 -6.97,2.38 -3.82,4.83 3.24,2.58 6.5,5.1 9.79,7.6 3.08,2.4 7,-2.35 3.68,-4.93 -3.26,-2.42 -6.47,-4.96 -9.65,-7.49zm34.66 25.06c-3.7,-2.22 -6.6,3.21 -3.34,5.17 3.46,2.25 6.94,4.46 10.45,6.64 3.55,2.13 6.63,-3.2 3.23,-5.24 -3.47,-2.15 -6.91,-4.34 -10.33,-6.56zm36.83 21.83c-3.8,-1.9 -6.34,3.71 -2.89,5.43 3.64,1.95 7.29,3.85 10.97,5.72 3.66,1.83 6.36,-3.7 2.78,-5.49 -3.64,-1.85 -7.26,-3.74 -10.86,-5.66zm38.52 18.71c-3.69,-1.48 -6.2,3.77 -2.44,5.65 3.78,1.65 7.57,3.27 11.38,4.84 4.1,1.49 5.86,-4.41 2.33,-5.69 -3.78,-1.56 -7.53,-3.16 -11.27,-4.79zm39.87 15.71c-3.72,-1.35 -5.93,4.39 -2.03,5.81 3.89,1.37 7.79,2.69 11.71,3.99 3.59,1.3 5.96,-4.38 1.92,-5.85 -3.88,-1.28 -7.74,-2.6 -11.6,-3.95zm40.9 12.8c-3.91,-1.07 -5.53,4.87 -1.62,5.94 3.98,1.09 7.96,2.15 11.95,3.16 3.78,1.03 5.56,-4.86 1.51,-5.97 -3.96,-1.01 -7.9,-2.06 -11.84,-3.14zm41.7 9.99c-4.15,-0.76 -5.06,5.33 -1.23,6.03 4.02,0.8 8.17,1.5 12.15,2.37 3.98,0.72 5.09,-5.33 1.1,-6.06 -4.02,-0.75 -8.01,-1.54 -12.01,-2.34zm42.25 7.24c-4.07,-0.37 -4.86,5.37 -0.82,6.1 4.08,0.56 8.17,1.09 12.26,1.59 4.23,0.39 4.56,-5.76 0.71,-6.11 -4.06,-0.49 -8.1,-1.02 -12.15,-1.57zm42.64 4.56c-3.89,-0.35 -4.63,5.76 -0.44,6.14l4.6 0.32c-0.03,1.67 1.15,3.38 3.25,3.19 4.08,-0.27 8.15,-0.5 12.23,-0.69 4.36,-0.4 3.42,-6.49 -0.3,-6.15 -1.44,0.07 -2.88,0.14 -4.33,0.22 -0.27,-1.12 -1.16,-2.07 -2.78,-2.22 -4.08,-0.25 -8.16,-0.52 -12.24,-0.82zm42.86 1.93c-4.16,0 -4.04,6.15 -0.08,6.15 2.38,0.03 4.75,0.06 7.12,0.07 0.13,0.01 0.25,0.02 0.39,0.02l0.19 -0.02c1.55,0.01 3.11,0.01 4.66,0 0.35,0 0.68,-0.05 0.97,-0.14 3.31,0.04 6.81,0.2 9.66,0.25 4.16,0 4.04,-6.15 0.08,-6.15 -3.49,-0.05 -6.98,-0.09 -10.47,-0.1l-0.27 -0.01c-4.08,0.01 -8.17,-0.02 -12.25,-0.08zm42.88 -0.65c-4.36,0.4 -3.42,6.49 0.3,6.15 2.5,-0.12 5.02,-0.22 7.53,-0.36 0.23,1.19 1.12,2.23 2.81,2.38 4.08,0.25 8.15,0.53 12.23,0.85 3.93,0.36 4.62,-5.76 0.46,-6.14 -2.62,-0.2 -5.23,-0.39 -7.85,-0.57 -0.07,-1.59 -1.24,-3.16 -3.25,-2.97 -4.07,0.28 -8.16,0.47 -12.24,0.66zm42.78 -3.25c-3.92,0.36 -3.51,6.5 0.66,6.12 4.1,-0.43 8.19,-0.92 12.28,-1.43 3.78,-0.34 3.53,-6.5 -0.76,-6.11 -4.05,0.5 -8.11,0.99 -12.17,1.41zm42.47 -5.9c-4.06,0.74 -2.88,6.78 1.04,6.07 3.96,-0.57 8.24,-1.43 12.18,-2.21 3.9,-0.71 2.9,-6.78 -1.18,-6.04 -3.94,0.74 -8.1,1.61 -12.05,2.18zm41.99 -8.61c-4.12,1.12 -2.26,6.99 1.45,5.98 4.01,-0.96 8.01,-1.96 12,-3 3.99,-1.09 2.28,-7 -1.56,-5.95 -3.95,1.03 -7.92,2.01 -11.89,2.97zm39.5 -9.91c-0.99,2.06 0.51,5.25 3.68,4.39 3.94,-1.24 7.85,-2.5 11.77,-3.81 3.97,-1.44 1.68,-7.16 -1.97,-5.83 -2.37,0.8 -4.74,1.57 -7.11,2.34 0.21,-2.98 0.44,-5.97 0.7,-8.95 0.36,-3.98 -5.76,-4.61 -6.13,-0.51 -0.35,4.12 -0.66,8.23 -0.92,12.35l-0 0.03zm42.23 -15.73c-3.59,1.31 -1.75,7.18 2.28,5.72 3.83,-1.52 7.65,-3.07 11.46,-4.66 3.46,-1.26 1.78,-7.19 -2.39,-5.67 -3.77,1.58 -7.55,3.11 -11.35,4.61zm39.24 -17.21c-3.7,1.85 -0.86,7.31 2.69,5.53 3.71,-1.79 7.42,-3.65 11.08,-5.54 3.53,-1.76 0.89,-7.33 -2.83,-5.46 -3.62,1.86 -7.27,3.7 -10.94,5.47zm37.72 -20.27c-3.51,2.1 -0.31,7.36 3.14,5.29 3.56,-2.09 7.09,-4.26 10.58,-6.45 3.33,-2 0.34,-7.38 -3.28,-5.21 -3.45,2.16 -6.93,4.3 -10.44,6.37zm35.79 -23.44c-3.39,2.64 0.61,7.32 3.63,4.98 3.34,-2.42 6.68,-4.88 9.95,-7.4 3.22,-2.5 -0.58,-7.34 -3.76,-4.87 -3.24,2.47 -6.51,4.9 -9.81,7.29zm33.38 -26.73c-3.03,3.03 1.21,7.16 4.1,4.59 3.09,-2.74 6.14,-5.54 9.14,-8.38 3,-3 -1.51,-7.19 -4.24,-4.46 -2.96,2.8 -5.96,5.55 -9.01,8.25zm30.31 -30.09c-2.69,3.03 1.91,7.12 4.6,4.09 2.76,-3.09 5.48,-6.2 8.13,-9.38 2.64,-3.39 -2.39,-6.94 -4.74,-3.93 -2.61,3.12 -5.28,6.19 -7.99,9.22zm26.47 -33.47c-2.31,3.46 2.88,6.77 5.08,3.48 0.86,-1.25 1.71,-2.5 2.55,-3.76 2.31,2.01 6.21,-0.74 4.76,-3.65l-0.96 -2.16 0.51 -0.79c1.59,-2.64 -0.83,-4.94 -3.03,-4.72l-1.68 -3.59c-1.89,-3.77 -7.3,-0.85 -5.56,2.64 0.93,1.97 1.86,3.95 2.77,5.94 -1.45,2.22 -2.92,4.42 -4.43,6.6zm21.68 -36.67c-1.79,3.58 3.69,6.39 5.52,2.71 1.85,-3.72 3.59,-7.46 5.29,-11.25 1.65,-3.31 -3.65,-6.44 -5.63,-2.49 -1.67,3.71 -3.37,7.38 -5.18,11.03zm15.9 -39.48c-1.14,4.17 4.88,5.48 5.88,1.82 1.24,-3.96 2.38,-7.97 3.43,-11.99 1.03,-3.79 -4.86,-5.56 -5.97,-1.52 -1.01,3.91 -2.13,7.83 -3.34,11.68zm9.2 -41.49c-0.39,4.31 5.76,4.54 6.11,0.77 0.54,-4.13 0.98,-8.23 1.34,-12.38 0.36,-3.97 -5.76,-4.61 -6.13,-0.5 -0.35,4.06 -0.78,8.07 -1.31,12.1zm1.96 -42.46c0.37,4.07 6.15,3.82 6.15,-0.28 -0.16,-4.16 -0.45,-8.28 -0.8,-12.42 -0.37,-4.05 -6.5,-3.48 -6.13,0.55 0.35,4.05 0.63,8.08 0.79,12.15zm-5.37 -42.17c0.68,3.74 6.79,2.94 6.02,-1.31 -0.86,-4.05 -1.85,-8.12 -2.93,-12.12 -1.07,-3.91 -7.01,-2.3 -5.94,1.62 1.04,3.9 2.01,7.86 2.85,11.81zm-11.97 -39.85c1.75,2.32 6.23,0.74 5.4,-2.67 1.95,-0.95 3.9,-1.9 5.87,-2.82 3.77,-1.89 0.85,-7.3 -2.64,-5.56 -1.85,0.87 -3.69,1.76 -5.53,2.66 -0.87,-2.07 -1.76,-4.12 -2.68,-6.17 -1.95,-3.89 -7.29,-0.83 -5.61,2.54 0.95,2.12 1.87,4.24 2.77,6.37l-0.08 0.04c-3.51,1.76 -1.01,7.04 2.5,5.62zm-19.15 -39.06c2.11,3.52 7.36,0.3 5.3,-3.13 -2.1,-3.58 -4.26,-7.1 -6.49,-10.59 -1.96,-3.27 -7.39,-0.35 -5.17,3.33 2.19,3.43 4.32,6.88 6.37,10.39zm-24.03 -35.21c2.44,3.13 7.36,-0.56 4.81,-3.83 -2.57,-3.25 -5.16,-6.47 -7.84,-9.62 -2.28,-2.93 -7.39,0.52 -4.68,4 2.63,3.11 5.18,6.27 7.71,9.46zm-28.37 -31.9c2.83,2.83 7.23,-1.48 4.32,-4.38 -2.93,-2.91 -5.89,-5.81 -8.91,-8.63 -2.67,-2.67 -7.26,1.44 -4.19,4.51 2.97,2.78 5.89,5.62 8.78,8.49zm-31.84 -28.53c3.29,2.56 6.96,-2.38 3.85,-4.8 -3.22,-2.59 -6.47,-5.14 -9.76,-7.64 -3.12,-2.42 -7,2.36 -3.71,4.91 3.24,2.47 6.45,4.97 9.62,7.53zm-34.57 -25.18c3.33,2 5.96,-2.12 4.21,-4.41 2.57,-0.16 4.37,-3.98 1.33,-5.81 -3.59,-2.02 -7.2,-4.01 -10.83,-5.97 -3.05,-1.52 -5.27,1.74 -4.3,4 -2.18,0.72 -3.24,4.08 -0.71,5.6 3.46,2.14 6.89,4.35 10.29,6.59zm-36.75 -21.95c2.69,1.34 4.72,-1.01 4.52,-3.13 1.5,-1.29 1.84,-3.98 -0.57,-5.18 -3.71,-1.8 -7.44,-3.56 -11.18,-5.29 -2.3,-1.15 -4.43,0.94 -4.37,3 -1.27,1.36 -1.41,3.83 0.77,4.92 3.63,1.85 7.25,3.75 10.83,5.69zm-38.46 -18.83c1.94,0.97 4.19,-0.62 4.32,-2.62 0.9,-1.51 0.62,-3.77 -1.41,-4.5 -3.81,-1.57 -7.65,-3.08 -11.48,-4.58 -2.28,-0.83 -3.88,0.75 -4.14,2.5 -0.82,1.51 -0.5,3.67 1.45,4.39 3.77,1.58 7.52,3.18 11.26,4.83zm-39.82 -15.82c2.1,0.76 3.7,-0.7 4.03,-2.39 0.6,-1.46 0.21,-3.32 -1.83,-4.06 -3.89,-1.34 -7.83,-2.6 -11.75,-3.86 -2.2,-0.6 -3.59,0.75 -3.91,2.33 -0.56,1.45 -0.16,3.26 1.88,4.01 3.87,1.29 7.73,2.61 11.57,3.98zm-82.53 -23c1.49,0.27 2.57,-0.34 3.15,-1.27l0.01 -0.01 0.06 -0.11 0.01 -0.01 0.06 -0.11 0.01 -0.02 0.05 -0.11 0.01 -0.02c0.75,-1.65 0.15,-3.97 -2.12,-4.38l-3.03 -0.6 -0.01 0 -0.18 -0.04 -0.01 0 -0.18 -0.04 -0.01 -0 -0.18 -0.04 -0 -0c-2.84,-0.57 -5.69,-1.13 -8.53,-1.66 -2.01,-0.37 -3.28,0.97 -3.55,2.49l-0.02 0.13 0 0.01 -0.02 0.13 0 0.01 -0.01 0.13 0 0.01 -0.01 0.13 0 0.01 0 0.13 0 0.01 0.01 0.13 0 0.01c0.09,1.24 0.87,2.41 2.48,2.71 2.82,0.53 5.64,1.08 8.45,1.64l0 0 0.18 0.04 0 0 0.18 0.04 0 0 0.18 0.04 0 0 3 0.61zm-38.78 -10.24c0.1,-1.4 -0.66,-2.84 -2.62,-3.2 -4.08,-0.57 -8.17,-1.11 -12.26,-1.62 -2.15,-0.19 -3.29,1.27 -3.4,2.81l-0.01 0.11 -0 0.03 -0 0.11c-0.02,1.45 0.87,2.91 2.67,3.08 4.05,0.5 8.1,1.03 12.15,1.6 1.91,0.35 3.23,-1.1 3.45,-2.68l0.01 -0.11 0 -0.03 0.01 -0.11zm-42.83 -4.7c0.08,-1.49 -0.8,-3.02 -2.81,-3.2 -4.11,-0.32 -8.22,-0.61 -12.33,-0.85 -1.78,-0.16 -2.91,1.09 -3.17,2.51l-0 0.02 -0.02 0.13 -0 0.02 -0.02 0.13 -0 0.02 -0.01 0.13 -0 0.02 -0 0.13c-0.03,1.44 0.84,2.89 2.87,3.08 4.08,0.25 8.15,0.53 12.22,0.85 1.84,0.17 2.97,-1.09 3.22,-2.51l0 -0.02 0.02 -0.12 0 -0.02 0.01 -0.12 0 -0.02 0.01 -0.12 0 -0.02zm111.44 719.06c3.95,1.03 7.9,2.07 11.83,3.17 3.95,1.08 5.52,-4.87 1.64,-5.93 -0.18,-0.05 -24.35,-5.58 -14.59,2.25 0.43,0.27 0.65,0.38 1.12,0.52zm-246.42 -16.9c3.88,-0.35 3.52,-6.5 -0.69,-6.12 -4.1,0.45 -8.19,0.93 -12.28,1.45 -3.75,0.34 -3.54,6.5 0.79,6.1 4.05,-0.52 8.11,-0.99 12.17,-1.44zm-42.46 6c4.03,-0.73 2.88,-6.78 -1.07,-6.06 -4.06,0.71 -8.11,1.45 -12.16,2.23 -3.9,0.71 -2.9,6.78 1.18,6.04 4.01,-0.77 8.03,-1.51 12.05,-2.21zm-41.98 8.72c4.12,-1.12 2.26,-6.99 -1.45,-5.98 -4,0.95 -8.03,1.96 -12,3.03 -3.95,1.08 -2.29,7 1.59,5.95 3.92,-1.06 7.92,-2.06 11.87,-3zm-41.29 11.5c3.61,-0.98 2.36,-7.02 -1.86,-5.87 -3.93,1.24 -7.85,2.53 -11.75,3.84 -3.97,1.44 -1.68,7.16 1.97,5.83 3.87,-1.3 7.75,-2.58 11.64,-3.81zm-40.38 14.36c3.59,-1.31 1.75,-7.18 -2.28,-5.72 -3.83,1.52 -7.67,3.08 -11.46,4.7 -3.79,1.89 -1.24,7.12 2.42,5.66 3.75,-1.59 7.53,-3.14 11.32,-4.64zm-39.17 17.32c3.67,-1.83 0.87,-7.31 -2.72,-5.52 -3.71,1.81 -7.38,3.67 -11.05,5.56 -3.53,1.76 -0.89,7.33 2.83,5.46 3.63,-1.87 7.27,-3.71 10.94,-5.51zm-37.65 20.38c3.47,-2.08 0.31,-7.37 -3.17,-5.28 -3.54,2.12 -7.08,4.27 -10.56,6.49 -3.3,1.98 -0.35,7.38 3.31,5.19 3.44,-2.19 6.92,-4.31 10.42,-6.4zm-35.71 23.55c3.36,-2.61 -0.61,-7.33 -3.65,-4.95 -3.33,2.44 -6.63,4.91 -9.9,7.43 -3.22,2.51 0.58,7.35 3.76,4.87 3.24,-2.49 6.5,-4.93 9.79,-7.34zm-33.27 26.85c3.14,-3.14 -1.53,-7.16 -4.13,-4.56 -3.07,2.76 -6.13,5.56 -9.11,8.42 -2.97,2.97 1.5,7.2 4.27,4.43 2.94,-2.81 5.94,-5.56 8.97,-8.29zm-30.19 30.23c2.55,-2.87 -1.55,-7.14 -4.6,-4.09 -2.75,3.09 -5.48,6.24 -8.1,9.43 -2.61,3.35 2.39,6.95 4.76,3.9 2.59,-3.12 5.24,-6.21 7.94,-9.24zm-26.29 33.58c2.27,-3.41 -2.88,-6.78 -5.1,-3.44 -2.33,3.43 -4.6,6.88 -6.8,10.4 -1.88,3.13 1.98,5.85 4.33,4.23 1.53,3.27 3.09,6.53 4.69,9.77 1.82,3.65 7.32,0.87 5.51,-2.74 -1.81,-3.66 -3.57,-7.34 -5.28,-11.04 -0.32,-0.64 -0.74,-1.09 -1.21,-1.38 1.26,-1.95 2.56,-3.88 3.86,-5.8zm-21.48 36.79c1.76,-3.53 -3.68,-6.4 -5.54,-2.67 -1.81,3.74 -3.55,7.48 -5.22,11.29 -1.48,3.69 3.77,6.2 5.65,2.44 1.63,-3.73 3.34,-7.4 5.12,-11.06zm-15.66 39.57c1.12,-4.1 -4.88,-5.49 -5.89,-1.77 -1.21,3.96 -2.36,7.99 -3.35,12.01 -1.02,3.72 4.86,5.57 5.98,1.47 1.05,-3.93 2.08,-7.8 3.27,-11.7zm-8.94 41.57c0.39,-4.31 -5.76,-4.54 -6.11,-0.77 -0.53,4.12 -0.94,8.27 -1.26,12.41 -0.35,3.9 5.76,4.62 6.14,0.44 0.32,-4.04 0.72,-8.07 1.23,-12.08zm-1.68 42.44c-0.39,-4.32 -6.49,-3.43 -6.14,0.33 0.2,4.16 0.49,8.27 0.89,12.41 0.36,3.97 6.49,3.49 6.12,-0.61 -0.38,-4.05 -0.67,-8.08 -0.87,-12.14zm5.64 42.14c-1.08,-3.94 -6.73,-2.66 -6,1.36 0.89,4.03 1.88,8.13 3,12.1 1.05,3.83 7.01,2.31 5.92,-1.67 -1.1,-3.86 -2.06,-7.87 -2.92,-11.79zm12.67 40.61c-1.15,-3.18 -5.96,-2.09 -5.95,1.07 -0.69,-0.25 -1.5,-0.24 -2.35,0.19 -3.67,1.78 -7.37,3.5 -11.08,5.19 -3.86,1.93 -0.83,7.29 2.57,5.59 3.76,-1.71 7.51,-3.45 11.22,-5.25 0.56,-0.28 0.96,-0.64 1.24,-1.05 1.13,2.7 2.38,5.43 3.56,8.02 1.92,3.84 7.3,0.84 5.59,-2.58 -1.64,-3.6 -3.42,-7.48 -4.81,-11.17zm18.92 38.12c-2.08,-3.47 -7.37,-0.31 -5.27,3.18 2.13,3.56 4.3,7.07 6.55,10.55 1.94,3.23 7.39,0.36 5.15,-3.37 -2.22,-3.42 -4.35,-6.87 -6.43,-10.36zm24.22 35.11c-2.44,-3.13 -7.36,0.56 -4.81,3.83 2.57,3.25 5.21,6.43 7.89,9.59 2.28,2.93 7.39,-0.52 4.68,-4 -2.63,-3.11 -5.22,-6.23 -7.75,-9.43zm28.51 31.77c-2.84,-2.84 -7.23,1.48 -4.33,4.38 2.93,2.92 5.93,5.77 8.95,8.59 2.67,2.67 7.26,-1.44 4.19,-4.51 -2.98,-2.77 -5.93,-5.58 -8.81,-8.46zm31.93 28.38c-3.25,-2.53 -6.97,2.38 -3.82,4.83 3.24,2.58 6.5,5.1 9.79,7.6 3.08,2.4 7,-2.35 3.68,-4.93 -3.26,-2.42 -6.47,-4.96 -9.65,-7.49zm34.66 25.06c-2.9,-1.74 -5.31,1.22 -4.64,3.53 -1.66,-0.94 -3.32,-1.88 -4.97,-2.83 -3.36,-2.01 -6.67,3.18 -3.07,5.33 3.57,2.06 7.17,4.07 10.77,6.07 2.63,1.31 4.8,-0.94 4.55,-3.1 1.48,0.94 2.97,1.87 4.47,2.8 3.55,2.13 6.63,-3.2 3.23,-5.24 -3.47,-2.15 -6.91,-4.34 -10.33,-6.56zm36.83 21.83c-1.87,-0.94 -3.44,-0.05 -4.14,1.29 -1.5,-0.73 -3,-1.46 -4.5,-2.19 -3.57,-1.79 -6.39,3.69 -2.71,5.53 3.69,1.82 7.4,3.65 11.13,5.4 1.6,0.8 3.1,0.06 3.86,-1.15 1.47,0.76 2.95,1.52 4.43,2.28 3.66,1.83 6.36,-3.7 2.78,-5.49 -3.64,-1.85 -7.26,-3.74 -10.86,-5.66zm38.52 18.71c-1.21,-0.48 -2.29,-0.25 -3.07,0.36 -1.7,-0.7 -3.4,-1.41 -5.09,-2.12 -4.14,-1.51 -5.85,4.42 -2.36,5.68 3.8,1.59 7.61,3.17 11.44,4.69 1.16,0.42 2.14,0.23 2.87,-0.29 1.71,0.73 3.43,1.45 5.16,2.16 4.1,1.49 5.86,-4.41 2.33,-5.69 -3.78,-1.56 -7.53,-3.16 -11.27,-4.79zm39.87 15.71c-0.77,-0.28 -1.48,-0.26 -2.08,-0.03 -1.98,-0.67 -3.95,-1.35 -5.92,-2.04 -3.7,-1.34 -5.94,4.39 -2.01,5.82 3.89,1.36 7.79,2.68 11.71,3.97 0.7,0.19 1.32,0.18 1.86,0.02 2.04,0.69 4.07,1.38 6.12,2.06 3.59,1.3 5.96,-4.38 1.92,-5.85 -3.88,-1.28 -7.74,-2.6 -11.6,-3.95zm40.9 12.8c-0.42,-0.11 -0.81,-0.15 -1.17,-0.12 -2.28,-0.61 -4.56,-1.24 -6.83,-1.88 -3.95,-1.08 -5.52,4.87 -1.64,5.93 3.97,1.11 7.95,2.2 11.94,3.24 0.38,0.1 0.74,0.14 1.08,0.11 2.32,0.62 4.64,1.22 6.96,1.82 3.78,1.03 5.56,-4.86 1.51,-5.97 -3.96,-1.01 -7.9,-2.06 -11.84,-3.14zm41.7 9.99l-0.17 -0.03 -0.03 -0 -0 -0c-2.63,-0.53 -5.25,-1.08 -7.87,-1.65 -4.21,-0.77 -5.05,5.33 -1.27,6.02 4.03,0.86 8.07,1.7 12.11,2.49 0.16,0.03 0.32,0.05 0.47,0.05 2.57,0.48 5.16,0.96 7.67,1.51 3.98,0.72 5.09,-5.33 1.1,-6.06 -4.02,-0.75 -8.01,-1.54 -12.01,-2.34zm41.08 13.26c0.11,0.03 0.23,0.06 0.35,0.08 4.08,0.56 8.17,1.09 12.26,1.59 4.23,0.39 4.56,-5.76 0.71,-6.11 -2.53,-0.31 -5.05,-0.63 -7.57,-0.96 -0.18,-0.05 -0.38,-0.09 -0.58,-0.11 -4.05,-0.54 -8.09,-1.11 -12.13,-1.72 -3.74,-0.68 -5.14,5.32 -0.89,6.09 2.62,0.39 5.23,0.78 7.85,1.14zm42.96 4.62c0.13,0.03 0.27,0.05 0.42,0.06 4.11,0.3 8.21,0.58 12.32,0.82 3.79,0.35 4.65,-5.75 0.36,-6.14 -2.67,-0.16 -5.33,-0.33 -7.99,-0.52l-0.21 -0.03c-4.08,-0.3 -8.15,-0.62 -12.23,-0.97 -3.98,-0.36 -4.61,5.76 -0.51,6.13 2.62,0.22 5.23,0.44 7.85,0.64zm43.41 2l0.21 0.01 3.48 0.04 0.02 0c2.96,0.03 5.91,0.04 8.87,0.03 4.02,0 4.06,-6.15 -0.03,-6.15 -2.68,0.01 -5.36,0 -8.04,-0.02l-0 -0 -0.09 0 -0.1 -0 -0.57 -0.01 -0.01 0c-3.89,-0.04 -7.78,-0.11 -11.66,-0.21 -4.25,0 -4.02,6.15 -0.16,6.15 2.69,0.07 5.39,0.13 8.08,0.17zm44.66 -0.7c3.71,-0.17 7.47,-0.32 11.17,-0.61 4.22,-0.38 3.45,-6.49 -0.41,-6.14 -2.57,0.18 -5.16,0.32 -7.74,0.45 -0.15,-0.01 -0.31,-0.01 -0.47,0.01 -4.08,0.23 -8.16,0.38 -12.24,0.52 -3.77,0 -4.11,6.15 0.23,6.15 2.68,-0.09 5.36,-0.19 8.04,-0.31l0.07 -0 0 -0 0.17 -0.01 0.02 0 0.17 -0.01 0.02 0 0.17 -0.01 0.02 0 0.17 -0.01 0.02 0 0.17 -0.01 0.02 -0 0.17 -0.01 0.02 -0 0.17 -0.01 0.03 -0zm41.46 -3.21c0.16,0.01 0.32,0 0.49,-0.01 4.1,-0.43 8.19,-0.92 12.28,-1.43 3.78,-0.34 3.53,-6.5 -0.76,-6.11 -2.57,0.32 -5.14,0.63 -7.72,0.92 -0.14,-0 -0.29,0 -0.45,0.02 -4.07,0.45 -8.13,0.88 -12.2,1.28 -3.96,0.36 -3.49,6.5 0.62,6.12 2.59,-0.25 5.16,-0.52 7.74,-0.79zm42.89 -5.91c0.15,-0.01 0.31,-0.02 0.46,-0.05 3.96,-0.57 8.24,-1.43 12.18,-2.21 3.9,-0.71 2.9,-6.78 -1.18,-6.04 -2.4,0.45 -4.88,0.95 -7.34,1.4 -0.23,-0.01 -0.47,0.01 -0.73,0.06 -4.02,0.71 -8.05,1.4 -12.08,2.03 -4.16,0.76 -2.86,6.77 0.97,6.08 2.58,-0.4 5.15,-0.83 7.72,-1.26zm41.41 -14.73c-0.23,0.06 -0.43,0.14 -0.62,0.23 -2.45,0.58 -4.9,1.14 -7.35,1.68 -3.96,1.08 -2.66,6.73 1.35,6 4.02,-0.89 8.04,-1.83 12.05,-2.79 0.27,-0.07 0.52,-0.17 0.74,-0.28 2.43,-0.6 4.86,-1.22 7.29,-1.85 3.99,-1.09 2.28,-7 -1.56,-5.95 -3.95,1.03 -7.92,2.01 -11.89,2.97zm41.32 -11.39c-0.57,0.16 -1.02,0.44 -1.36,0.8 -2.12,0.64 -4.25,1.27 -6.39,1.88 -3.79,1.03 -2.32,7.01 1.72,5.91 3.96,-1.14 7.91,-2.33 11.85,-3.54 0.64,-0.17 1.12,-0.5 1.47,-0.91 2.12,-0.68 4.23,-1.38 6.34,-2.08 3.97,-1.44 1.68,-7.16 -1.97,-5.83 -3.87,1.3 -7.76,2.55 -11.65,3.78zm40.41 -14.25c-0.93,0.34 -1.49,0.98 -1.75,1.72 -1.86,0.69 -3.73,1.36 -5.6,2.03 -3.84,1.4 -1.7,7.17 2.08,5.79 3.88,-1.38 7.75,-2.82 11.61,-4.27 1.04,-0.38 1.63,-1.11 1.86,-1.93 1.85,-0.75 3.7,-1.51 5.54,-2.29 3.46,-1.26 1.78,-7.19 -2.39,-5.67 -3.77,1.58 -7.55,3.11 -11.35,4.61zm39.24 -17.21c-1.42,0.71 -1.88,1.95 -1.7,3.11 -1.66,0.73 -3.31,1.45 -4.98,2.15 -3.77,1.89 -1.24,7.12 2.43,5.65 3.79,-1.61 7.56,-3.3 11.32,-4.98 1.61,-0.8 2.03,-2.18 1.73,-3.41 1.66,-0.83 3.32,-1.68 4.97,-2.53 3.53,-1.76 0.89,-7.33 -2.83,-5.46 -3.62,1.86 -7.27,3.7 -10.94,5.47zm37.72 -20.27c-2.07,1.24 -1.8,3.59 -0.52,4.87 -1.69,0.85 -3.39,1.69 -5.03,2.52 -3.56,1.78 -0.88,7.32 2.81,5.48 3.66,-1.86 7.38,-3.72 10.99,-5.68 2.26,-1.13 1.94,-3.94 0.38,-5.2 1.71,-1.04 3.41,-2.1 5.1,-3.16 3.33,-2 0.34,-7.38 -3.28,-5.21 -3.45,2.16 -6.93,4.3 -10.44,6.37zm35.79 -23.44c-3.39,2.64 0.61,7.32 3.63,4.98 3.34,-2.42 6.68,-4.88 9.95,-7.4 3.22,-2.5 -0.58,-7.34 -3.76,-4.87 -3.24,2.47 -6.51,4.9 -9.81,7.29zm33.38 -26.73c-3.03,3.03 1.21,7.16 4.1,4.59 3.09,-2.74 6.14,-5.54 9.14,-8.38 3,-3 -1.51,-7.19 -4.24,-4.46 -2.96,2.8 -5.96,5.55 -9.01,8.25zm30.31 -30.09c-2.69,3.03 1.91,7.12 4.6,4.09 2.76,-3.09 5.48,-6.2 8.13,-9.38 2.64,-3.39 -2.39,-6.94 -4.74,-3.93 -2.61,3.12 -5.28,6.19 -7.99,9.22zm26.47 -33.47c-2.31,3.46 2.88,6.77 5.08,3.48 2.36,-3.41 4.62,-6.86 6.86,-10.36 2.18,-3.64 -3.21,-6.61 -5.2,-3.29 -2.19,3.43 -4.42,6.82 -6.73,10.17zm21.68 -36.67c-1.79,3.58 3.69,6.39 5.52,2.71 1.85,-3.72 3.59,-7.46 5.29,-11.25 1.65,-3.31 -3.65,-6.44 -5.63,-2.49 -1.67,3.71 -3.37,7.38 -5.18,11.03zm15.9 -39.48c-1.14,4.17 4.88,5.48 5.88,1.82 1.24,-3.96 2.38,-7.97 3.43,-11.99 1.03,-3.79 -4.86,-5.56 -5.97,-1.52 -1.01,3.91 -2.13,7.83 -3.34,11.68zm9.2 -41.49c-0.39,4.31 5.76,4.54 6.11,0.77 0.54,-4.13 0.98,-8.23 1.34,-12.38 0.36,-3.97 -5.76,-4.61 -6.13,-0.5 -0.35,4.06 -0.78,8.07 -1.31,12.1zm1.96 -42.46c0.37,4.07 6.15,3.82 6.15,-0.28 -0.16,-4.16 -0.45,-8.28 -0.8,-12.42 -0.37,-4.05 -6.5,-3.48 -6.13,0.55 0.35,4.05 0.63,8.08 0.79,12.15zm-5.37 -42.17c0.68,3.74 6.79,2.94 6.02,-1.31 -0.86,-4.05 -1.85,-8.12 -2.93,-12.12 -1.07,-3.91 -7.01,-2.3 -5.94,1.62 1.04,3.9 2.01,7.86 2.85,11.81zm-12.41 -40.66c1.29,3.56 7.18,1.76 5.7,-2.31 -1.54,-3.86 -3.15,-7.66 -4.85,-11.45 -1.95,-3.89 -7.29,-0.83 -5.61,2.54 1.66,3.71 3.24,7.44 4.75,11.22zm-18.72 -38.25c2.11,3.52 7.36,0.3 5.3,-3.13 -2.1,-3.58 -4.26,-7.1 -6.49,-10.59 -0.45,-0.75 -1.08,-1.18 -1.77,-1.34 -1.39,-0.82 -3.33,-0.69 -4.35,1.35 -1.69,3.71 -3.42,7.4 -5.2,11.07 -1.77,3.53 3.68,6.4 5.54,2.67 1.04,-2.15 2.07,-4.31 3.08,-6.48 1.32,2.13 2.62,4.28 3.89,6.45zm-24.03 -35.21c2.44,3.13 7.36,-0.56 4.81,-3.83 -2.57,-3.25 -5.16,-6.47 -7.84,-9.62 -2.28,-2.93 -7.39,0.52 -4.68,4 2.63,3.11 5.18,6.27 7.71,9.46zm-28.37 -31.9c2.83,2.83 7.23,-1.48 4.32,-4.38 -2.93,-2.91 -5.89,-5.81 -8.91,-8.63 -2.67,-2.67 -7.26,1.44 -4.19,4.51 2.97,2.78 5.89,5.62 8.78,8.49zm-31.84 -28.53c3.29,2.56 6.96,-2.38 3.85,-4.8 -3.22,-2.59 -6.47,-5.14 -9.76,-7.64 -3.12,-2.42 -7,2.36 -3.71,4.91 3.24,2.47 6.45,4.97 9.62,7.53zm-34.57 -25.18c3.74,2.24 6.59,-3.22 3.37,-5.15 -3.45,-2.27 -6.93,-4.51 -10.44,-6.69 -3.55,-2.13 -6.63,3.2 -3.23,5.24 3.46,2.14 6.89,4.35 10.29,6.59zm-36.75 -21.95c3.84,1.92 6.34,-3.71 2.92,-5.42 -3.63,-1.97 -7.29,-3.88 -10.97,-5.76 -3.67,-1.83 -6.36,3.7 -2.78,5.49 3.63,1.85 7.25,3.75 10.83,5.69zm-38.46 -18.83c2.8,1.4 6.23,-2.53 3.05,-5.31 -0.21,-0.14 -0.35,-0.21 -0.57,-0.33 -3.78,-1.67 -7.56,-3.28 -11.37,-4.87 -4.13,-1.5 -5.85,4.41 -2.36,5.68 3.77,1.58 7.52,3.18 11.26,4.83zm-39.82 -15.82c3.75,1.36 5.93,-4.39 2.06,-5.8 -3.89,-1.39 -7.79,-2.71 -11.71,-4.02 -3.59,-1.3 -5.96,4.38 -1.92,5.85 3.87,1.29 7.73,2.61 11.57,3.98zm-82.53 -23c4.15,0.76 5.06,-5.33 1.23,-6.03 -4.04,-0.83 -8.08,-1.64 -12.13,-2.4 -4.02,-0.73 -5.08,5.33 -1.12,6.05 4.01,0.76 8.02,1.55 12.02,2.37zm-42.25 -7.34c3.68,0.67 5.15,-5.31 0.85,-6.1 -4.08,-0.57 -8.17,-1.11 -12.26,-1.62 -4.27,-0.39 -4.55,5.76 -0.74,6.11 4.06,0.5 8.1,1.03 12.15,1.6zm-101.03 -502.9c0.65,0 1.12,-0.14 1.64,-0.45 0.44,0.27 0.99,0.43 1.65,0.43 4.09,0.01 8.16,0.06 12.25,0.15 4.21,0 4.03,-6.15 0.12,-6.15 -4.13,-0.09 -8.24,-0.14 -12.37,-0.15 -0.67,0 -1.23,0.17 -1.68,0.45 -2.39,-1.4 -12.07,-0.26 -14.06,-0.21 -3.81,0 -4.1,6.15 0.2,6.15 4.09,-0.12 8.16,-0.19 12.25,-0.23zm-42.76 2.11c4,-0.36 3.49,-6.5 -0.58,-6.13 -4.11,0.38 -8.22,0.81 -12.32,1.29 -3.81,0.35 -3.53,6.5 0.74,6.11 4.05,-0.48 8.1,-0.91 12.16,-1.28zm-42.4 5.79c3.97,-0.72 2.9,-6.78 -1.12,-6.05 -4.06,0.74 -8.12,1.52 -12.16,2.36 -3.78,0.69 -2.93,6.79 1.27,6.02 3.99,-0.83 8,-1.6 12.01,-2.33zm-41.74 9.46c3.88,-1.06 2.3,-7.01 -1.64,-5.93 -3.98,1.09 -7.95,2.22 -11.9,3.41 -3.7,1.01 -2.34,7.01 1.79,5.89 3.91,-1.18 7.82,-2.29 11.76,-3.37zm-40.76 13.07c3.74,-1.36 1.72,-7.18 -2.15,-5.77 -3.87,1.43 -7.72,2.92 -11.56,4.44 -3.58,1.3 -1.76,7.18 2.29,5.71 3.79,-1.51 7.6,-2.97 11.42,-4.39zm-39.46 16.58c3.77,-1.89 0.85,-7.3 -2.64,-5.56 -3.74,1.76 -7.44,3.58 -11.13,5.43 -3.6,1.8 -0.88,7.32 2.77,5.5 3.65,-1.83 7.3,-3.63 11,-5.37zm-37.85 19.95c3.52,-2.11 0.3,-7.36 -3.13,-5.3 -3.56,2.09 -7.11,4.2 -10.61,6.38 -3.36,2.02 -0.33,7.38 3.26,5.22 3.47,-2.15 6.97,-4.24 10.49,-6.3zm-36 23.17c3.46,-2.69 -0.62,-7.31 -3.57,-5.01 -3.37,2.38 -6.71,4.81 -10.02,7.27 -3.31,2.58 0.6,7.33 3.69,4.93 3.27,-2.43 6.57,-4.83 9.9,-7.18zm-33.86 26.2c2.96,-2.3 -0.53,-7.38 -3.97,-4.7 -3.12,2.5 -6.39,5.44 -9.37,8.12 -3.02,3.02 1.21,7.16 4.11,4.58 2.97,-2.65 6.14,-5.53 9.23,-8zm-31.46 29.02c0.38,-0.38 0.63,-0.8 0.78,-1.21 2.51,2.51 4.99,5.04 7.46,7.6 2.96,2.96 7.2,-1.5 4.43,-4.27 -2.86,-2.98 -5.76,-5.91 -8.68,-8.83 -1.99,-1.99 -4.74,-0.47 -5.21,1.62 -0.98,-0.37 -2.15,-0.24 -3.15,0.76 -2.91,2.93 -5.78,5.89 -8.62,8.89 -2.71,2.71 1.45,7.25 4.48,4.22 2.81,-2.96 5.64,-5.89 8.52,-8.78zm-28.85 31.63c2.66,-3.41 -2.4,-6.94 -4.72,-3.95 -2.66,3.16 -5.27,6.38 -7.84,9.61 -2.51,3.22 2.37,6.97 4.84,3.8 2.48,-3.19 5.12,-6.38 7.72,-9.47zm-26 33.99c2.18,-3.27 -2.46,-6.85 -5.06,-3.51 -2.36,3.39 -4.69,6.8 -6.96,10.24 -2.25,3.75 3.22,6.59 5.14,3.38 2.26,-3.4 4.55,-6.77 6.88,-10.12zm-22.97 36.12c2.01,-3.36 -3.18,-6.67 -5.33,-3.07 -2.07,3.58 -4.07,7.18 -6.05,10.8 -1.93,3.86 3.71,6.33 5.41,2.94 1.96,-3.58 3.94,-7.14 5.98,-10.67zm-36.11 77.52c1.37,-3.78 -4.4,-5.92 -5.79,-2.08 -1.41,3.88 -2.77,7.78 -4.08,11.69 -1.31,3.61 4.38,5.95 5.84,1.94 1.3,-3.87 2.64,-7.71 4.04,-11.55zm-12.85 40.83c1.05,-3.85 -4.87,-5.55 -5.95,-1.57 -1.06,3.99 -2.08,7.99 -3.04,12 -1,3.67 4.85,5.58 5.99,1.42 0.96,-3.97 1.96,-7.91 3.01,-11.86zm-9.23 41.79c0.71,-3.92 -5.33,-5.1 -6.06,-1.04 -0.71,4.07 -1.38,8.14 -1.99,12.22 -0.68,3.74 5.32,5.14 6.09,0.89 0.61,-4.03 1.26,-8.06 1.96,-12.07zm-5.56 42.44c0.36,-3.98 -5.76,-4.61 -6.13,-0.51 -0.35,4.12 -0.66,8.23 -0.92,12.35 -0.34,3.78 5.75,4.65 6.14,0.35 0.25,-4.07 0.57,-8.13 0.91,-12.2zm-1.88 42.77c0,-4.05 -6.15,-4.05 -6.15,0 -0.01,4.13 0.04,8.26 0.14,12.39 0,3.86 6.15,4.09 6.15,-0.16 -0.09,-4.08 -0.15,-8.16 -0.14,-12.23zm1.78 42.76c-0.37,-4.06 -6.5,-3.48 -6.13,0.54 0.35,4.11 0.74,8.23 1.2,12.33 0.35,3.87 6.5,3.52 6.12,-0.7 -0.46,-4.05 -0.84,-8.11 -1.18,-12.18zm5.46 42.45c-0.73,-4.01 -6.78,-2.88 -6.06,1.08 0.71,4.06 1.44,8.14 2.26,12.18 0.69,3.82 6.78,2.92 6.03,-1.24 -0.83,-3.98 -1.54,-8.02 -2.24,-12.03zm9.13 41.82c-1.07,-3.93 -7,-2.29 -5.94,1.6 1.06,3.99 2.15,7.98 3.32,11.93 1.02,3.74 7.01,2.33 5.9,-1.76 -1.15,-3.91 -2.23,-7.85 -3.27,-11.78zm12.75 40.86c-1.38,-3.79 -7.17,-1.72 -5.78,2.12 1.41,3.88 2.84,7.75 4.35,11.59 1.32,3.62 7.18,1.75 5.73,-2.26 -1.48,-3.8 -2.9,-7.62 -4.3,-11.45zm35.93 77.62c-2.16,-3.6 -7.35,-0.29 -5.33,3.07 2.04,3.59 4.16,7.13 6.29,10.67 2.06,3.43 7.37,0.32 5.26,-3.2 -2.11,-3.49 -4.2,-6.99 -6.22,-10.54zm22.88 36.16c-2.72,-3.5 -7.3,0.63 -5.04,3.54 2.36,3.39 4.76,6.75 7.2,10.08 2.61,3.35 7.33,-0.61 4.95,-3.66 -2.42,-3.29 -4.77,-6.62 -7.11,-9.96zm25.94 34.06c-2.33,-2.99 -7.38,0.53 -4.72,3.95 2.64,3.18 5.33,6.3 8.04,9.42 2.57,2.9 7.26,-0.67 4.63,-4.06 -2.68,-3.08 -5.33,-6.17 -7.94,-9.31zm28.76 31.69c-2.86,-2.86 -7.21,1.49 -4.35,4.35l1.8 1.8 -0.15 0.14c-2.93,2.93 1.5,7.21 4.3,4.4l0.23 -0.22c0.88,0.86 1.76,1.71 2.65,2.57 2.74,2.74 7.25,-1.46 4.25,-4.46 -0.84,-0.81 -1.68,-1.62 -2.52,-2.44 1.39,-1.39 2.78,-2.8 4.16,-4.2 2.8,-2.8 -1.47,-7.23 -4.4,-4.3 -1.37,1.4 -2.75,2.79 -4.13,4.18l-1.82 -1.82zm31.4 29.1c-3.45,-2.68 -6.93,2.4 -3.97,4.7 3.15,2.68 6.33,5.3 9.54,7.9 3.31,2.57 6.96,-2.38 3.86,-4.79 -3.17,-2.56 -6.32,-5.16 -9.42,-7.81zm33.78 26.27c-2.91,-2.26 -7.04,2.32 -3.54,5.04 3.37,2.38 6.76,4.73 10.18,7.05 3.66,2.19 6.65,-2.97 3.42,-5.12 -3.39,-2.27 -6.73,-4.61 -10.06,-6.96zm35.94 23.26c-3.39,-2.04 -6.66,3.18 -3.1,5.32 3.56,2.09 7.15,4.13 10.76,6.14 3.67,1.83 6.46,-3.3 2.97,-5.39 -3.57,-1.98 -7.11,-4 -10.63,-6.06zm37.82 20.05c-3.49,-1.74 -6.41,3.68 -2.64,5.56 3.72,1.78 7.48,3.49 11.25,5.18 3.32,1.66 6.44,-3.65 2.5,-5.62 -3.72,-1.67 -7.44,-3.35 -11.11,-5.12zm39.41 16.67c-3.84,-1.39 -5.91,4.4 -2.12,5.78 3.87,1.43 7.75,2.83 11.66,4.18 3.65,1.33 5.95,-4.39 1.97,-5.83 -3.86,-1.32 -7.69,-2.71 -11.52,-4.12zm40.72 13.17c-3.9,-1.06 -5.54,4.87 -1.6,5.94 3.98,1.09 7.97,2.14 11.98,3.14 3.72,1.01 5.57,-4.86 1.46,-5.98 -3.96,-0.98 -7.9,-2.03 -11.83,-3.1zm41.72 9.56c-3.97,-0.72 -5.09,5.33 -1.08,6.06 4.06,0.74 8.13,1.44 12.21,2.08 3.78,0.69 5.13,-5.32 0.93,-6.09 -4.03,-0.62 -8.05,-1.33 -12.06,-2.06zm42.39 5.89c-4.02,-0.37 -4.6,5.76 -0.54,6.13 4.11,0.38 8.21,0.72 12.33,1.02 3.88,0.35 4.63,-5.76 0.43,-6.14 -4.08,-0.3 -8.14,-0.63 -12.21,-1.01zm42.76 2.21c-4.1,0 -4.05,6.15 -0.04,6.15 4.13,0.03 8.26,0.02 12.39,-0.04 3.91,0 4.09,-6.15 -0.12,-6.15 -4.08,0.07 -8.15,0.08 -12.23,0.04zm42.77 -1.45c-4.1,0.37 -3.47,6.49 0.51,6.13 4.11,-0.32 8.24,-0.66 12.34,-1.1 3.91,-0.36 3.51,-6.5 -0.66,-6.12 -4.02,0.47 -8.15,0.77 -12.18,1.09zm42.51 -5.13c-4.11,0.75 -2.87,6.77 1,6.07 4.07,-0.65 8.14,-1.4 12.2,-2.17 3.91,-0.71 2.9,-6.78 -1.16,-6.04 -4,0.75 -8.02,1.5 -12.04,2.14zm41.89 -8.8c-4.02,1.1 -2.27,7 1.54,5.96 4,-1.01 7.99,-2.11 11.96,-3.22 3.83,-1.04 2.31,-7.01 -1.68,-5.92 -3.92,1.1 -7.86,2.19 -11.81,3.18zm40.96 -12.42c-3.89,1.41 -1.7,7.17 2.04,5.81 3.89,-1.33 7.78,-2.8 11.63,-4.25 3.71,-1.35 1.73,-7.18 -2.19,-5.75 -3.81,1.44 -7.64,2.88 -11.49,4.2zm39.7 -15.95c-3.86,1.93 -0.83,7.29 2.57,5.59 3.76,-1.71 7.51,-3.45 11.22,-5.25 3.68,-1.84 0.87,-7.31 -2.71,-5.53 -3.67,1.78 -7.37,3.5 -11.08,5.19zm38.18 -19.36c-3.64,2.18 -0.28,7.34 3.04,5.35 3.6,-2.03 7.17,-4.1 10.71,-6.21 3.48,-2.09 0.31,-7.36 -3.16,-5.28 -3.5,2.09 -7.03,4.13 -10.58,6.14zm36.36 -22.6c-3.3,2.2 0.02,7.38 3.48,5.08 3.4,-2.32 6.83,-4.69 10.15,-7.13 3.39,-2.64 -0.61,-7.32 -3.63,-4.97 -3.28,2.39 -6.65,4.73 -10,7.02zm34.25 -25.66c-3.03,2.36 0.54,7.38 3.92,4.75 3.19,-2.62 6.36,-5.27 9.48,-7.97 2.88,-2.24 -0.51,-7.39 -4.03,-4.65 -3.09,2.66 -6.22,5.28 -9.37,7.87zm31.92 -28.53c-2.93,2.93 1.5,7.21 4.3,4.4l0.23 -0.22c0.88,0.86 1.76,1.71 2.65,2.57 2.74,2.74 7.25,-1.46 4.25,-4.46 -0.84,-0.81 -1.68,-1.62 -2.52,-2.44 1.39,-1.39 2.78,-2.8 4.16,-4.2 2.8,-2.8 -1.47,-7.23 -4.4,-4.3 -1.37,1.4 -2.75,2.79 -4.13,4.18l-1.82 -1.82c-2.86,-2.86 -7.21,1.49 -4.35,4.35l1.8 1.8 -0.15 0.14zm29.33 -31.16c-2.71,3.49 2.4,6.92 4.68,4 2.7,-3.13 5.36,-6.28 7.97,-9.47 2.6,-3.34 -2.39,-6.95 -4.77,-3.89 -2.59,3.15 -5.22,6.27 -7.88,9.36zm26.55 -33.59c-2.32,2.98 2.33,7.02 4.99,3.6 2.42,-3.35 4.79,-6.73 7.13,-10.13 2.3,-3.45 -2.88,-6.77 -5.08,-3.48 -2.31,3.36 -4.65,6.7 -7.04,10.01zm23.53 -35.74c-2.06,3.44 3.19,6.65 5.3,3.13 2.11,-3.55 4.19,-7.11 6.22,-10.71 1.97,-3.28 -3.16,-6.68 -5.37,-3 -1.99,3.56 -4.06,7.08 -6.14,10.58zm37.34 -76.95c-1.43,3.92 4.41,5.89 5.75,2.19 1.47,-3.86 2.88,-7.74 4.27,-11.63 1.36,-3.74 -4.39,-5.93 -5.81,-2.04 -1.37,3.85 -2.76,7.67 -4.22,11.48zm13.49 -40.62c-1.09,3.99 4.88,5.51 5.92,1.68 1.09,-3.99 2.19,-7.95 3.24,-11.95 1.04,-3.81 -4.86,-5.55 -5.96,-1.54 -1.03,3.95 -2.12,7.87 -3.2,11.81zm9.89 -41.64c-0.74,4.06 5.33,5.07 6.04,1.16 0.73,-4.07 1.49,-8.11 2.18,-12.19 0.7,-3.87 -5.32,-5.11 -6.07,-1 -0.68,4.03 -1.43,8.02 -2.15,12.04zm6.22 -42.34c-0.37,4.11 5.76,4.58 6.12,0.62 0.43,-4.11 0.79,-8.22 1.12,-12.34 0.36,-3.93 -5.76,-4.62 -6.14,-0.47 -0.32,4.06 -0.68,8.13 -1.1,12.18zm2.54 -42.72c0,4.15 6.15,4.04 6.15,0.08 0.06,-4.13 0.09,-8.26 0.05,-12.39 0,-3.96 -6.15,-4.08 -6.15,0.08 0.04,4.08 0.01,8.16 -0.05,12.23zm-1.11 -42.8c0.38,4.2 6.49,3.45 6.14,-0.43 -0.26,-4.11 -0.63,-8.24 -1.01,-12.35 -0.36,-4 -6.5,-3.49 -6.13,0.58 0.38,4.05 0.74,8.13 0.99,12.19zm-4.79 -42.53c0.76,4.16 6.77,2.86 6.08,-0.97 -0.63,-4.08 -1.33,-8.15 -2.07,-12.21 -0.72,-3.97 -6.78,-2.9 -6.05,1.12 0.73,4.01 1.42,8.03 2.04,12.06zm-8.46 -41.95c1.11,4.06 7,2.26 5.97,-1.5 -0.99,-4.01 -2.04,-8 -3.13,-11.98 -1.06,-3.88 -7.01,-2.3 -5.93,1.64 1.08,3.93 2.11,7.88 3.09,11.84zm-12.1 -41.06c1.43,3.93 7.16,1.69 5.82,-2.01 -1.33,-3.91 -2.73,-7.79 -4.16,-11.67 -1.36,-3.74 -7.18,-1.72 -5.77,2.15 1.42,3.82 2.8,7.66 4.11,11.52zm-34.69 -78.16c2.21,3.68 7.34,0.28 5.37,-3 -2,-3.61 -4.03,-7.21 -6.13,-10.76 -2.11,-3.52 -7.36,-0.3 -5.3,3.13 2.07,3.52 4.07,7.07 6.05,10.63zm-22.31 -36.53c2.22,3.33 7.37,-0.04 5.1,-3.45 -2.3,-3.43 -4.65,-6.82 -7.03,-10.19 -2.69,-3.46 -7.31,0.62 -5.01,3.57 2.35,3.33 4.68,6.68 6.95,10.07zm-25.39 -34.45c2.38,3.06 7.37,-0.55 4.77,-3.89 -2.6,-3.21 -5.21,-6.4 -7.89,-9.54 -2.27,-2.92 -7.39,0.52 -4.68,4 2.64,3.1 5.23,6.26 7.79,9.43zm-28.28 -32.14c2.96,2.96 7.2,-1.5 4.43,-4.27 -2.86,-2.98 -5.76,-5.91 -8.68,-8.83 -1.99,-1.99 -4.74,-0.47 -5.21,1.62 -0.98,-0.37 -2.15,-0.24 -3.15,0.76 -2.91,2.93 -5.78,5.89 -8.62,8.89 -2.71,2.71 1.45,7.25 4.48,4.22 2.81,-2.96 5.64,-5.89 8.52,-8.78 0.38,-0.38 0.63,-0.8 0.78,-1.21 2.51,2.51 4.99,5.04 7.46,7.6zm-30.95 -29.59c3.39,2.64 6.96,-2.05 4.06,-4.63 -3.12,-2.71 -6.24,-5.42 -9.43,-8.06 -3.38,-2.63 -6.95,2.39 -3.92,4.75 3.14,2.59 6.22,5.26 9.28,7.94zm-33.36 -26.79c3.01,2.34 7.01,-2.34 3.63,-4.97 -3.33,-2.44 -6.68,-4.84 -10.07,-7.21 -3.27,-2.18 -6.85,2.46 -3.51,5.06 3.35,2.34 6.66,4.71 9.95,7.12zm-35.57 -23.82c3.51,2.11 6.63,-3.2 3.2,-5.26 -3.52,-2.15 -7.09,-4.24 -10.66,-6.3 -3.36,-2.01 -6.67,3.18 -3.07,5.33 3.53,2.04 7.05,4.1 10.53,6.23zm-37.49 -20.64c3.57,1.79 6.39,-3.69 2.71,-5.53 -3.71,-1.82 -7.42,-3.61 -11.17,-5.36 -3.4,-1.7 -6.42,3.67 -2.57,5.59 3.7,1.71 7.37,3.49 11.03,5.29zm-39.15 -17.3c3.96,1.44 5.89,-4.41 2.22,-5.74 -3.85,-1.5 -7.71,-2.95 -11.59,-4.36 -3.78,-1.37 -5.92,4.4 -2.08,5.79 3.83,1.39 7.65,2.83 11.45,4.31zm-40.51 -13.82c4.04,1.1 5.51,-4.88 1.72,-5.91 -3.96,-1.17 -7.94,-2.26 -11.93,-3.33 -3.85,-1.05 -5.55,4.87 -1.57,5.95 3.94,1.05 7.87,2.14 11.78,3.29zm-41.56 -10.22c4.11,0.75 5.07,-5.33 1.2,-6.04 -4.05,-0.81 -8.11,-1.56 -12.18,-2.28 -3.92,-0.71 -5.1,5.33 -1.04,6.06 4.02,0.71 8.02,1.45 12.02,2.25zm-42.29 -6.56c4.17,0.38 4.57,-5.76 0.66,-6.12 -4.1,-0.45 -8.21,-0.86 -12.33,-1.21 -3.98,-0.36 -4.61,5.76 -0.51,6.13 4.06,0.35 8.12,0.75 12.17,1.2zm638.96 -3.02c0.65,0 1.12,-0.14 1.64,-0.45 0.44,0.27 0.99,0.43 1.65,0.43 4.09,0.01 8.16,0.06 12.25,0.15 4.21,0 4.03,-6.15 0.12,-6.15 -4.13,-0.09 -8.24,-0.14 -12.37,-0.15 -0.67,0 -1.23,0.17 -1.68,0.45 -2.39,-1.4 -12.07,-0.26 -14.06,-0.21 -3.81,0 -4.1,6.15 0.2,6.15 4.09,-0.12 8.16,-0.19 12.25,-0.23zm-42.76 2.11c4,-0.36 3.49,-6.5 -0.58,-6.13 -4.11,0.38 -8.22,0.81 -12.32,1.29 -3.81,0.35 -3.53,6.5 0.74,6.11 4.05,-0.48 8.1,-0.91 12.16,-1.28zm-42.4 5.79c3.97,-0.72 2.9,-6.78 -1.12,-6.05 -4.06,0.74 -8.12,1.52 -12.16,2.36 -3.78,0.69 -2.93,6.79 1.27,6.02 3.99,-0.83 8,-1.6 12.01,-2.33zm-41.74 9.46c3.88,-1.06 2.3,-7.01 -1.64,-5.93 -3.98,1.09 -7.95,2.22 -11.9,3.41 -3.7,1.01 -2.34,7.01 1.79,5.89 3.91,-1.18 7.82,-2.29 11.76,-3.37zm-40.76 13.07c3.74,-1.36 1.72,-7.18 -2.15,-5.77 -3.87,1.43 -7.72,2.92 -11.56,4.44 -3.58,1.3 -1.76,7.18 2.29,5.71 3.79,-1.51 7.6,-2.97 11.42,-4.39zm-77.32 36.53c3.52,-2.11 0.3,-7.36 -3.13,-5.3 -3.56,2.09 -7.11,4.2 -10.61,6.38 -3.36,2.02 -0.33,7.38 3.26,5.22 3.47,-2.15 6.97,-4.24 10.49,-6.3zm-36 23.17c3.46,-2.69 -0.62,-7.31 -3.57,-5.01 -3.37,2.38 -6.71,4.81 -10.02,7.27 -3.31,2.58 0.6,7.33 3.69,4.93 3.27,-2.43 6.57,-4.83 9.9,-7.18zm-33.86 26.2c2.96,-2.3 -0.53,-7.38 -3.97,-4.7 -3.12,2.5 -6.39,5.44 -9.37,8.12 -3.02,3.02 1.21,7.16 4.11,4.58 2.97,-2.65 6.14,-5.53 9.23,-8zm-60.31 60.64c2.66,-3.41 -2.4,-6.94 -4.72,-3.95 -2.66,3.16 -5.27,6.38 -7.84,9.61 -2.51,3.22 2.37,6.97 4.84,3.8 2.48,-3.19 5.12,-6.38 7.72,-9.47zm-26 33.99c2.18,-3.27 -2.46,-6.85 -5.06,-3.51 -2.36,3.39 -4.69,6.8 -6.96,10.24 -2.25,3.75 3.22,6.59 5.14,3.38 2.26,-3.4 4.55,-6.77 6.88,-10.12zm-22.97 36.12c2.01,-3.36 -3.18,-6.67 -5.33,-3.07 -2.07,3.58 -4.07,7.18 -6.05,10.8 -1.93,3.86 3.71,6.33 5.41,2.94 1.96,-3.58 3.94,-7.14 5.98,-10.67zm-19.74 37.96c1.7,-3.4 -3.67,-6.42 -5.59,-2.57 -1.73,3.75 -3.44,7.5 -5.09,11.29 -1.47,3.68 3.77,6.2 5.65,2.43 1.63,-3.74 3.31,-7.45 5.03,-11.15zm-16.36 39.55c1.37,-3.78 -4.4,-5.92 -5.79,-2.08 -1.41,3.88 -2.77,7.78 -4.08,11.69 -1.31,3.61 4.38,5.95 5.84,1.94 1.3,-3.87 2.64,-7.71 4.04,-11.55zm-12.85 40.83c1.05,-3.85 -4.87,-5.55 -5.95,-1.57 -1.06,3.99 -2.08,7.99 -3.04,12 -1,3.67 4.85,5.58 5.99,1.42 0.96,-3.97 1.96,-7.91 3.01,-11.86zm-9.23 41.79c0.71,-3.92 -5.33,-5.1 -6.06,-1.04 -0.71,4.07 -1.38,8.14 -1.99,12.22 -0.68,3.74 5.32,5.14 6.09,0.89 0.61,-4.03 1.26,-8.06 1.96,-12.07zm-7.44 85.21c0,-4.05 -6.15,-4.05 -6.15,0 -0.01,4.13 0.04,8.26 0.14,12.39 0,3.86 6.15,4.09 6.15,-0.16 -0.09,-4.08 -0.15,-8.16 -0.14,-12.23zm1.78 42.76c-0.37,-4.06 -6.5,-3.48 -6.13,0.54 0.35,4.11 0.74,8.23 1.2,12.33 0.35,3.87 6.5,3.52 6.12,-0.7 -0.46,-4.05 -0.84,-8.11 -1.18,-12.18zm5.46 42.45c-0.73,-4.01 -6.78,-2.88 -6.06,1.08 0.71,4.06 1.44,8.14 2.26,12.18 0.69,3.82 6.78,2.92 6.03,-1.24 -0.83,-3.98 -1.54,-8.02 -2.24,-12.03zm9.13 41.82c-1.07,-3.93 -7,-2.29 -5.94,1.6 1.06,3.99 2.15,7.98 3.32,11.93 1.02,3.74 7.01,2.33 5.9,-1.76 -1.15,-3.91 -2.23,-7.85 -3.27,-11.78zm12.75 40.86c-1.38,-3.79 -7.17,-1.72 -5.78,2.12 1.41,3.88 2.84,7.75 4.35,11.59 1.32,3.62 7.18,1.75 5.73,-2.26 -1.48,-3.8 -2.9,-7.62 -4.3,-11.45zm16.27 39.59c-1.91,-3.81 -7.3,-0.84 -5.58,2.6 1.73,3.75 3.52,7.47 5.34,11.17 1.82,3.65 7.32,0.87 5.51,-2.74 -1.81,-3.66 -3.57,-7.34 -5.28,-11.04zm19.66 38.03c-2.16,-3.6 -7.35,-0.29 -5.33,3.07 2.04,3.59 4.16,7.13 6.29,10.67 2.06,3.43 7.37,0.32 5.26,-3.2 -2.11,-3.49 -4.2,-6.99 -6.22,-10.54zm22.88 36.16c-2.72,-3.5 -7.3,0.63 -5.04,3.54 2.36,3.39 4.76,6.75 7.2,10.08 2.61,3.35 7.33,-0.61 4.95,-3.66 -2.42,-3.29 -4.77,-6.62 -7.11,-9.96zm25.94 34.06c-2.33,-2.99 -7.38,0.53 -4.72,3.95 2.64,3.18 5.33,6.3 8.04,9.42 2.57,2.9 7.26,-0.67 4.63,-4.06 -2.68,-3.08 -5.33,-6.17 -7.94,-9.31zm60.17 60.78c-3.45,-2.68 -6.93,2.4 -3.97,4.7 3.15,2.68 6.33,5.3 9.54,7.9 3.31,2.57 6.96,-2.38 3.86,-4.79 -3.17,-2.56 -6.32,-5.16 -9.42,-7.81zm33.78 26.27c-2.91,-2.26 -7.04,2.32 -3.54,5.04 3.37,2.38 6.76,4.73 10.18,7.05 3.66,2.19 6.65,-2.97 3.42,-5.12 -3.39,-2.27 -6.73,-4.61 -10.06,-6.96zm35.94 23.26c-3.39,-2.04 -6.66,3.18 -3.1,5.32 3.56,2.09 7.15,4.13 10.76,6.14 3.67,1.83 6.46,-3.3 2.97,-5.39 -3.57,-1.98 -7.11,-4 -10.63,-6.06zm37.82 20.05c-3.49,-1.74 -6.41,3.68 -2.64,5.56 3.72,1.78 7.48,3.49 11.25,5.18 3.32,1.66 6.44,-3.65 2.5,-5.62 -3.72,-1.67 -7.44,-3.35 -11.11,-5.12zm35.99 21.6c0.32,0.35 0.74,0.65 1.29,0.85 3.87,1.43 7.75,2.83 11.66,4.18 3.65,1.33 5.95,-4.39 1.97,-5.83 -3.61,-1.23 -7.21,-2.53 -10.79,-3.86l2.79 -3.19c2.74,-3.52 -2.41,-6.91 -4.65,-4.03 -2.68,3.08 -5.38,6.14 -8.12,9.18 -2.58,2.9 1.56,7.14 4.58,4.11l1.27 -1.41zm44.14 8.24c-3.9,-1.06 -5.54,4.87 -1.6,5.94 3.98,1.09 7.97,2.14 11.98,3.14 3.72,1.01 5.57,-4.86 1.46,-5.98 -3.96,-0.98 -7.9,-2.03 -11.83,-3.1zm41.72 9.56c-3.97,-0.72 -5.09,5.33 -1.08,6.06 4.06,0.74 8.13,1.44 12.21,2.08 3.78,0.69 5.13,-5.32 0.93,-6.09 -4.03,-0.62 -8.05,-1.33 -12.06,-2.06zm42.39 5.89c-4.02,-0.37 -4.6,5.76 -0.54,6.13 4.11,0.38 8.21,0.72 12.33,1.02 3.88,0.35 4.63,-5.76 0.43,-6.14 -4.08,-0.3 -8.14,-0.63 -12.21,-1.01zm42.76 2.21c-4.1,0 -4.05,6.15 -0.04,6.15 4.13,0.03 8.26,0.02 12.39,-0.04 3.91,0 4.09,-6.15 -0.12,-6.15 -4.08,0.07 -8.15,0.08 -12.23,0.04zm42.77 -1.45c-4.1,0.37 -3.47,6.49 0.51,6.13 4.11,-0.32 8.24,-0.66 12.34,-1.1 3.91,-0.36 3.51,-6.5 -0.66,-6.12 -4.02,0.47 -8.15,0.77 -12.18,1.09zm42.51 -5.13c-4.11,0.75 -2.87,6.77 1,6.07 4.07,-0.65 8.14,-1.4 12.2,-2.17 3.91,-0.71 2.9,-6.78 -1.16,-6.04 -4,0.75 -8.02,1.5 -12.04,2.14zm41.89 -8.8c-4.02,1.1 -2.27,7 1.54,5.96 4,-1.01 7.99,-2.11 11.96,-3.22 3.83,-1.04 2.31,-7.01 -1.68,-5.92 -3.92,1.1 -7.86,2.19 -11.81,3.18zm40.96 -12.42c-3.89,1.41 -1.7,7.17 2.04,5.81 3.89,-1.33 7.78,-2.8 11.63,-4.25 3.71,-1.35 1.73,-7.18 -2.19,-5.75 -3.81,1.44 -7.64,2.88 -11.49,4.2zm39.7 -15.95c-3.86,1.93 -0.83,7.29 2.57,5.59 3.76,-1.71 7.51,-3.45 11.22,-5.25 3.68,-1.84 0.87,-7.31 -2.71,-5.53 -3.67,1.78 -7.37,3.5 -11.08,5.19zm38.18 -19.36c-3.64,2.18 -0.28,7.34 3.04,5.35 3.6,-2.03 7.17,-4.1 10.71,-6.21 3.48,-2.09 0.31,-7.36 -3.16,-5.28 -3.5,2.09 -7.03,4.13 -10.58,6.14zm36.36 -22.6c-3.3,2.2 0.02,7.38 3.48,5.08 3.4,-2.32 6.83,-4.69 10.15,-7.13 3.39,-2.64 -0.61,-7.32 -3.63,-4.97 -3.28,2.39 -6.65,4.73 -10,7.02zm34.25 -25.66c-3.03,2.36 0.54,7.38 3.92,4.75 3.19,-2.62 6.36,-5.27 9.48,-7.97 2.88,-2.24 -0.51,-7.39 -4.03,-4.65 -3.09,2.66 -6.22,5.28 -9.37,7.87zm31.92 -28.53c-2.93,2.93 1.5,7.21 4.3,4.4 2.96,-2.88 5.87,-5.8 8.76,-8.75 2.8,-2.8 -1.47,-7.23 -4.4,-4.3 -2.86,2.91 -5.73,5.81 -8.66,8.65zm29.33 -31.16c-2.71,3.49 2.4,6.92 4.68,4 2.7,-3.13 5.36,-6.28 7.97,-9.47 2.6,-3.34 -2.39,-6.95 -4.77,-3.89 -2.59,3.15 -5.22,6.27 -7.88,9.36zm26.55 -33.59c-2.32,2.98 2.33,7.02 4.99,3.6 2.42,-3.35 4.79,-6.73 7.13,-10.13 2.3,-3.45 -2.88,-6.77 -5.08,-3.48 -2.31,3.36 -4.65,6.7 -7.04,10.01zm23.53 -35.74c-2.06,3.44 3.19,6.65 5.3,3.13 2.11,-3.55 4.19,-7.11 6.22,-10.71 1.97,-3.28 -3.16,-6.68 -5.37,-3 -1.99,3.56 -4.06,7.08 -6.14,10.58zm20.35 -37.66c-1.77,3.53 3.68,6.4 5.54,2.67 1.8,-3.71 3.55,-7.45 5.27,-11.21 1.68,-3.36 -3.66,-6.43 -5.61,-2.54 -1.69,3.71 -3.42,7.4 -5.2,11.07zm16.99 -39.29c-1.43,3.92 4.41,5.89 5.75,2.19 1.47,-3.86 2.88,-7.74 4.27,-11.63 1.36,-3.74 -4.39,-5.93 -5.81,-2.04 -1.37,3.85 -2.76,7.67 -4.22,11.48zm13.49 -40.62c-1.09,3.99 4.88,5.51 5.92,1.68 1.09,-3.99 2.19,-7.95 3.24,-11.95 1.04,-3.81 -4.86,-5.55 -5.96,-1.54 -1.03,3.95 -2.12,7.87 -3.2,11.81zm9.89 -41.64c-0.74,4.06 5.33,5.07 6.04,1.16 0.73,-4.07 1.49,-8.11 2.18,-12.19 0.7,-3.87 -5.32,-5.11 -6.07,-1 -0.68,4.03 -1.43,8.02 -2.15,12.04zm6.22 -42.34c-0.37,4.11 5.76,4.58 6.12,0.62 0.43,-4.11 0.79,-8.22 1.12,-12.34 0.36,-3.93 -5.76,-4.62 -6.14,-0.47 -0.32,4.06 -0.68,8.13 -1.1,12.18zm2.54 -42.72c0,4.15 6.15,4.04 6.15,0.08 0.06,-4.13 0.09,-8.26 0.05,-12.39 0,-3.96 -6.15,-4.08 -6.15,0.08 0.04,4.08 0.01,8.16 -0.05,12.23zm-1.11 -42.8c0.38,4.2 6.49,3.45 6.14,-0.43 -0.26,-4.11 -0.63,-8.24 -1.01,-12.35 -0.36,-4 -6.5,-3.49 -6.13,0.58 0.38,4.05 0.74,8.13 0.99,12.19zm-4.79 -42.53c0.76,4.16 6.77,2.86 6.08,-0.97 -0.63,-4.08 -1.33,-8.15 -2.07,-12.21 -0.72,-3.97 -6.78,-2.9 -6.05,1.12 0.73,4.01 1.42,8.03 2.04,12.06zm-8.46 -41.95c1.11,4.06 7,2.26 5.97,-1.5 -0.99,-4.01 -2.04,-8 -3.13,-11.98 -1.06,-3.88 -7.01,-2.3 -5.93,1.64 1.08,3.93 2.11,7.88 3.09,11.84zm-12.1 -41.06c1.43,3.93 7.16,1.69 5.82,-2.01 -1.33,-3.91 -2.73,-7.79 -4.16,-11.67 -1.36,-3.74 -7.18,-1.72 -5.77,2.15 1.42,3.82 2.8,7.66 4.11,11.52zm-15.64 -39.85c1.97,3.94 7.29,0.82 5.62,-2.5 -1.65,-3.78 -3.41,-7.52 -5.16,-11.26 -1.89,-3.77 -7.3,-0.85 -5.56,2.64 1.74,3.69 3.47,7.39 5.1,11.12zm-19.05 -38.31c2.21,3.68 7.34,0.28 5.37,-3 -2,-3.61 -4.03,-7.21 -6.13,-10.76 -2.11,-3.52 -7.36,-0.3 -5.3,3.13 2.07,3.52 4.07,7.07 6.05,10.63zm-22.31 -36.53c2.22,3.33 7.37,-0.04 5.1,-3.45 -2.3,-3.43 -4.65,-6.82 -7.03,-10.19 -2.69,-3.46 -7.31,0.62 -5.01,3.57 2.35,3.33 4.68,6.68 6.95,10.07zm-25.39 -34.45c2.38,3.06 7.37,-0.55 4.77,-3.89 -2.6,-3.21 -5.21,-6.4 -7.89,-9.54 -2.27,-2.92 -7.39,0.52 -4.68,4 2.64,3.1 5.23,6.26 7.79,9.43zm-28.28 -32.14c2.96,2.96 7.2,-1.5 4.43,-4.27 -2.86,-2.98 -5.76,-5.91 -8.68,-8.83 -2.84,-2.84 -7.23,1.48 -4.33,4.38 2.89,2.88 5.75,5.78 8.58,8.72zm-30.95 -29.59c3.39,2.64 6.96,-2.05 4.06,-4.63 -3.12,-2.71 -6.24,-5.42 -9.43,-8.06 -3.38,-2.63 -6.95,2.39 -3.92,4.75 3.14,2.59 6.22,5.26 9.28,7.94zm-33.36 -26.79c3.01,2.34 7.01,-2.34 3.63,-4.97 -3.33,-2.44 -6.68,-4.84 -10.07,-7.21 -3.27,-2.18 -6.85,2.46 -3.51,5.06 3.35,2.34 6.66,4.71 9.95,7.12zm-35.57 -23.82c3.51,2.11 6.63,-3.2 3.2,-5.26 -3.52,-2.15 -7.09,-4.24 -10.66,-6.3 -3.36,-2.01 -6.67,3.18 -3.07,5.33 3.53,2.04 7.05,4.1 10.53,6.23zm-37.49 -20.64c3.57,1.79 6.39,-3.69 2.71,-5.53 -3.71,-1.82 -7.42,-3.61 -11.17,-5.36 -3.4,-1.7 -6.42,3.67 -2.57,5.59 3.7,1.71 7.37,3.49 11.03,5.29zm-39.15 -17.3c3.96,1.44 5.89,-4.41 2.22,-5.74 -3.85,-1.5 -7.71,-2.95 -11.59,-4.36 -3.78,-1.37 -5.92,4.4 -2.08,5.79 3.83,1.39 7.65,2.83 11.45,4.31zm-40.51 -13.82c4.04,1.1 5.51,-4.88 1.72,-5.91 -3.96,-1.17 -7.94,-2.26 -11.93,-3.33 -3.85,-1.05 -5.55,4.87 -1.57,5.95 3.94,1.05 7.87,2.14 11.78,3.29zm-41.56 -10.22c4.11,0.75 5.07,-5.33 1.2,-6.04 -4.05,-0.81 -8.11,-1.56 -12.18,-2.28 -3.92,-0.71 -5.1,5.33 -1.04,6.06 4.02,0.71 8.02,1.45 12.02,2.25zm-42.29 -6.56c4.17,0.38 4.57,-5.76 0.66,-6.12 -4.1,-0.45 -8.21,-0.86 -12.33,-1.21 -3.98,-0.36 -4.61,5.76 -0.51,6.13 4.06,0.35 8.12,0.75 12.17,1.2zm-1452.65 -3.02c0.65,0 1.12,-0.14 1.64,-0.45 0.44,0.27 0.99,0.43 1.65,0.43 4.09,0.01 8.16,0.06 12.25,0.15 4.21,0 4.03,-6.15 0.12,-6.15 -4.13,-0.09 -8.24,-0.14 -12.37,-0.15 -0.67,0 -1.23,0.17 -1.68,0.45 -2.39,-1.4 -12.07,-0.26 -14.06,-0.21 -3.81,0 -4.1,6.15 0.2,6.15 4.09,-0.12 8.16,-0.19 12.25,-0.23zm-42.76 2.11c4,-0.36 3.49,-6.5 -0.58,-6.13 -4.11,0.38 -8.22,0.81 -12.32,1.29 -3.81,0.35 -3.53,6.5 0.74,6.11 4.05,-0.48 8.1,-0.91 12.16,-1.28zm-42.4 5.79c3.97,-0.72 2.9,-6.78 -1.12,-6.05 -4.06,0.74 -8.12,1.52 -12.16,2.36 -3.78,0.69 -2.93,6.79 1.27,6.02 3.99,-0.83 8,-1.6 12.01,-2.33zm-41.74 9.46c3.88,-1.06 2.3,-7.01 -1.64,-5.93 -3.98,1.09 -7.95,2.22 -11.9,3.41 -3.7,1.01 -2.34,7.01 1.79,5.89 3.91,-1.18 7.82,-2.29 11.76,-3.37zm-40.76 13.07c3.74,-1.36 1.72,-7.18 -2.15,-5.77 -3.87,1.43 -7.72,2.92 -11.56,4.44 -3.58,1.3 -1.76,7.18 2.29,5.71 3.79,-1.51 7.6,-2.97 11.42,-4.39zm-39.46 16.58c3.77,-1.89 0.85,-7.3 -2.64,-5.56 -3.74,1.76 -7.44,3.58 -11.13,5.43 -3.6,1.8 -0.88,7.32 2.77,5.5 3.65,-1.83 7.3,-3.63 11,-5.37zm-37.85 19.95c3.52,-2.11 0.3,-7.36 -3.13,-5.3 -3.56,2.09 -7.11,4.2 -10.61,6.38 -3.36,2.02 -0.33,7.38 3.26,5.22 3.47,-2.15 6.97,-4.24 10.49,-6.3zm-36 23.17c3.46,-2.69 -0.62,-7.31 -3.57,-5.01 -3.37,2.38 -6.71,4.81 -10.02,7.27 -3.31,2.58 0.6,7.33 3.69,4.93 3.27,-2.43 6.57,-4.83 9.9,-7.18zm-33.86 26.2c2.96,-2.3 -0.53,-7.38 -3.97,-4.7 -3.12,2.5 -6.39,5.44 -9.37,8.12 -3.02,3.02 1.21,7.16 4.11,4.58 2.97,-2.65 6.14,-5.53 9.23,-8zm-31.46 29.02c2.84,-2.84 -1.48,-7.23 -4.38,-4.33 -2.91,2.93 -5.78,5.89 -8.62,8.89 -2.71,2.71 1.45,7.25 4.48,4.22 2.81,-2.96 5.64,-5.89 8.52,-8.78zm-28.85 31.63c2.66,-3.41 -2.4,-6.94 -4.72,-3.95 -2.66,3.16 -5.27,6.38 -7.84,9.61 -2.51,3.22 2.37,6.97 4.84,3.8 2.48,-3.19 5.12,-6.38 7.72,-9.47zm-26 33.99c2.18,-3.27 -2.46,-6.85 -5.06,-3.51 -2.36,3.39 -4.69,6.8 -6.96,10.24 -2.25,3.75 3.22,6.59 5.14,3.38 2.26,-3.4 4.55,-6.77 6.88,-10.12zm-22.97 36.12c2.01,-3.36 -3.18,-6.67 -5.33,-3.07 -2.07,3.58 -4.07,7.18 -6.05,10.8 -1.93,3.86 3.71,6.33 5.41,2.94 1.96,-3.58 3.94,-7.14 5.98,-10.67zm-19.74 37.96c1.7,-3.4 -3.67,-6.42 -5.59,-2.57 -1.73,3.75 -3.44,7.5 -5.09,11.29 -1.47,3.68 3.77,6.2 5.65,2.43 1.63,-3.74 3.31,-7.45 5.03,-11.15zm-16.36 39.55c1.37,-3.78 -4.4,-5.92 -5.79,-2.08 -1.41,3.88 -2.77,7.78 -4.08,11.69 -1.31,3.61 4.38,5.95 5.84,1.94 1.3,-3.87 2.64,-7.71 4.04,-11.55zm-12.85 40.83c1.05,-3.85 -4.87,-5.55 -5.95,-1.57 -1.06,3.99 -2.08,7.99 -3.04,12 -1,3.67 4.85,5.58 5.99,1.42 0.96,-3.97 1.96,-7.91 3.01,-11.86zm-9.23 41.79c0.71,-3.92 -5.33,-5.1 -6.06,-1.04 -0.71,4.07 -1.38,8.14 -1.99,12.22 -0.68,3.74 5.32,5.14 6.09,0.89 0.61,-4.03 1.26,-8.06 1.96,-12.07zm-5.56 42.44c0.36,-3.98 -5.76,-4.61 -6.13,-0.51 -0.35,4.12 -0.66,8.23 -0.92,12.35 -0.34,3.78 5.75,4.65 6.14,0.35 0.25,-4.07 0.57,-8.13 0.91,-12.2zm-1.88 42.77c0,-4.05 -6.15,-4.05 -6.15,0 -0.01,4.13 0.04,8.26 0.14,12.39 0,3.86 6.15,4.09 6.15,-0.16 -0.09,-4.08 -0.15,-8.16 -0.14,-12.23zm1.78 42.76c-0.37,-4.06 -6.5,-3.48 -6.13,0.54 0.35,4.11 0.74,8.23 1.2,12.33 0.35,3.87 6.5,3.52 6.12,-0.7 -0.46,-4.05 -0.84,-8.11 -1.18,-12.18zm5.46 42.45c-0.73,-4.01 -6.78,-2.88 -6.06,1.08 0.71,4.06 1.44,8.14 2.26,12.18 0.69,3.82 6.78,2.92 6.03,-1.24 -0.83,-3.98 -1.54,-8.02 -2.24,-12.03zm9.13 41.82c-1.07,-3.93 -7,-2.29 -5.94,1.6 1.06,3.99 2.15,7.98 3.32,11.93 1.02,3.74 7.01,2.33 5.9,-1.76 -1.15,-3.91 -2.23,-7.85 -3.27,-11.78zm12.75 40.86c-1.38,-3.79 -7.17,-1.72 -5.78,2.12 1.41,3.88 2.84,7.75 4.35,11.59 1.32,3.62 7.18,1.75 5.73,-2.26 -1.48,-3.8 -2.9,-7.62 -4.3,-11.45zm16.27 39.59c-1.91,-3.81 -7.3,-0.84 -5.58,2.6 1.73,3.75 3.52,7.47 5.34,11.17 1.82,3.65 7.32,0.87 5.51,-2.74 -1.81,-3.66 -3.57,-7.34 -5.28,-11.04zm19.66 38.03c-2.16,-3.6 -7.35,-0.29 -5.33,3.07 2.04,3.59 4.16,7.13 6.29,10.67 2.06,3.43 7.37,0.32 5.26,-3.2 -2.11,-3.49 -4.2,-6.99 -6.22,-10.54zm22.88 36.16c-2.72,-3.5 -7.3,0.63 -5.04,3.54 2.36,3.39 4.76,6.75 7.2,10.08 2.61,3.35 7.33,-0.61 4.95,-3.66 -2.42,-3.29 -4.77,-6.62 -7.11,-9.96zm25.94 34.06c-2.33,-2.99 -7.38,0.53 -4.72,3.95 2.64,3.18 5.33,6.3 8.04,9.42 2.57,2.9 7.26,-0.67 4.63,-4.06 -2.68,-3.08 -5.33,-6.17 -7.94,-9.31zm28.76 31.69c-2.86,-2.86 -7.21,1.49 -4.35,4.35 2.91,2.93 5.84,5.83 8.82,8.69 2.74,2.74 7.25,-1.46 4.25,-4.46 -2.95,-2.82 -5.84,-5.69 -8.72,-8.59zm31.4 29.1c-3.45,-2.68 -6.93,2.4 -3.97,4.7 3.15,2.68 6.33,5.3 9.54,7.9 3.31,2.57 6.96,-2.38 3.86,-4.79 -3.17,-2.56 -6.32,-5.16 -9.42,-7.81zm33.78 26.27c-2.91,-2.26 -7.04,2.32 -3.54,5.04 3.37,2.38 6.76,4.73 10.18,7.05 3.66,2.19 6.65,-2.97 3.42,-5.12 -3.39,-2.27 -6.73,-4.61 -10.06,-6.96zm35.94 23.26c-3.39,-2.04 -6.66,3.18 -3.1,5.32 3.56,2.09 7.15,4.13 10.76,6.14 3.67,1.83 6.46,-3.3 2.97,-5.39 -3.57,-1.98 -7.11,-4 -10.63,-6.06zm37.82 20.05c-3.49,-1.74 -6.41,3.68 -2.64,5.56 3.72,1.78 7.48,3.49 11.25,5.18 3.32,1.66 6.44,-3.65 2.5,-5.62 -3.72,-1.67 -7.44,-3.35 -11.11,-5.12zm39.41 16.67c-3.84,-1.39 -5.91,4.4 -2.12,5.78 3.87,1.43 7.75,2.83 11.66,4.18 3.65,1.33 5.95,-4.39 1.97,-5.83 -3.86,-1.32 -7.69,-2.71 -11.52,-4.12zm40.72 13.17c-3.9,-1.06 -5.54,4.87 -1.6,5.94 3.98,1.09 7.97,2.14 11.98,3.14 3.72,1.01 5.57,-4.86 1.46,-5.98 -3.96,-0.98 -7.9,-2.03 -11.83,-3.1zm41.72 9.56c-3.97,-0.72 -5.09,5.33 -1.08,6.06 4.06,0.74 8.13,1.44 12.21,2.08 3.78,0.69 5.13,-5.32 0.93,-6.09 -4.03,-0.62 -8.05,-1.33 -12.06,-2.06zm42.39 5.89c-4.02,-0.37 -4.6,5.76 -0.54,6.13 4.11,0.38 8.21,0.72 12.33,1.02 3.88,0.35 4.63,-5.76 0.43,-6.14 -4.08,-0.3 -8.14,-0.63 -12.21,-1.01zm42.76 2.21c-4.1,0 -4.05,6.15 -0.04,6.15 4.13,0.03 8.26,0.02 12.39,-0.04 3.91,0 4.09,-6.15 -0.12,-6.15 -4.08,0.07 -8.15,0.08 -12.23,0.04zm42.77 -1.45c-4.1,0.37 -3.47,6.49 0.51,6.13 4.11,-0.32 8.24,-0.66 12.34,-1.1 3.91,-0.36 3.51,-6.5 -0.66,-6.12 -4.02,0.47 -8.15,0.77 -12.18,1.09zm42.51 -5.13c-4.11,0.75 -2.87,6.77 1,6.07 4.07,-0.65 8.14,-1.4 12.2,-2.17 3.91,-0.71 2.9,-6.78 -1.16,-6.04 -4,0.75 -8.02,1.5 -12.04,2.14zm41.89 -8.8c-4.02,1.1 -2.27,7 1.54,5.96 4,-1.01 7.99,-2.11 11.96,-3.22 3.83,-1.04 2.31,-7.01 -1.68,-5.92 -3.92,1.1 -7.86,2.19 -11.81,3.18zm40.96 -12.42c-3.89,1.41 -1.7,7.17 2.04,5.81 3.89,-1.33 7.78,-2.8 11.63,-4.25 3.71,-1.35 1.73,-7.18 -2.19,-5.75 -3.81,1.44 -7.64,2.88 -11.49,4.2zm77.88 -35.31c-3.64,2.18 -0.28,7.34 3.04,5.35 3.6,-2.03 7.17,-4.1 10.71,-6.21 3.48,-2.09 0.31,-7.36 -3.16,-5.28 -3.5,2.09 -7.03,4.13 -10.58,6.14zm36.36 -22.6c-3.3,2.2 0.02,7.38 3.48,5.08 3.4,-2.32 6.83,-4.69 10.15,-7.13 3.39,-2.64 -0.61,-7.32 -3.63,-4.97 -3.28,2.39 -6.65,4.73 -10,7.02zm34.25 -25.66c-3.03,2.36 0.54,7.38 3.92,4.75 3.19,-2.62 6.36,-5.27 9.48,-7.97 2.88,-2.24 -0.51,-7.39 -4.03,-4.65 -3.09,2.66 -6.22,5.28 -9.37,7.87zm61.25 -59.69c-2.71,3.49 2.4,6.92 4.68,4 2.7,-3.13 5.36,-6.28 7.97,-9.47 2.6,-3.34 -2.39,-6.95 -4.77,-3.89 -2.59,3.15 -5.22,6.27 -7.88,9.36zm26.55 -33.59c-2.32,2.98 2.33,7.02 4.99,3.6 2.42,-3.35 4.79,-6.73 7.13,-10.13 2.3,-3.45 -2.88,-6.77 -5.08,-3.48 -2.31,3.36 -4.65,6.7 -7.04,10.01zm23.53 -35.74c-2.06,3.44 3.19,6.65 5.3,3.13 2.11,-3.55 4.19,-7.11 6.22,-10.71 1.97,-3.28 -3.16,-6.68 -5.37,-3 -1.99,3.56 -4.06,7.08 -6.14,10.58zm20.35 -37.66c-1.77,3.53 3.68,6.4 5.54,2.67 1.8,-3.71 3.55,-7.45 5.27,-11.21 1.68,-3.36 -3.66,-6.43 -5.61,-2.54 -1.69,3.71 -3.42,7.4 -5.2,11.07zm16.99 -39.29c-1.43,3.92 4.41,5.89 5.75,2.19 1.47,-3.86 2.88,-7.74 4.27,-11.63 1.36,-3.74 -4.39,-5.93 -5.81,-2.04 -1.37,3.85 -2.76,7.67 -4.22,11.48zm13.49 -40.62c-1.09,3.99 4.88,5.51 5.92,1.68 1.09,-3.99 2.19,-7.95 3.24,-11.95 1.04,-3.81 -4.86,-5.55 -5.96,-1.54 -1.03,3.95 -2.12,7.87 -3.2,11.81zm9.89 -41.64c-0.74,4.06 5.33,5.07 6.04,1.16 0.73,-4.07 1.49,-8.11 2.18,-12.19 0.7,-3.87 -5.32,-5.11 -6.07,-1 -0.68,4.03 -1.43,8.02 -2.15,12.04zm6.22 -42.34c-0.37,4.11 5.76,4.58 6.12,0.62 0.43,-4.11 0.79,-8.22 1.12,-12.34 0.36,-3.93 -5.76,-4.62 -6.14,-0.47 -0.32,4.06 -0.68,8.13 -1.1,12.18zm2.54 -42.72c0,4.15 6.15,4.04 6.15,0.08 0.06,-4.13 0.09,-8.26 0.05,-12.39 0,-3.96 -6.15,-4.08 -6.15,0.08 0.04,4.08 0.01,8.16 -0.05,12.23zm-1.11 -42.8c0.38,4.2 6.49,3.45 6.14,-0.43 -0.26,-4.11 -0.63,-8.24 -1.01,-12.35 -0.36,-4 -6.5,-3.49 -6.13,0.58 0.38,4.05 0.74,8.13 0.99,12.19zm-4.79 -42.53c0.76,4.16 6.77,2.86 6.08,-0.97 -0.63,-4.08 -1.33,-8.15 -2.07,-12.21 -0.72,-3.97 -6.78,-2.9 -6.05,1.12 0.73,4.01 1.42,8.03 2.04,12.06zm-8.46 -41.95c1.11,4.06 7,2.26 5.97,-1.5 -0.99,-4.01 -2.04,-8 -3.13,-11.98 -1.06,-3.88 -7.01,-2.3 -5.93,1.64 1.08,3.93 2.11,7.88 3.09,11.84zm-12.1 -41.06c1.43,3.93 7.16,1.69 5.82,-2.01 -1.33,-3.91 -2.73,-7.79 -4.16,-11.67 -1.36,-3.74 -7.18,-1.72 -5.77,2.15 1.42,3.82 2.8,7.66 4.11,11.52zm-15.64 -39.85c1.97,3.94 7.29,0.82 5.62,-2.5 -1.65,-3.78 -3.41,-7.52 -5.16,-11.26 -1.89,-3.77 -7.3,-0.85 -5.56,2.64 1.74,3.69 3.47,7.39 5.1,11.12zm-19.05 -38.31c2.21,3.68 7.34,0.28 5.37,-3 -2,-3.61 -4.03,-7.21 -6.13,-10.76 -2.11,-3.52 -7.36,-0.3 -5.3,3.13 2.07,3.52 4.07,7.07 6.05,10.63zm-22.31 -36.53c2.22,3.33 7.37,-0.04 5.1,-3.45 -2.3,-3.43 -4.65,-6.82 -7.03,-10.19 -2.69,-3.46 -7.31,0.62 -5.01,3.57 2.35,3.33 4.68,6.68 6.95,10.07zm-25.39 -34.45c2.38,3.06 7.37,-0.55 4.77,-3.89 -2.6,-3.21 -5.21,-6.4 -7.89,-9.54 -2.27,-2.92 -7.39,0.52 -4.68,4 2.64,3.1 5.23,6.26 7.79,9.43zm-59.23 -61.73c3.39,2.64 6.96,-2.05 4.06,-4.63 -3.12,-2.71 -6.24,-5.42 -9.43,-8.06 -3.38,-2.63 -6.95,2.39 -3.92,4.75 3.14,2.59 6.22,5.26 9.28,7.94zm-33.36 -26.79c3.01,2.34 7.01,-2.34 3.63,-4.97 -3.33,-2.44 -6.68,-4.84 -10.07,-7.21 -3.27,-2.18 -6.85,2.46 -3.51,5.06 3.35,2.34 6.66,4.71 9.95,7.12zm-35.57 -23.82c3.51,2.11 6.63,-3.2 3.2,-5.26 -3.52,-2.15 -7.09,-4.24 -10.66,-6.3 -3.36,-2.01 -6.67,3.18 -3.07,5.33 3.53,2.04 7.05,4.1 10.53,6.23zm-37.49 -20.64c3.57,1.79 6.39,-3.69 2.71,-5.53 -3.71,-1.82 -7.42,-3.61 -11.17,-5.36 -3.4,-1.7 -6.42,3.67 -2.57,5.59 3.7,1.71 7.37,3.49 11.03,5.29zm-39.15 -17.3c3.84,1.4 5.77,-4.05 2.55,-5.6 1.3,-1.43 2.6,-2.86 3.91,-4.29 2.61,-2.61 -1.43,-7.27 -4.56,-4.14 -1.84,2.01 -3.68,4.03 -5.51,6.06 -1.92,-0.72 -3.84,-1.43 -5.76,-2.13 -3.78,-1.37 -5.92,4.4 -2.08,5.79 1.43,0.52 2.86,1.05 4.29,1.58 0.04,2.46 3.3,4.17 5.32,2.02l1.83 0.71zm-40.51 -13.82c4.04,1.1 5.51,-4.88 1.72,-5.91 -3.96,-1.17 -7.94,-2.26 -11.93,-3.33 -3.85,-1.05 -5.55,4.87 -1.57,5.95 3.94,1.05 7.87,2.14 11.78,3.29zm-41.56 -10.22c4.11,0.75 5.07,-5.33 1.2,-6.04 -4.05,-0.81 -8.11,-1.56 -12.18,-2.28 -3.92,-0.71 -5.1,5.33 -1.04,6.06 4.02,0.71 8.02,1.45 12.02,2.25zm-42.29 -6.56c4.17,0.38 4.57,-5.76 0.66,-6.12 -4.1,-0.45 -8.21,-0.86 -12.33,-1.21 -3.98,-0.36 -4.61,5.76 -0.51,6.13 4.06,0.35 8.12,0.75 12.17,1.2zm297.68 -112.68c3.6,-2.16 0.29,-7.35 -3.07,-5.33 -3.58,2.04 -7.13,4.13 -10.67,6.24 -3.48,2.09 -0.31,7.36 3.16,5.28 3.51,-2.09 7.03,-4.16 10.58,-6.19zm-36.54 22.46c3.2,-1.92 0.37,-7.39 -3.38,-5.14 -3.45,2.22 -6.87,4.58 -10.27,6.89 -3.3,2.2 0.02,7.38 3.48,5.08 3.37,-2.29 6.76,-4.63 10.18,-6.83zm-35.07 24.66c3.28,-2.55 -0.59,-7.34 -3.72,-4.91 -3.29,2.48 -6.58,4.97 -9.82,7.51 -3.17,2.47 0.58,7.35 3.8,4.84 3.22,-2.51 6.47,-4.99 9.74,-7.44zm-33.5 26.79c2.92,-2.27 -0.52,-7.39 -4,-4.68 -3.14,2.67 -6.25,5.37 -9.34,8.1 -3.03,2.69 1.06,7.29 4.09,4.6 3.06,-2.7 6.15,-5.38 9.26,-8.02zm-31.79 28.79c2.97,-2.97 -1.5,-7.2 -4.27,-4.43 -2.97,2.85 -5.91,5.75 -8.83,8.66 -2.86,2.86 1.49,7.21 4.35,4.35 2.9,-2.88 5.81,-5.75 8.75,-8.58zm-57.98 63.15c2.57,-3.31 -2.38,-6.96 -4.79,-3.86 -2.59,3.2 -5.16,6.43 -7.7,9.67 -2.49,3.2 2.37,6.98 4.86,3.78 2.51,-3.22 5.06,-6.41 7.63,-9.58zm-25.98 34.13c2.29,-2.94 -2.32,-7.03 -5.01,-3.57 -2.4,3.35 -4.76,6.73 -7.09,10.13 -2.3,3.45 2.88,6.77 5.08,3.48 2.32,-3.36 4.65,-6.72 7.03,-10.04zm-23.81 35.65c2.13,-3.55 -3.2,-6.63 -5.24,-3.23 -2.17,3.5 -4.31,7.01 -6.44,10.53 -2.08,3.48 3.19,6.65 5.28,3.16 2.11,-3.5 4.25,-6.99 6.41,-10.47zm-21.57 37.07c1.91,-3.82 -3.71,-6.34 -5.43,-2.91 -1.96,3.63 -3.9,7.26 -5.79,10.93 -1.84,3.69 3.7,6.37 5.48,2.81 1.88,-3.63 3.8,-7.23 5.74,-10.82zm-19.24 38.33c1.7,-3.4 -3.67,-6.42 -5.59,-2.57 -1.73,3.74 -3.44,7.49 -5.1,11.26 -1.64,3.28 3.65,6.45 5.64,2.47 1.65,-3.74 3.34,-7.45 5.06,-11.16zm-16.82 39.45c1.44,-3.96 -4.41,-5.89 -5.74,-2.22 -1.5,3.84 -2.96,7.69 -4.39,11.56 -1.39,3.84 4.4,5.91 5.78,2.12 1.42,-3.83 2.87,-7.65 4.35,-11.45zm-14.34 40.42c1.15,-4.22 -4.88,-5.47 -5.87,-1.86 -1.26,3.93 -2.48,7.86 -3.66,11.81 -1.11,4.08 4.88,5.5 5.9,1.76 1.18,-3.91 2.38,-7.81 3.63,-11.7zm-11.79 41.23c1.03,-3.76 -4.86,-5.56 -5.97,-1.5 -1.01,4 -1.98,8 -2.92,12.02 -0.99,3.63 4.85,5.59 6,1.39 0.93,-3.98 1.89,-7.95 2.89,-11.9zm-9.2 41.89c0.73,-4.02 -5.33,-5.09 -6.05,-1.12 -0.76,4.05 -1.48,8.11 -2.17,12.18 -0.7,3.87 5.32,5.11 6.07,1 0.68,-4.02 1.4,-8.05 2.15,-12.06zm-6.59 42.37c0.39,-4.26 -5.76,-4.55 -6.11,-0.74 -0.5,4.09 -0.98,8.19 -1.41,12.29 -0.37,4.11 5.76,4.58 6.12,0.62 0.43,-4.06 0.9,-8.12 1.4,-12.17zm-3.97 42.7c0.34,-3.78 -5.75,-4.65 -6.14,-0.35 -0.25,4.11 -0.46,8.22 -0.66,12.33 0,4.08 5.78,4.35 6.15,0.27 0.2,-4.09 0.41,-8.17 0.65,-12.25zm-1.35 42.88c0,-4.05 -6.15,-4.05 -6.15,0 -0.01,4.12 0.03,8.25 0.1,12.37 0,3.91 6.15,4.09 6.15,-0.12 -0.06,-4.08 -0.11,-8.17 -0.1,-12.25zm1.26 42.86c-0.39,-4.24 -6.49,-3.44 -6.14,0.39 0.25,4.11 0.51,8.23 0.85,12.34 0.37,4.1 6.49,3.47 6.13,-0.51 -0.33,-4.07 -0.59,-8.15 -0.84,-12.22zm3.88 42.71c-0.34,-3.77 -6.5,-3.54 -6.11,0.77 0.5,4.09 1.04,8.16 1.6,12.24 0.78,4.3 6.77,2.83 6.1,-0.85 -0.55,-4.06 -1.09,-8.1 -1.59,-12.17zm6.5 42.39c-0.71,-3.91 -6.78,-2.9 -6.04,1.16 0.76,4.05 1.55,8.08 2.36,12.12 0.69,3.82 6.78,2.92 6.03,-1.24 -0.81,-4.01 -1.59,-8.02 -2.34,-12.04zm9.12 41.92c-1.11,-4.06 -7,-2.26 -5.97,1.5 0.98,4 2.05,7.99 3.11,11.97 1.07,3.93 7.01,2.29 5.94,-1.61 -1.05,-3.94 -2.12,-7.9 -3.08,-11.86zm11.71 41.26c-0.98,-3.61 -7.02,-2.36 -5.87,1.86 1.16,3.91 2.55,7.87 3.85,11.75 1.45,3.98 7.16,1.68 5.83,-1.97 -1.29,-3.84 -2.66,-7.77 -3.82,-11.64zm14.25 40.43c-1.32,-3.62 -7.18,-1.75 -5.73,2.26 1.5,3.84 3.02,7.65 4.57,11.47 1.28,3.53 7.19,1.77 5.7,-2.33 -1.54,-3.79 -3.05,-7.59 -4.54,-11.4zm16.74 39.49c-1.91,-3.81 -7.3,-0.84 -5.58,2.6 1.73,3.74 3.48,7.48 5.28,11.18 1.84,3.68 7.31,0.87 5.53,-2.71 -1.78,-3.68 -3.51,-7.37 -5.23,-11.08zm19.16 38.37c-1.7,-3.4 -7.34,-0.92 -5.41,2.94 1.96,3.63 3.94,7.24 5.96,10.83 2.18,3.64 7.35,0.28 5.36,-3.04 -2.01,-3.56 -3.97,-7.14 -5.91,-10.74zm21.5 37.11c-2.02,-3.36 -7.38,-0.33 -5.22,3.26 2.17,3.5 4.38,6.98 6.62,10.44 1.95,3.24 7.39,0.36 5.16,-3.35 -2.21,-3.43 -4.41,-6.88 -6.56,-10.35zm23.75 35.72c-2.69,-3.46 -7.3,0.62 -5.01,3.57 2.38,3.36 4.81,6.69 7.25,10.02 2.61,3.35 7.33,-0.61 4.95,-3.66 -2.42,-3.29 -4.83,-6.59 -7.19,-9.93zm25.9 34.17c-2.38,-3.06 -7.37,0.55 -4.77,3.89 2.59,3.2 5.2,6.4 7.85,9.55 2.3,2.96 7.38,-0.53 4.7,-3.97 -2.63,-3.13 -5.21,-6.29 -7.78,-9.47zm27.96 32.53c-3.09,-3.09 -7.17,1.52 -4.53,4.17 2.78,3.04 5.59,6.06 8.42,9.05 3,3 7.19,-1.51 4.46,-4.25 -2.81,-2.97 -5.59,-5.96 -8.35,-8.97zm29.9 30.75c-2.77,-2.77 -7.24,1.46 -4.27,4.43 2.96,2.87 5.96,5.7 8.96,8.52 2.68,2.68 7.26,-1.44 4.19,-4.5 -2.98,-2.79 -5.95,-5.6 -8.88,-8.44zm31.72 28.85c-3.45,-2.68 -6.93,2.4 -3.97,4.7 3.13,2.67 6.28,5.35 9.47,7.95 3.34,2.6 6.95,-2.39 3.89,-4.77 -3.15,-2.6 -6.27,-5.24 -9.38,-7.88zm33.44 26.85c-3.09,-2.4 -7,2.35 -3.68,4.93 3.29,2.48 6.6,4.93 9.94,7.35 2.98,2.32 7.02,-2.33 3.6,-4.99 -3.31,-2.4 -6.59,-4.83 -9.85,-7.29zm35.03 24.75c-3.75,-2.25 -6.59,3.22 -3.38,5.14 3.44,2.27 6.9,4.51 10.37,6.73 3.63,2.18 6.61,-3.21 3.29,-5.2 -3.45,-2.19 -6.87,-4.41 -10.28,-6.67zm732.59 19.95c-3.52,2.11 -0.3,7.36 3.13,5.3 3.56,-2.09 7.1,-4.19 10.61,-6.34 3.4,-2.04 0.33,-7.37 -3.23,-5.24 -3.48,2.14 -7,4.22 -10.52,6.29zm36.33 -22.81c-3.34,2.22 0.04,7.37 3.44,5.1 3.42,-2.3 6.82,-4.63 10.2,-6.99 3.5,-2.72 -0.63,-7.3 -3.54,-5.04 -3.35,2.34 -6.72,4.65 -10.11,6.92zm34.85 -25c-3.24,2.52 0.58,7.34 3.74,4.88 3.28,-2.5 6.52,-5.05 9.75,-7.6 3.13,-2.44 -0.56,-7.36 -3.83,-4.81 -3.2,2.53 -6.42,5.05 -9.67,7.53zm33.23 -27.09c-2.89,2.57 0.67,7.26 4.06,4.63 3.11,-2.71 6.21,-5.42 9.27,-8.18 3.13,-3.13 -1.53,-7.17 -4.14,-4.56 -3.02,2.74 -6.11,5.43 -9.19,8.11zm31.52 -29.09c-2.9,2.9 1.49,7.22 4.33,4.38 2.94,-2.89 5.86,-5.8 8.75,-8.74 2.8,-2.8 -1.47,-7.23 -4.4,-4.3 -2.86,2.91 -5.76,5.8 -8.67,8.66zm57.38 -63.69c-2.51,3.22 2.37,6.97 4.84,3.8 2.55,-3.23 5.08,-6.47 7.6,-9.73 2.46,-3.16 -2.36,-6.99 -4.88,-3.74 -2.5,3.24 -5.02,6.46 -7.55,9.67zm25.65 -34.38c-2.18,3.27 2.46,6.85 5.06,3.51 2.36,-3.38 4.7,-6.77 7,-10.2 2.19,-3.66 -2.97,-6.65 -5.12,-3.42 -2.27,3.39 -4.6,6.75 -6.93,10.1zm23.49 -35.89c-2.11,3.51 3.2,6.63 5.26,3.2 2.15,-3.52 4.27,-7.05 6.36,-10.61 2.04,-3.4 -3.18,-6.66 -5.32,-3.1 -2.07,3.52 -4.16,7.03 -6.3,10.51zm21.22 -37.27c-1.89,3.78 3.7,6.35 5.44,2.87 1.93,-3.64 3.82,-7.31 5.69,-10.98 1.83,-3.66 -3.7,-6.36 -5.5,-2.77 -1.85,3.64 -3.72,7.27 -5.63,10.88zm18.87 -38.5c-1.66,3.32 3.65,6.44 5.62,2.5 1.68,-3.76 3.34,-7.52 4.98,-11.3 1.47,-3.68 -3.77,-6.2 -5.65,-2.43 -1.63,3.76 -3.28,7.49 -4.95,11.23zm16.44 -39.61c-1.41,3.88 4.41,5.89 5.77,2.15 1.45,-3.86 2.88,-7.72 4.28,-11.6 1.36,-3.74 -4.39,-5.93 -5.81,-2.04 -1.34,3.84 -2.81,7.68 -4.24,11.49zm13.95 -40.55c-1.13,4.13 4.88,5.49 5.89,1.79 1.21,-3.94 2.4,-7.89 3.55,-11.85 1.09,-3.99 -4.88,-5.51 -5.92,-1.68 -1.13,3.92 -2.32,7.83 -3.52,11.74zm11.4 -41.34c-1,3.67 4.85,5.58 5.99,1.42 0.96,-4.01 1.9,-8.02 2.81,-12.04 0.77,-4.25 -5.34,-5.04 -6.02,-1.31 -0.88,3.99 -1.83,7.96 -2.78,11.93zm8.81 -41.97c-0.71,3.92 5.33,5.1 6.06,1.04 0.71,-4.06 1.39,-8.11 2.05,-12.18 0.7,-3.83 -5.32,-5.12 -6.08,-0.97 -0.66,4.04 -1.33,8.07 -2.04,12.1zm6.19 -42.45c-0.38,4.22 5.77,4.56 6.12,0.7 0.34,-4.06 0.89,-8.22 1.29,-12.3 0.37,-4.07 -5.76,-4.58 -6.13,-0.58 -0.4,4.04 -0.95,8.16 -1.28,12.18zm3.56 -42.73c-0.34,3.74 5.75,4.66 6.15,0.31 0.22,-4.12 0.4,-8.24 0.54,-12.35 0,-4.3 -6.15,-4.01 -6.15,-0.2 -0.14,4.08 -0.32,8.16 -0.54,12.24zm0.94 -42.87c0,3.96 6.15,4.08 6.15,-0.08 -0.04,-4.12 -0.09,-8.25 -0.21,-12.37 0,-3.81 -6.15,-4.1 -6.15,0.2 0.14,4.07 0.17,8.17 0.21,12.25zm-1.66 -42.87c0.38,4.2 6.49,3.45 6.14,-0.43 -0.25,-4.1 -0.61,-8.23 -0.97,-12.33 -0.37,-4.06 -6.5,-3.48 -6.13,0.54 0.35,4.06 0.7,8.15 0.96,12.22zm-4.28 -42.67c0.74,4.05 6.47,3.24 6.1,-0.81 -0.53,-4.09 -1.11,-8.17 -1.72,-12.25 -0.76,-4.21 -6.77,-2.85 -6.09,0.93 0.61,4.04 1.18,8.08 1.7,12.13zm-6.9 -42.32c0.7,3.87 6.78,2.91 6.04,-1.2 -0.79,-4.05 -1.61,-8.08 -2.48,-12.12 -0.68,-3.74 -6.79,-2.94 -6.02,1.31 0.86,3.99 1.67,8 2.45,12zm-9.52 -41.82c1.08,3.98 7,2.28 5.95,-1.57 -1.04,-3.99 -2.11,-7.97 -3.23,-11.94 -1.04,-3.83 -7.01,-2.31 -5.92,1.68 1.11,3.93 2.17,7.87 3.2,11.83zm-12.1 -41.14c1.46,4.02 7.15,1.67 5.84,-1.94 -1.28,-3.92 -2.6,-7.82 -3.96,-11.71 -1.41,-3.89 -7.17,-1.7 -5.81,2.04 1.35,3.86 2.66,7.72 3.93,11.61zm-14.64 -40.31c1.3,3.58 7.18,1.76 5.71,-2.29 -1.52,-3.83 -3.09,-7.64 -4.68,-11.44 -1.41,-3.52 -7.16,-1.69 -5.67,2.4 1.58,3.76 3.13,7.54 4.64,11.34zm-17.12 -39.32c1.89,3.77 7.3,0.85 5.56,-2.64 -1.76,-3.73 -3.56,-7.43 -5.39,-11.13 -1.82,-3.65 -7.32,-0.87 -5.51,2.74 1.81,3.66 3.6,7.33 5.34,11.03zm-19.53 -38.19c2.1,3.49 7.22,0.7 5.39,-2.97 -1.95,-3.61 -4.02,-7.21 -6.06,-10.78 -2.16,-3.6 -7.35,-0.29 -5.33,3.07 2.02,3.54 4.08,7.1 6.01,10.68zm-21.84 -36.89c1.97,3.28 7.38,0.35 5.18,-3.32 -2.21,-3.48 -4.44,-6.94 -6.72,-10.38 -2.15,-3.23 -7.32,-0.24 -5.12,3.42 2.26,3.39 4.47,6.84 6.66,10.29zm-24.09 -35.49c2.64,3.39 7.32,-0.61 4.97,-3.63 -2.42,-3.34 -4.87,-6.66 -7.34,-9.95 -2.55,-3.28 -7.34,0.59 -4.91,3.72 2.46,3.26 4.88,6.55 7.28,9.86zm-26.23 -33.94c2.35,3.03 7.37,-0.54 4.75,-3.92 -2.61,-3.19 -5.27,-6.34 -7.94,-9.48 -2.27,-2.92 -7.39,0.52 -4.68,4 2.64,3.11 5.28,6.24 7.87,9.39zm-28.25 -32.25c3.03,3.03 7.19,-1.51 4.48,-4.22 -2.8,-2.99 -5.62,-6.08 -8.51,-8.97 -2.93,-2.93 -7.21,1.5 -4.4,4.3 2.82,2.96 5.64,5.91 8.43,8.89zm-30.19 -30.47c2.71,2.71 7.25,-1.45 4.22,-4.48 -2.99,-2.84 -6,-5.65 -9.04,-8.43 -2.61,-2.61 -7.27,1.43 -4.14,4.56 3.02,2.75 6,5.55 8.96,8.36zm-32 -28.56c3.41,2.66 6.94,-2.4 3.95,-4.72 -3.16,-2.65 -6.34,-5.26 -9.54,-7.86 -3.31,-2.57 -6.96,2.38 -3.86,4.79 3.18,2.57 6.33,5.16 9.46,7.79zm-33.7 -26.54c3.05,2.37 7.01,-2.34 3.66,-4.95 -3.31,-2.45 -6.66,-4.86 -10.01,-7.26 -2.94,-2.29 -7.03,2.32 -3.57,5.01 3.32,2.38 6.63,4.76 9.92,7.19zm-35.25 -24.4c3.67,2.2 6.6,-3.21 3.32,-5.18 -3.46,-2.23 -6.94,-4.46 -10.44,-6.63 -3.55,-2.13 -6.63,3.2 -3.23,5.24 3.47,2.15 6.91,4.35 10.34,6.57z"/>
  <path class="fil1" d="M1196.4 662.87c20.66,0 37.41,16.75 37.41,37.41 0,20.66 -16.75,37.41 -37.41,37.41 -20.66,0 -37.41,-16.75 -37.41,-37.41 0,-20.66 16.75,-37.41 37.41,-37.41z"/>
 </g>
</svg>
