<?xml version="1.0" encoding="UTF-8"?>
<!DOCTYPE svg PUBLIC "-//W3C//DTD SVG 1.1//EN" "http://www.w3.org/Graphics/SVG/1.1/DTD/svg11.dtd">
<!-- Creator: CorelDRAW 2021 (64-Bit) -->
<svg xmlns="http://www.w3.org/2000/svg" xml:space="preserve" width="5.41041in" height="3.16028in" version="1.1" style="shape-rendering:geometricPrecision; text-rendering:geometricPrecision; image-rendering:optimizeQuality; fill-rule:evenodd; clip-rule:evenodd"
viewBox="0 0 5410 3160.04"
 xmlns:xlink="http://www.w3.org/1999/xlink"
 xmlns:xodm="http://www.corel.com/coreldraw/odm/2003">
 <defs>
  <style type="text/css">
   <![CDATA[
    .fil1 {fill:#5CE05C}
    .fil0 {fill:black;fill-rule:nonzero}
   ]]>
  </style>
 </defs>
 <g id="Layer_x0020_1">
  <metadata id="CorelCorpID_0Corel-Layer"/>
  <path class="fil0" d="M1174.97 3146.08c-9.14,0 -9.14,13.89 0,13.89l27.78 0c9.14,0 9.14,-13.89 0,-13.89l-27.78 0zm1529.54 -1650.74c46.62,0 84.41,37.79 84.41,84.41 0,46.62 -37.79,84.41 -84.41,84.41 -15.76,0 -30.52,-4.33 -43.14,-11.85 -6.01,7.18 -15.9,-1.51 -11.29,-8.05 -16.67,-14.08 -27.81,-34.51 -29.68,-57.56l-17.72 0c-9.14,0 -9.14,-13.89 0,-13.89l17.72 0c3.53,-43.37 39.84,-77.46 84.12,-77.46zm830.32 1196.99c-9.14,0 -9.14,13.89 0,13.89l3.5 0 14.69 0 8.87 0 0.72 0 3.5 0 14.69 0 8.87 0c9.14,0 9.14,-13.89 0,-13.89l-8.87 0 -14.69 0 -3.5 0 -0.72 0 -8.87 0 -14.69 0 -3.5 0zm1867.4 13.89c22.73,-2.13 -11.87,-35.98 -10.16,-13.89l-10.04 0c-9.14,0 -9.14,13.89 0,13.89 6.54,0 13.75,0.31 20.2,0zm-1770.18 -13.89c-9.14,0 -9.14,13.89 0,13.89l3.5 0 14.69 0 8.87 0 0.72 0 3.5 0 14.69 0 8.87 0c9.14,0 9.14,-13.89 0,-13.89l-8.87 0 -14.69 0 -3.5 0 -0.72 0 -8.87 0 -14.69 0 -3.5 0zm97.22 0c-9.14,0 -9.14,13.89 0,13.89l3.5 0 14.69 0 8.87 0 0.72 0 3.5 0 14.69 0 8.87 0c9.14,0 9.14,-13.89 0,-13.89l-8.87 0 -14.69 0 -3.5 0 -0.72 0 -8.87 0 -14.69 0 -3.5 0zm97.22 0c-9.14,0 -9.14,13.89 0,13.89l3.5 0 23.56 0 0.72 0 3.5 0 23.56 0c9.14,0 9.14,-13.89 0,-13.89l-23.56 0 -3.5 0 -0.72 0 -23.56 0 -3.5 0zm97.22 0c-9.14,0 -9.14,13.89 0,13.89l3.5 0 23.56 0 0.72 0 3.5 0 23.56 0c9.14,0 9.14,-13.89 0,-13.89l-23.56 0 -3.5 0 -0.72 0 -23.56 0 -3.5 0zm97.22 0c-9.14,0 -9.14,13.89 0,13.89l3.5 0 22.17 0 3.86 7.73c4.09,8.18 16.52,1.98 12.42,-6.21l-0.76 -1.52 13.64 0c9.14,0 9.14,-13.89 0,-13.89l-20.59 0 -4.72 -9.44c-4.09,-8.18 -16.52,-1.98 -12.42,6.21l1.61 3.23 -15.22 0 -3.5 0zm97.22 0c-9.14,0 -9.14,13.89 0,13.89l3.5 0 23.56 0 0.72 0 3.5 0 23.56 0c9.14,0 9.14,-13.89 0,-13.89l-23.56 0 -3.5 0 -0.72 0 -23.56 0 -3.5 0zm97.22 0c-9.14,0 -9.14,13.89 0,13.89l3.5 0 23.56 0 0.72 0 3.5 0 23.56 0c9.14,0 9.14,-13.89 0,-13.89l-23.56 0 -3.5 0 -0.72 0 -23.56 0 -3.5 0zm97.22 0c-9.14,0 -9.14,13.89 0,13.89l3.5 0 23.56 0 0.72 0 3.5 0 23.56 0c9.14,0 9.14,-13.89 0,-13.89l-23.56 0 -3.5 0 -0.72 0 -23.56 0 -3.5 0zm97.22 0c-9.14,0 -9.14,13.89 0,13.89l3.5 0 23.56 0 0.72 0 3.5 0 23.56 0c9.14,0 9.14,-13.89 0,-13.89l-23.56 0 -3.5 0 -0.72 0 -23.56 0 -3.5 0zm97.22 0c-9.14,0 -9.14,13.89 0,13.89l3.5 0 23.56 0 0.72 0 3.5 0 23.56 0c9.14,0 9.14,-13.89 0,-13.89l-23.56 0 -3.5 0 -0.72 0 -23.56 0 -3.5 0zm97.22 0c-9.14,0 -9.14,13.89 0,13.89l3.5 0 24.28 0 3.5 0c9.14,0 9.14,-13.89 0,-13.89l-3.5 0 -24.28 0 -3.5 0zm97.22 0c-9.14,0 -9.14,13.89 0,13.89l3.5 0 24.28 0 3.5 0c9.14,0 9.14,-13.89 0,-13.89l-3.5 0 -24.28 0 -3.5 0zm97.22 0c-9.14,0 -9.14,13.89 0,13.89l3.5 0 24.28 0 3.5 0c9.14,0 9.14,-13.89 0,-13.89l-3.5 0 -24.28 0 -3.5 0zm97.22 0c-9.14,0 -9.14,13.89 0,13.89l3.5 0 24.28 0 3.5 0c9.14,0 9.14,-13.89 0,-13.89l-3.5 0 -24.28 0 -3.5 0zm97.22 0c-9.14,0 -9.14,13.89 0,13.89l3.5 0 24.28 0 3.5 0c9.14,0 9.14,-13.89 0,-13.89l-3.5 0 -24.28 0 -3.5 0zm97.22 0c-9.14,0 -9.14,13.89 0,13.89l3.5 0 24.28 0 3.5 0c9.14,0 9.14,-13.89 0,-13.89l-3.5 0 -24.28 0 -3.5 0zm97.22 0c-9.14,0 -9.14,13.89 0,13.89l27.78 0c9.14,0 9.14,-13.89 0,-13.89l-27.78 0zm97.22 0c-9.14,0 -9.14,13.89 0,13.89l27.78 0c9.14,0 9.14,-13.89 0,-13.89l-27.78 0zm80.56 -61.33c4.28,8.56 16.07,2.79 12.77,-5.45l-10.9 -25.55c-4.28,-8.56 -16.07,-2.79 -12.77,5.45l10.9 25.55zm-38.17 -89.42c4.28,8.56 16.07,2.79 12.77,-5.45l-10.9 -25.55c-4.28,-8.56 -16.07,-2.79 -12.77,5.45l10.9 25.55zm-38.17 -89.42c4.28,8.56 16.07,2.79 12.77,-5.45l-10.9 -25.55c-4.28,-8.56 -16.07,-2.79 -12.77,5.45l10.9 25.55zm-38.16 -89.42c4.28,8.56 16.07,2.79 12.77,-5.45l-10.9 -25.55c-4.28,-8.56 -16.07,-2.79 -12.77,5.45l10.9 25.55zm-38.16 -89.42c4.28,8.56 16.07,2.79 12.77,-5.45l-10.9 -25.55c-4.28,-8.56 -16.07,-2.79 -12.77,5.45l10.9 25.55zm-38.16 -89.42c4.28,8.56 16.07,2.79 12.77,-5.45l-10.9 -25.55c-4.28,-8.56 -16.07,-2.79 -12.77,5.45l10.9 25.55zm-38.16 -89.42c4.28,8.56 16.07,2.79 12.77,-5.45l-10.9 -25.55c-4.28,-8.56 -16.07,-2.79 -12.77,5.45l10.9 25.55zm-38.16 -89.42c4.28,8.56 16.07,2.79 12.77,-5.45l-10.9 -25.55c-4.28,-8.56 -16.07,-2.79 -12.77,5.45l10.9 25.55zm-38.16 -89.42c4.28,8.56 16.07,2.79 12.77,-5.45l-10.9 -25.55c-4.28,-8.56 -16.07,-2.79 -12.77,5.45l10.9 25.55zm-38.16 -89.42c4.28,8.56 16.07,2.79 12.77,-5.45l-10.9 -25.55c-4.28,-8.56 -16.07,-2.79 -12.77,5.45l10.9 25.55zm-38.16 -89.42c4.28,8.56 16.07,2.79 12.77,-5.45l-10.9 -25.55c-4.28,-8.56 -16.07,-2.79 -12.77,5.45l10.9 25.55zm-38.15 -89.42c4.28,8.56 16.07,2.79 12.77,-5.45l-10.9 -25.55c-4.28,-8.56 -16.07,-2.79 -12.77,5.45l10.9 25.55zm-38.15 -89.42c4.28,8.56 16.07,2.79 12.77,-5.45l-10.9 -25.55c-4.28,-8.56 -16.07,-2.79 -12.77,5.45l10.9 25.55zm-38.15 -89.42c4.28,8.56 16.07,2.79 12.77,-5.45l-10.9 -25.55c-4.28,-8.56 -16.07,-2.79 -12.77,5.45l10.9 25.55zm-38.15 -89.42c4.28,8.56 16.07,2.79 12.77,-5.45l-10.9 -25.55c-4.28,-8.56 -16.07,-2.79 -12.77,5.45l10.9 25.55zm-38.15 -89.42c4.28,8.56 16.07,2.79 12.77,-5.45l-10.9 -25.55c-4.28,-8.56 -16.07,-2.79 -12.77,5.45l10.9 25.55zm-38.15 -89.42c4.28,8.56 16.07,2.79 12.77,-5.45l-10.9 -25.55c-4.28,-8.56 -16.07,-2.79 -12.77,5.45l10.9 25.55zm-38.15 -89.42c4.28,8.56 16.07,2.79 12.77,-5.45l-10.9 -25.55c-4.28,-8.56 -16.07,-2.79 -12.77,5.45l10.9 25.55zm-38.15 -89.41c4.28,8.56 16.07,2.79 12.77,-5.45l-10.9 -25.55c-4.28,-8.56 -16.07,-2.79 -12.77,5.45l10.9 25.55zm-38.15 -89.41c4.28,8.56 16.07,2.79 12.77,-5.45l-10.9 -25.55c-4.28,-8.56 -16.07,-2.79 -12.77,5.45l10.9 25.55zm-38.15 -89.41c4.28,8.56 16.07,2.79 12.77,-5.45l-10.9 -25.55c-4.28,-8.56 -16.07,-2.79 -12.77,5.45l10.9 25.55zm-38.15 -89.41c4.28,8.56 16.07,2.79 12.77,-5.45l-10.9 -25.55c-4.28,-8.56 -16.07,-2.79 -12.77,5.45l10.9 25.55zm-38.15 -89.41c4.28,8.56 16.07,2.79 12.77,-5.45l-10.9 -25.55c-4.28,-8.56 -16.07,-2.79 -12.77,5.45l10.9 25.55zm-38.15 -89.41c4.28,8.56 16.07,2.79 12.77,-5.45l-10.9 -25.55c-4.28,-8.56 -16.07,-2.79 -12.77,5.45l10.9 25.55zm-38.15 -89.41c4.28,8.56 16.07,2.79 12.77,-5.45 -22.24,-52.14 -26.99,-11.19 -18.94,-8.98l6.17 14.42zm-25.4 45.45c3.3,-8.24 -8.49,-14.01 -12.77,-5.45l-10.9 25.55c-3.3,8.24 8.49,14.01 12.77,5.45l10.9 -25.55zm-38.17 89.42c3.3,-8.24 -8.49,-14.01 -12.77,-5.45l-10.9 25.55c-3.3,8.24 8.49,14.01 12.77,5.45l10.9 -25.55zm-38.17 89.42c3.3,-8.24 -8.49,-14.01 -12.77,-5.45l-10.9 25.55c-3.3,8.24 8.49,14.01 12.77,5.45l10.9 -25.55zm-38.16 89.42c3.3,-8.24 -8.49,-14.01 -12.77,-5.45l-10.9 25.55c-3.3,8.24 8.49,14.01 12.77,5.45l10.9 -25.55zm-38.16 89.42c3.3,-8.24 -8.49,-14.01 -12.77,-5.45l-10.9 25.55c-3.3,8.24 8.49,14.01 12.77,5.45l10.9 -25.55zm-38.16 89.42c3.3,-8.24 -8.49,-14.01 -12.77,-5.45l-10.9 25.55c-3.3,8.24 8.49,14.01 12.77,5.45l10.9 -25.55zm-38.16 89.42c3.3,-8.24 -8.49,-14.01 -12.77,-5.45l-10.9 25.55c-3.3,8.24 8.49,14.01 12.77,5.45l10.9 -25.55zm-38.16 89.42c3.3,-8.24 -8.49,-14.01 -12.77,-5.45l-10.9 25.55c-3.3,8.24 8.49,14.01 12.77,5.45l10.9 -25.55zm-38.16 89.42c3.3,-8.24 -8.49,-14.01 -12.77,-5.45l-10.9 25.55c-3.3,8.24 8.49,14.01 12.77,5.45l10.9 -25.55zm-38.16 89.42c3.3,-8.24 -8.49,-14.01 -12.77,-5.45l-10.9 25.55c-3.3,8.24 8.49,14.01 12.77,5.45l10.9 -25.55zm-38.16 89.42c3.3,-8.24 -8.49,-14.01 -12.77,-5.45l-10.9 25.55c-3.3,8.24 8.49,14.01 12.77,5.45l10.9 -25.55zm-38.16 89.42c3.3,-8.24 -8.49,-14.01 -12.77,-5.45l-10.9 25.55c-3.3,8.24 8.49,14.01 12.77,5.45l10.9 -25.55zm-38.15 89.42c3.3,-8.24 -8.49,-14.01 -12.77,-5.45l-10.9 25.55c-3.3,8.24 8.49,14.01 12.77,5.45l10.9 -25.55zm-38.15 89.42c3.3,-8.24 -8.49,-14.01 -12.77,-5.45l-10.9 25.55c-3.3,8.24 8.49,14.01 12.77,5.45l10.9 -25.55zm-38.15 89.42c3.3,-8.24 -8.49,-14.01 -12.77,-5.45l-10.9 25.55c-3.3,8.24 8.49,14.01 12.77,5.45l10.9 -25.55zm-38.15 89.42c3.3,-8.24 -8.49,-14.01 -12.77,-5.45l-10.9 25.55c-3.3,8.24 8.49,14.01 12.77,5.45l10.9 -25.55zm-38.15 89.42c3.3,-8.24 -8.49,-14.01 -12.77,-5.45l-10.9 25.55c-3.3,8.24 8.49,14.01 12.77,5.45l10.9 -25.55zm-38.15 89.42c3.3,-8.24 -8.49,-14.01 -12.77,-5.45l-10.9 25.55c-3.3,8.24 8.49,14.01 12.77,5.45l10.9 -25.55zm-38.15 89.41c3.3,-8.24 -8.49,-14.01 -12.77,-5.45l-10.9 25.55c-3.3,8.24 8.49,14.01 12.77,5.45l10.9 -25.55zm-38.15 89.41c3.3,-8.24 -8.49,-14.01 -12.77,-5.45l-10.9 25.55c-3.3,8.24 8.49,14.01 12.77,5.45l10.9 -25.55zm-38.15 89.41c3.3,-8.24 -8.49,-14.01 -12.77,-5.45l-4.36 10.22 -9.27 -18.55c-4.09,-8.18 -16.52,-1.98 -12.42,6.21l12.42 24.84c0.69,1.39 1.62,2.35 2.67,2.98 -3.08,8.16 8.58,13.8 12.83,5.29l10.9 -25.55zm-38.15 89.41c3.3,-8.24 -8.49,-14.01 -12.77,-5.45l-10.9 25.55c-3.3,8.24 8.49,14.01 12.77,5.45l10.9 -25.55zm-38.15 89.41c3.3,-8.24 -8.49,-14.01 -12.77,-5.45l-10.9 25.55c-3.3,8.24 8.49,14.01 12.77,5.45l10.9 -25.55zm-38.15 89.41c3.3,-8.24 -8.49,-14.01 -12.77,-5.45l-10.9 25.55c-3.3,8.24 8.49,14.01 12.77,5.45l10.9 -25.55zm-38.15 89.41c3.3,-8.24 -8.49,-14.01 -12.77,-5.45l-9.1 21.33 -2.99 0 -14.69 0 -4.22 0 -8.87 0 -14.69 0c-9.14,0 -9.14,13.89 0,13.89l14.69 0 8.87 0 4.22 0 14.69 0 7.33 0c0.24,0.01 0.48,0.01 0.71,0l0.83 0c1.72,0 3.12,-0.49 4.19,-1.3l15.24 21.42c6.07,7.8 16.49,-1.41 11.31,-8.05l-16.11 -22.63c-1.67,-2.15 -3.67,-3 -5.57,-2.98l6.92 -16.22zm-553.43 15.88c-9.14,0 -9.14,13.89 0,13.89l5.81 0 8.87 0 8.87 0 4.22 0 5.81 0 8.87 0 8.87 0c9.14,0 9.14,-13.89 0,-13.89l-8.87 0 -8.87 0 -5.81 0 -4.22 0 -8.87 0 -8.87 0 -5.81 0zm97.22 0c-9.14,0 -9.14,13.89 0,13.89l14.69 0 8.87 0 4.22 0 14.69 0 8.87 0c9.14,0 9.14,-13.89 0,-13.89l-8.87 0 -14.69 0 -4.22 0 -8.87 0 -14.69 0zm97.22 0c-9.14,0 -9.14,13.89 0,13.89l14.69 0 8.87 0 4.22 0 14.69 0 8.87 0c9.14,0 9.14,-13.89 0,-13.89l-8.87 0 -14.69 0 -4.22 0 -8.87 0 -14.69 0zm97.22 0c-9.14,0 -9.14,13.89 0,13.89l14.69 0 8.87 0 4.22 0 14.69 0 8.87 0c9.14,0 9.14,-13.89 0,-13.89l-8.87 0 -14.69 0 -4.22 0 -8.87 0 -14.69 0zm97.22 0c-9.14,0 -9.14,13.89 0,13.89l14.69 0 8.87 0 4.22 0 14.69 0 8.87 0c9.14,0 9.14,-13.89 0,-13.89l-8.87 0 -14.69 0 -4.22 0 -8.87 0 -14.69 0zm1811.11 -8.42c4.09,8.18 16.52,1.98 12.42,-6.21l-12.42 -24.85c-4.09,-8.18 -16.52,-1.98 -12.42,6.21l12.42 24.85zm-43.48 -86.97c4.09,8.18 16.52,1.98 12.42,-6.21l-12.42 -24.84c-4.09,-8.18 -16.52,-1.98 -12.42,6.21l12.42 24.84zm-43.48 -86.96c4.09,8.18 16.52,1.98 12.42,-6.21l-12.42 -24.84c-4.09,-8.18 -16.52,-1.98 -12.42,6.21l12.42 24.84zm-43.48 -86.96c4.09,8.18 16.52,1.98 12.42,-6.21l-12.42 -24.84c-4.09,-8.18 -16.52,-1.98 -12.42,6.21l12.42 24.84zm-43.48 -86.96c4.09,8.18 16.52,1.98 12.42,-6.21l-12.42 -24.84c-4.09,-8.18 -16.52,-1.98 -12.42,6.21l12.42 24.84zm-43.48 -86.96c4.09,8.18 16.52,1.98 12.42,-6.21l-12.42 -24.84c-4.09,-8.18 -16.52,-1.98 -12.42,6.21l12.42 24.84zm-43.48 -86.96c4.09,8.18 16.52,1.98 12.42,-6.21l-12.42 -24.84c-4.09,-8.18 -16.52,-1.98 -12.42,6.21l12.42 24.84zm-43.48 -86.96c4.09,8.18 16.52,1.98 12.42,-6.21l-12.42 -24.84c-4.09,-8.18 -16.52,-1.98 -12.42,6.21l12.42 24.84zm-43.48 -86.96c4.09,8.18 16.52,1.98 12.42,-6.21l-12.42 -24.84c-4.09,-8.18 -16.52,-1.98 -12.42,6.21l12.42 24.84zm-43.48 -86.96c4.09,8.18 16.52,1.98 12.42,-6.21l-12.42 -24.84c-4.09,-8.18 -16.52,-1.98 -12.42,6.21l12.42 24.84zm-43.48 -86.96c4.09,8.18 16.52,1.98 12.42,-6.21l-12.42 -24.84c-4.09,-8.18 -16.52,-1.98 -12.42,6.21l12.42 24.84zm-43.48 -86.96c4.09,8.18 16.52,1.98 12.42,-6.21l-12.42 -24.84c-4.09,-8.18 -16.52,-1.98 -12.42,6.21l12.42 24.84zm-43.48 -86.96c4.09,8.18 16.52,1.98 12.42,-6.21l-12.42 -24.84c-4.09,-8.18 -16.52,-1.98 -12.42,6.21l12.42 24.84zm-43.48 -86.96c4.09,8.18 16.52,1.98 12.42,-6.21l-12.42 -24.84c-4.09,-8.18 -16.52,-1.98 -12.42,6.21l12.42 24.84zm-43.48 -86.96c4.09,8.18 16.52,1.98 12.42,-6.21l-12.42 -24.84c-4.09,-8.18 -16.52,-1.98 -12.42,6.21l12.42 24.84zm-43.48 -86.96c4.09,8.18 16.52,1.98 12.42,-6.21l-12.42 -24.84c-4.09,-8.18 -16.52,-1.98 -12.42,6.21l12.42 24.84zm-43.48 -86.96c4.09,8.18 16.52,1.98 12.42,-6.21l-12.42 -24.84c-4.09,-8.18 -16.52,-1.98 -12.42,6.21l12.42 24.84zm-43.48 -86.95c4.09,8.18 16.52,1.98 12.42,-6.21l-12.42 -24.84c-4.09,-8.18 -16.52,-1.98 -12.42,6.21l12.42 24.84zm-43.48 -86.95c4.09,8.18 16.52,1.98 12.42,-6.21l-12.42 -24.84c-4.09,-8.18 -16.52,-1.98 -12.42,6.21l12.42 24.84zm-43.48 -86.95c4.09,8.18 16.52,1.98 12.42,-6.21l-12.42 -24.84c-4.09,-8.18 -16.52,-1.98 -12.42,6.21l12.42 24.84zm-43.48 -86.95c4.09,8.18 16.52,1.98 12.42,-6.21l-12.42 -24.84c-4.09,-8.18 -16.52,-1.98 -12.42,6.21l12.42 24.84zm-43.48 -86.95c4.09,8.18 16.52,1.98 12.42,-6.21l-12.42 -24.84c-4.09,-8.18 -16.52,-1.98 -12.42,6.21l12.42 24.84zm-43.48 -86.95c4.09,8.18 16.52,1.98 12.42,-6.21l-12.42 -24.84c-4.09,-8.18 -16.52,-1.98 -12.42,6.21l12.42 24.84zm-43.47 -86.95c4.09,8.18 16.52,1.98 12.42,-6.21l-12.42 -24.84c-4.09,-8.18 -16.52,-1.98 -12.42,6.21l12.42 24.84zm-43.47 -86.95c4.09,8.18 16.52,1.98 12.42,-6.21l-12.42 -24.84c-4.09,-8.18 -16.52,-1.98 -12.42,6.21l12.42 24.84zm-43.47 -86.95c4.09,8.18 16.52,1.98 12.42,-6.21l-12.42 -24.84c-4.09,-8.18 -16.52,-1.98 -12.42,6.21l12.42 24.84zm-31.06 -6.37c4.09,-8.19 -8.33,-14.4 -12.42,-6.21l-12.42 24.84c-4.09,8.19 8.33,14.4 12.42,6.21l12.42 -24.84zm-43.48 86.96c4.09,-8.19 -8.33,-14.4 -12.42,-6.21l-12.42 24.84c-4.09,8.19 8.33,14.4 12.42,6.21l12.42 -24.84zm-43.48 86.96c4.09,-8.19 -8.33,-14.4 -12.42,-6.21l-12.42 24.84c-4.09,8.19 8.33,14.4 12.42,6.21l12.42 -24.84zm-43.48 86.96c4.09,-8.19 -8.33,-14.4 -12.42,-6.21l-12.42 24.84c-4.09,8.19 8.33,14.4 12.42,6.21l12.42 -24.84zm-43.48 86.96c4.09,-8.19 -8.33,-14.4 -12.42,-6.21l-12.42 24.84c-4.09,8.19 8.33,14.4 12.42,6.21l12.42 -24.84zm-43.48 86.96c4.09,-8.19 -8.33,-14.4 -12.42,-6.21l-12.42 24.84c-4.09,8.19 8.33,14.4 12.42,6.21l12.42 -24.84zm-56.31 81.55l-12.02 24.04c-4.09,8.19 8.33,14.4 12.42,6.21l7.85 -15.71c5.14,3.44 13.51,-2.07 10.05,-9l-12.42 -24.84c-4.09,-8.18 -16.52,-1.98 -12.42,6.21l6.54 13.09zm-30.66 92.37c4.09,-8.19 -8.33,-14.4 -12.42,-6.21l-12.42 24.84c-4.09,8.19 8.33,14.4 12.42,6.21l12.42 -24.84zm-43.48 86.96c4.09,-8.19 -8.33,-14.4 -12.42,-6.21l-12.42 24.84c-4.09,8.19 8.33,14.4 12.42,6.21l12.42 -24.84zm-43.48 86.96c4.09,-8.19 -8.33,-14.4 -12.42,-6.21l-5.75 11.5 -7.63 -10.73c-6.07,-7.8 -16.49,1.41 -11.31,8.05l11.94 16.78c-2.34,6.1 4.37,10.85 9.29,8.83 4.89,0.31 9.44,-5.29 6.82,-10.07l9.07 -18.14zm-43.48 86.96c4.09,-8.19 -8.33,-14.4 -12.42,-6.21l-12.42 24.84c-4.09,8.19 8.33,14.4 12.42,6.21l12.42 -24.84zm-43.48 86.96c4.09,-8.19 -8.33,-14.4 -12.42,-6.21l-12.42 24.84c-4.09,8.19 8.33,14.4 12.42,6.21l12.42 -24.84zm-43.48 86.96c4.09,-8.19 -8.33,-14.4 -12.42,-6.21l-11.66 23.31 -5.89 -11.78c-4.09,-8.18 -16.52,-1.98 -12.42,6.21l7.07 14.15 -2.22 0c-9.14,0 -9.14,13.89 0,13.89l10.65 0c1.85,0.92 4,0.81 5.85,0l11.27 0c9.14,0 9.14,-13.89 0,-13.89l-3.14 0c0.17,-0.26 0.33,-0.54 0.48,-0.84l12.42 -24.84zm-43.48 86.96c4.09,-8.19 -8.33,-14.4 -12.42,-6.21l-12.42 24.84c-4.09,8.19 8.33,14.4 12.42,6.21l12.42 -24.84zm-43.48 86.96c4.09,-8.19 -8.33,-14.4 -12.42,-6.21l-12.42 24.84c-4.09,8.19 8.33,14.4 12.42,6.21l12.42 -24.84zm-42.89 85.41c0.92,-3.5 -1.1,-6.45 -3.89,-7.77l-7.7 -15.4c-4.09,-8.18 -16.52,-1.98 -12.42,6.21l8.57 17.14 -10 20c-4.09,8.19 8.33,14.4 12.42,6.21l7.33 -14.66c4.6,0 9.25,-4.58 6.52,-10.06l-0.83 -1.67zm-44.07 88.51c4.09,-8.19 -8.33,-14.4 -12.42,-6.21l-12.42 24.84c-4.09,8.19 8.33,14.4 12.42,6.21l12.42 -24.84zm-43.48 86.95c4.09,-8.19 -8.33,-14.4 -12.42,-6.21l-12.42 24.84c-4.09,8.19 8.33,14.4 12.42,6.21l12.42 -24.84zm-43.48 86.95c4.09,-8.19 -8.33,-14.4 -12.42,-6.21l-12.42 24.84c-4.09,8.19 8.33,14.4 12.42,6.21l12.42 -24.84zm-43.48 86.95c4.09,-8.19 -8.33,-14.4 -12.42,-6.21l-12.42 24.84c-4.09,8.19 8.33,14.4 12.42,6.21l12.42 -24.84zm-43.48 86.95l0.15 -0.33 6.14 8.63c6.07,7.8 16.49,-1.41 11.31,-8.05l-16.11 -22.63c-6.07,-7.8 -16.49,1.41 -11.31,8.05l3.05 4.28c-2.2,0.09 -4.35,1.23 -5.66,3.84l-12.42 24.84c-4.09,8.19 8.33,14.4 12.42,6.21l12.42 -24.84zm-43.48 86.95c4.09,-8.19 -8.33,-14.4 -12.42,-6.21l-12.42 24.84c-4.09,8.19 8.33,14.4 12.42,6.21l12.42 -24.84zm-43.47 86.95c4.09,-8.19 -8.33,-14.4 -12.42,-6.21l-12.42 24.84c-4.09,8.19 8.33,14.4 12.42,6.21l12.42 -24.84zm-43.47 86.95c4.09,-8.19 -8.33,-14.4 -12.42,-6.21l-12.42 24.84c-4.09,8.19 8.33,14.4 12.42,6.21l12.42 -24.84zm-43.47 86.95c2.96,-5.93 -2.74,-10.82 -7.66,-9.96l-7.37 -14.73c-4.09,-8.18 -16.52,-1.98 -12.42,6.21l10.58 21.16 -7.98 15.95c-4.09,8.19 8.33,14.4 12.42,6.21l8.24 -16.48c1.39,-1.18 2.34,-2.85 2.39,-4.79l1.79 -3.58zm-43.47 86.95c4.09,-8.19 -8.33,-14.4 -12.42,-6.21l-12.42 24.84c-4.09,8.19 8.33,14.4 12.42,6.21l12.42 -24.84zm-2899.38 14.79c-9.14,0 -9.14,13.89 0,13.89l27.78 0c9.14,0 9.14,-13.89 0,-13.89l-27.78 0zm1867.4 13.89l0.03 -0 1.09 0 8.87 0 14.69 0c9.14,0 9.14,-13.89 0,-13.89l-14.69 0 -5.41 0c-5.4,-7.26 -15.7,-12.29 -14.75,0l-7.61 0 -2.43 0 -6.45 0c-9.14,0 -9.14,13.89 0,13.89l6.45 0 0.31 0 0.31 0 0.31 0c6.29,0.02 13.13,0.3 19.28,0zm-1770.18 -13.89c-9.14,0 -9.14,13.89 0,13.89l27.78 0c9.14,0 9.14,-13.89 0,-13.89l-27.78 0zm93.98 13.18c0.91,0.45 1.99,0.71 3.24,0.71l17.11 0 10.66 0 17.11 0c9.14,0 9.14,-13.89 0,-13.89l-17.11 0 -10.66 0 -12.38 0 7.4 -14.79c4.09,-8.19 -8.33,-14.4 -12.42,-6.21l-12.42 24.84c-3.34,6.68 4.32,12.05 9.48,9.34zm100.46 -13.18c-9.14,0 -9.14,13.89 0,13.89l17.11 0 10.66 0 17.11 0c9.14,0 9.14,-13.89 0,-13.89l-17.11 0 -10.66 0 -17.11 0zm97.22 0c-9.14,0 -9.14,13.89 0,13.89l17.11 0 10.66 0 17.11 0c9.14,0 9.14,-13.89 0,-13.89l-17.11 0 -10.66 0 -17.11 0zm97.22 0c-9.14,0 -9.14,13.89 0,13.89l17.11 0 10.66 0 17.11 0c9.14,0 9.14,-13.89 0,-13.89l-17.11 0 -10.66 0 -17.11 0zm97.22 0c-9.14,0 -9.14,13.89 0,13.89l17.11 0 10.66 0 17.11 0c9.14,0 9.14,-13.89 0,-13.89l-17.11 0 -10.66 0 -17.11 0zm97.22 0c-9.14,0 -9.14,13.89 0,13.89l17.11 0 10.66 0 17.11 0c9.14,0 9.14,-13.89 0,-13.89l-17.11 0 -10.66 0 -17.11 0zm1149.99 -61.33c4.28,8.56 16.07,2.79 12.77,-5.45l-10.9 -25.55c-4.28,-8.56 -16.07,-2.79 -12.77,5.45l10.9 25.55zm-38.17 -89.42c4.28,8.56 16.07,2.79 12.77,-5.45l-10.9 -25.55c-4.28,-8.56 -16.07,-2.79 -12.77,5.45l10.9 25.55zm-38.17 -89.42c4.28,8.56 16.07,2.79 12.77,-5.45l-10.9 -25.55c-4.28,-8.56 -16.07,-2.79 -12.77,5.45l10.9 25.55zm-38.16 -89.42c4.28,8.56 16.07,2.79 12.77,-5.45l-7.24 -16.98 5.29 -10.59c4.09,-8.19 -8.33,-14.4 -12.42,-6.21l-2.02 4.05c-4.66,-0.54 -9.55,3.96 -7.28,9.63l1.13 2.65 -4.26 8.51c-3.76,7.52 6.41,13.37 11.27,7.93l2.75 6.45zm-38.16 -89.42c4.28,8.56 16.07,2.79 12.77,-5.45l-10.9 -25.55c-4.28,-8.56 -16.07,-2.79 -12.77,5.45l10.9 25.55zm-38.16 -89.42c4.28,8.56 16.07,2.79 12.77,-5.45l-10.9 -25.55c-4.28,-8.56 -16.07,-2.79 -12.77,5.45l10.9 25.55zm-38.16 -89.42l0.27 0.5 -5.76 11.51c-4.09,8.19 8.33,14.4 12.42,6.21l12.42 -24.84c3.62,-7.24 -5.68,-12.93 -10.71,-8.49l-6.78 -15.88c-4.28,-8.56 -16.07,-2.79 -12.77,5.45l10.9 25.55zm-38.16 -89.42c4.28,8.56 16.07,2.79 12.77,-5.45l-10.9 -25.55c-4.28,-8.56 -16.07,-2.79 -12.77,5.45l10.9 25.55zm-38.16 -89.42c4.28,8.56 16.07,2.79 12.77,-5.45l-10.9 -25.55c-4.28,-8.56 -16.07,-2.79 -12.77,5.45l10.9 25.55zm-38.16 -89.42c4.28,8.56 16.07,2.79 12.77,-5.45l-10.9 -25.55c-4.28,-8.56 -16.07,-2.79 -12.77,5.45l10.9 25.55zm-38.16 -89.42c4.28,8.56 16.07,2.79 12.77,-5.45l-10.9 -25.55c-4.28,-8.56 -16.07,-2.79 -12.77,5.45l10.9 25.55zm-38.16 -89.42c4.28,8.56 16.07,2.79 12.77,-5.45l-10.9 -25.55c-4.28,-8.56 -16.07,-2.79 -12.77,5.45l10.9 25.55zm-38.15 -89.42c4.28,8.56 16.07,2.79 12.77,-5.45l-10.9 -25.55c-4.28,-8.56 -16.07,-2.79 -12.77,5.45l10.9 25.55zm-38.15 -89.42c4.28,8.56 16.07,2.79 12.77,-5.45l-10.9 -25.55c-4.28,-8.56 -16.07,-2.79 -12.77,5.45l10.9 25.55zm-38.15 -89.42c4.28,8.56 16.07,2.79 12.77,-5.45l-10.9 -25.55c-4.28,-8.56 -16.07,-2.79 -12.77,5.45l10.9 25.55zm-38.15 -89.42c4.28,8.56 16.07,2.79 12.77,-5.45l-10.9 -25.55c-4.28,-8.56 -16.07,-2.79 -12.77,5.45l10.9 25.55zm-38.15 -89.42c4.28,8.56 16.07,2.79 12.77,-5.45l-10.9 -25.55c-4.28,-8.56 -16.07,-2.79 -12.77,5.45l10.9 25.55zm-38.15 -89.42c4.28,8.56 16.07,2.79 12.77,-5.45l-10.9 -25.55c-4.28,-8.56 -16.07,-2.79 -12.77,5.45l10.9 25.55zm-38.15 -89.41c4.28,8.56 16.07,2.79 12.77,-5.45l-10.9 -25.55c-4.28,-8.56 -16.07,-2.79 -12.77,5.45l10.9 25.55zm-38.15 -89.41c4.28,8.56 16.07,2.79 12.77,-5.45l-10.9 -25.55c-4.28,-8.56 -16.07,-2.79 -12.77,5.45l10.9 25.55zm-38.15 -89.41c4.28,8.56 16.07,2.79 12.77,-5.45l-10.9 -25.55c-4.28,-8.56 -16.07,-2.79 -12.77,5.45l10.9 25.55zm-38.15 -89.41c4.28,8.56 16.07,2.79 12.77,-5.45l-10.9 -25.55c-4.28,-8.56 -16.07,-2.79 -12.77,5.45l10.9 25.55zm-38.15 -89.41c4.28,8.56 16.07,2.79 12.77,-5.45l-10.9 -25.55c-4.28,-8.56 -16.07,-2.79 -12.77,5.45l10.9 25.55zm-38.15 -89.41c4.28,8.56 16.07,2.79 12.77,-5.45l-10.9 -25.55c-4.28,-8.56 -16.07,-2.79 -12.77,5.45l10.9 25.55zm-38.15 -89.41c4.28,8.56 16.07,2.79 12.77,-5.45 -22.24,-52.13 -27.09,-11.16 -18.94,-8.98l6.16 14.42zm-25.39 45.45c3.3,-8.24 -8.49,-14.01 -12.77,-5.45l-10.9 25.55c-3.3,8.24 8.49,14.01 12.77,5.45l10.9 -25.55zm-38.17 89.42c3.3,-8.24 -8.49,-14.01 -12.77,-5.45l-10.9 25.55c-3.3,8.24 8.49,14.01 12.77,5.45l10.9 -25.55zm-38.17 89.42c3.3,-8.24 -8.49,-14.01 -12.77,-5.45l-10.9 25.55c-3.3,8.24 8.49,14.01 12.77,5.45l10.9 -25.55zm-38.17 89.42c3.3,-8.24 -8.49,-14.01 -12.77,-5.45l-10.9 25.55c-3.3,8.24 8.49,14.01 12.77,5.45l10.9 -25.55zm-38.16 89.42c3.3,-8.24 -8.49,-14.01 -12.77,-5.45l-10.9 25.55c-3.3,8.24 8.49,14.01 12.77,5.45l10.9 -25.55zm-38.16 89.42c3.3,-8.24 -8.49,-14.01 -12.77,-5.45l-10.9 25.55c-3.3,8.24 8.49,14.01 12.77,5.45l10.9 -25.55zm-38.16 89.42c3.3,-8.24 -8.49,-14.01 -12.77,-5.45l-10.9 25.55c-3.3,8.24 8.49,14.01 12.77,5.45l10.9 -25.55zm-38.16 89.42c3.3,-8.24 -8.49,-14.01 -12.77,-5.45l-10.9 25.55c-3.3,8.24 8.49,14.01 12.77,5.45l10.9 -25.55zm-38.16 89.42c3.3,-8.24 -8.49,-14.01 -12.77,-5.45l-10.9 25.55c-3.3,8.24 8.49,14.01 12.77,5.45l10.9 -25.55zm-38.16 89.42c3.3,-8.24 -8.49,-14.01 -12.77,-5.45l-10.9 25.55c-3.3,8.24 8.49,14.01 12.77,5.45l10.9 -25.55zm-38.16 89.42c3.3,-8.24 -8.49,-14.01 -12.77,-5.45l-10.9 25.55c-3.3,8.24 8.49,14.01 12.77,5.45l10.9 -25.55zm-38.15 89.42c3.3,-8.24 -8.49,-14.01 -12.77,-5.45l-10.9 25.55c-3.3,8.24 8.49,14.01 12.77,5.45l10.9 -25.55zm-38.15 89.42c3.3,-8.24 -8.49,-14.01 -12.77,-5.45l-10.9 25.55c-3.3,8.24 8.49,14.01 12.77,5.45l10.9 -25.55zm-38.15 89.42c3.3,-8.24 -8.49,-14.01 -12.77,-5.45l-10.9 25.55c-3.3,8.24 8.49,14.01 12.77,5.45l10.9 -25.55zm-38.15 89.42c3.3,-8.24 -8.49,-14.01 -12.77,-5.45l-10.9 25.55c-3.3,8.24 8.49,14.01 12.77,5.45l10.9 -25.55zm-38.15 89.42c3.3,-8.24 -8.49,-14.01 -12.77,-5.45l-10.9 25.55c-3.3,8.24 8.49,14.01 12.77,5.45l10.9 -25.55zm-38.15 89.42c3.3,-8.24 -8.49,-14.01 -12.77,-5.45l-10.9 25.55c-3.3,8.24 8.49,14.01 12.77,5.45l10.9 -25.55zm-38.15 89.42c3.3,-8.24 -8.49,-14.01 -12.77,-5.45l-10.9 25.55c-3.3,8.24 8.49,14.01 12.77,5.45l10.9 -25.55zm-38.15 89.41c3.3,-8.24 -8.49,-14.01 -12.77,-5.45l-10.9 25.55c-3.3,8.24 8.49,14.01 12.77,5.45l10.9 -25.55zm-38.15 89.41c3.3,-8.24 -8.49,-14.01 -12.77,-5.45l-10.9 25.55c-3.3,8.24 8.49,14.01 12.77,5.45l10.9 -25.55zm-38.15 89.41c3.3,-8.24 -8.49,-14.01 -12.77,-5.45l-10.9 25.55c-3.3,8.24 8.49,14.01 12.77,5.45l10.9 -25.55zm-38.15 89.41c3.3,-8.24 -8.49,-14.01 -12.77,-5.45l-10.9 25.55c-3.3,8.24 8.49,14.01 12.77,5.45l10.9 -25.55zm-38.15 89.41c3.3,-8.24 -8.49,-14.01 -12.77,-5.45l-10.9 25.55c-3.3,8.24 8.49,14.01 12.77,5.45l10.9 -25.55zm-38.15 89.41c3.3,-8.24 -8.49,-14.01 -12.77,-5.45l-10.9 25.55c-3.3,8.24 8.49,14.01 12.77,5.45l10.9 -25.55zm-38.15 89.41c3.3,-8.24 -8.49,-14.01 -12.77,-5.45l-10.9 25.55c-3.3,8.24 8.49,14.01 12.77,5.45l10.9 -25.55zm825.49 29.77l6.45 0 17.11 0c9.14,0 9.14,-13.89 0,-13.89l-17.11 0 -6.45 0 -4.22 0 -17.11 0 -6.45 0c-9.14,0 -9.14,13.89 0,13.89l6.45 0 17.11 0 4.22 0zm97.22 0l6.45 0 17.11 0c9.14,0 9.14,-13.89 0,-13.89l-17.11 0 -6.45 0 -4.22 0 -17.11 0 -6.45 0c-9.14,0 -9.14,13.89 0,13.89l6.45 0 17.11 0 4.22 0zm97.22 0l6.45 0 17.11 0c9.14,0 9.14,-13.89 0,-13.89l-17.11 0 -6.45 0 -4.22 0 -17.11 0 -6.45 0c-9.14,0 -9.14,13.89 0,13.89l6.45 0 17.11 0 4.22 0zm97.22 0l6.45 0 17.11 0c9.14,0 9.14,-13.89 0,-13.89l-17.11 0 -6.45 0 -4.22 0 -17.11 0 -6.45 0c-9.14,0 -9.14,13.89 0,13.89l6.45 0 17.11 0 4.22 0zm97.22 0l6.45 0 17.11 0c9.14,0 9.14,-13.89 0,-13.89l-17.11 0 -6.45 0 -4.22 0 -17.11 0 -6.45 0c-9.14,0 -9.14,13.89 0,13.89l6.45 0 17.11 0 4.22 0zm97.22 0l6.45 0 4.56 0 -4.46 8.93c-4.09,8.19 8.33,14.4 12.42,6.21l7.96 -15.92c2.56,-1.34 3.71,-4.2 3.45,-6.91l1.01 -2.01c4.09,-8.19 -8.33,-14.4 -12.42,-6.21l-1.01 2.02 -11.5 0 -6.45 0 -4.22 0 -17.11 0 -6.45 0c-9.14,0 -9.14,13.89 0,13.89l6.45 0 17.11 0 4.22 0zm97.22 0l6.45 0 17.11 0c9.14,0 9.14,-13.89 0,-13.89l-17.11 0 -6.45 0 -4.22 0 -17.11 0 -6.45 0c-9.14,0 -9.14,13.89 0,13.89l6.45 0 17.11 0 4.22 0zm97.22 0l6.45 0 17.11 0c9.14,0 9.14,-13.89 0,-13.89l-17.11 0 -6.45 0 -4.22 0 -17.11 0 -6.45 0c-9.14,0 -9.14,13.89 0,13.89l6.45 0 17.11 0 4.22 0zm106.09 0l14.69 0c9.14,0 9.14,-13.89 0,-13.89l-14.69 0 -2.43 0 -6.45 0 -4.22 0 -14.69 0 -2.43 0 -6.45 0c-1.69,0 -3.07,0.48 -4.13,1.25l8.02 -16.05c4.09,-8.19 -8.33,-14.4 -12.42,-6.21l-12.42 24.84c-4.09,8.19 8.33,14.4 12.42,6.21l1.68 -3.36c-0.11,3.55 2.17,7.2 6.85,7.2l6.45 0 2.43 0 14.69 0 4.22 0 6.45 0 2.43 0zm97.22 0l14.69 0c9.14,0 9.14,-13.89 0,-13.89l-14.69 0 -2.43 0 -6.45 0 -4.22 0 -14.69 0 -2.43 0 -6.45 0c-9.14,0 -9.14,13.89 0,13.89l6.45 0 2.43 0 14.69 0 4.22 0 6.45 0 2.43 0zm97.22 0l14.69 0c9.14,0 9.14,-13.89 0,-13.89l-14.69 0 -2.43 0 -6.45 0 -4.22 0 -14.69 0 -2.43 0 -6.45 0c-9.14,0 -9.14,13.89 0,13.89l6.45 0 2.43 0 14.69 0 4.22 0 6.45 0 2.43 0zm194.44 0l14.69 0c9.14,0 9.14,-13.89 0,-13.89l-14.69 0 -8.87 0 -4.22 0 -14.69 0 -8.87 0c-9.14,0 -9.14,13.89 0,13.89l8.87 0 14.69 0 4.22 0 8.87 0zm97.22 0l14.69 0c9.14,0 9.14,-13.89 0,-13.89l-14.69 0 -8.87 0 -4.22 0 -14.69 0 -8.87 0c-9.14,0 -9.14,13.89 0,13.89l8.87 0 14.69 0 4.22 0 8.87 0zm97.22 0l14.69 0c9.14,0 9.14,-13.89 0,-13.89l-14.69 0 -8.87 0 -4.22 0 -14.69 0 -8.87 0c-9.14,0 -9.14,13.89 0,13.89l8.87 0 14.69 0 4.22 0 8.87 0zm97.22 0l14.69 0c9.14,0 9.14,-13.89 0,-13.89l-14.69 0 -8.87 0 -4.22 0 -14.69 0 -8.87 0c-9.14,0 -9.14,13.89 0,13.89l8.87 0 14.69 0 4.22 0 8.87 0zm106.09 0l5.81 0c9.14,0 9.14,-13.89 0,-13.89l-5.81 0 -8.87 0 -8.87 0 -4.22 0 -5.81 0 -8.87 0 -3.51 0 7.4 -14.79c4.09,-8.19 -8.33,-14.4 -12.42,-6.21l-12.42 24.84c-3.28,6.55 4.02,11.84 9.17,9.49 0.84,0.36 1.81,0.56 2.91,0.56l8.87 0 8.87 0 5.81 0 4.22 0 8.87 0 8.87 0zm39.17 -22.31c4.09,8.18 16.52,1.98 12.42,-6.21l-12.42 -24.85c-4.09,-8.18 -16.52,-1.98 -12.42,6.21l12.42 24.85zm-32.64 -84.96c1.39,-1.18 2.34,-2.85 2.39,-4.79l1.79 -3.58c2.96,-5.93 -2.74,-10.82 -7.66,-9.96l-7.37 -14.73c-4.09,-8.18 -16.52,-1.98 -12.42,6.21l10.58 21.16 -7.98 15.95c-4.09,8.19 8.33,14.4 12.42,6.21l8.24 -16.48zm-54.33 -88.96c4.09,8.18 16.52,1.98 12.42,-6.21l-12.42 -24.84c-4.09,-8.18 -16.52,-1.98 -12.42,6.21l12.42 24.84zm-43.48 -86.96c4.09,8.18 16.52,1.98 12.42,-6.21l-12.42 -24.84c-4.09,-8.18 -16.52,-1.98 -12.42,6.21l12.42 24.84zm-43.48 -86.96c4.09,8.18 16.52,1.98 12.42,-6.21l-12.42 -24.84c-4.09,-8.18 -16.52,-1.98 -12.42,6.21l12.42 24.84zm-43.48 -86.96c4.09,8.18 16.52,1.98 12.42,-6.21l-12.42 -24.84c-4.09,-8.18 -16.52,-1.98 -12.42,6.21l12.42 24.84zm-43.48 -86.96c4.09,8.18 16.52,1.98 12.42,-6.21l-12.42 -24.84c-4.09,-8.18 -16.52,-1.98 -12.42,6.21l12.42 24.84zm-43.48 -86.96c4.09,8.18 16.52,1.98 12.42,-6.21l-12.42 -24.84c-4.09,-8.18 -16.52,-1.98 -12.42,6.21l12.42 24.84zm-43.48 -86.96c4.09,8.18 16.52,1.98 12.42,-6.21l-12.42 -24.84c-4.09,-8.18 -16.52,-1.98 -12.42,6.21l12.42 24.84zm-43.48 -86.96c4.09,8.18 16.52,1.98 12.42,-6.21l-12.42 -24.84c-4.09,-8.18 -16.52,-1.98 -12.42,6.21l12.42 24.84zm-37.57 -83.11c4.6,0 9.25,-4.58 6.52,-10.06l-0.83 -1.67c0.92,-3.5 -1.1,-6.45 -3.89,-7.77l-7.7 -15.4c-4.09,-8.18 -16.52,-1.98 -12.42,6.21l8.57 17.14 -10 20c-4.09,8.19 8.33,14.4 12.42,6.21l7.33 -14.66zm-49.39 -90.8c4.09,8.18 16.52,1.98 12.42,-6.21l-12.42 -24.84c-4.09,-8.18 -16.52,-1.98 -12.42,6.21l12.42 24.84zm-43.48 -86.96c4.09,8.18 16.52,1.98 12.42,-6.21l-12.42 -24.84c-4.09,-8.18 -16.52,-1.98 -12.42,6.21l12.42 24.84zm-43.48 -86.96c4.09,8.18 16.52,1.98 12.42,-6.21l-12.42 -24.84c-4.09,-8.18 -16.52,-1.98 -12.42,6.21l12.42 24.84zm-43.48 -86.96c4.09,8.18 16.52,1.98 12.42,-6.21l-12.42 -24.84c-4.09,-8.18 -16.52,-1.98 -12.42,6.21l12.42 24.84zm-43.48 -86.96c4.09,8.18 16.52,1.98 12.42,-6.21l-12.42 -24.84c-4.09,-8.18 -16.52,-1.98 -12.42,6.21l12.42 24.84zm-43.48 -86.96c4.09,8.18 16.52,1.98 12.42,-6.21l-12.42 -24.84c-4.09,-8.18 -16.52,-1.98 -12.42,6.21l12.42 24.84zm-43.48 -86.95c4.09,8.18 16.52,1.98 12.42,-6.21l-12.42 -24.84c-4.09,-8.18 -16.52,-1.98 -12.42,6.21l12.42 24.84zm-43.48 -86.95c4.09,8.18 16.52,1.98 12.42,-6.21l-12.42 -24.84c-4.09,-8.18 -16.52,-1.98 -12.42,6.21l12.42 24.84zm-41.1 -84.16c5.14,3.44 13.51,-2.07 10.05,-9l-12.42 -24.84c-4.09,-8.18 -16.52,-1.98 -12.42,6.21l6.54 13.09 -12.02 24.04c-4.09,8.19 8.33,14.4 12.42,6.21l7.85 -15.71zm-45.85 -89.75c4.09,8.18 16.52,1.98 12.42,-6.21l-12.42 -24.84c-4.09,-8.18 -16.52,-1.98 -12.42,6.21l12.42 24.84zm-43.48 -86.95c4.09,8.18 16.52,1.98 12.42,-6.21l-12.42 -24.84c-4.09,-8.18 -16.52,-1.98 -12.42,6.21l12.42 24.84zm-43.48 -86.95c4.09,8.18 16.52,1.98 12.42,-6.21l-12.42 -24.84c-4.09,-8.18 -16.52,-1.98 -12.42,6.21l12.42 24.84zm-43.47 -86.95c4.09,8.18 16.52,1.98 12.42,-6.21l-12.42 -24.84c-4.09,-8.18 -16.52,-1.98 -12.42,6.21l12.42 24.84zm-43.47 -86.95c4.09,8.18 16.52,1.98 12.42,-6.21l-12.42 -24.84c-4.09,-8.18 -16.52,-1.98 -12.42,6.21l12.42 24.84zm-43.47 -86.95c4.09,8.18 16.52,1.98 12.42,-6.21l-12.42 -24.84c-4.09,-8.18 -16.52,-1.98 -12.42,6.21l12.42 24.84zm-31.06 -6.37c4.09,-8.19 -8.33,-14.4 -12.42,-6.21l-12.42 24.84c-4.09,8.19 8.33,14.4 12.42,6.21l12.42 -24.84zm-43.48 86.96c4.09,-8.19 -8.33,-14.4 -12.42,-6.21l-12.42 24.84c-4.09,8.19 8.33,14.4 12.42,6.21l12.42 -24.84zm-43.48 86.96c4.09,-8.19 -8.33,-14.4 -12.42,-6.21l-12.42 24.84c-4.09,8.19 8.33,14.4 12.42,6.21l12.42 -24.84zm-43.48 86.96c4.09,-8.19 -8.33,-14.4 -12.42,-6.21l-12.42 24.84c-4.09,8.19 8.33,14.4 12.42,6.21l12.42 -24.84zm-43.48 86.96c4.09,-8.19 -8.33,-14.4 -12.42,-6.21l-12.42 24.84c-4.09,8.19 8.33,14.4 12.42,6.21l12.42 -24.84zm-43.48 86.96c4.09,-8.19 -8.33,-14.4 -12.42,-6.21l-12.42 24.84c-4.09,8.19 8.33,14.4 12.42,6.21l12.42 -24.84zm-43.48 86.96c4.09,-8.19 -8.33,-14.4 -12.42,-6.21l-12.42 24.84c-4.09,8.19 8.33,14.4 12.42,6.21l12.42 -24.84zm-43.48 86.96c4.09,-8.19 -8.33,-14.4 -12.42,-6.21l-12.42 24.84c-4.09,8.19 8.33,14.4 12.42,6.21l12.42 -24.84zm-43.48 86.96c4.09,-8.19 -8.33,-14.4 -12.42,-6.21l-12.42 24.84c-4.09,8.19 8.33,14.4 12.42,6.21l12.42 -24.84zm-43.48 86.96c4.09,-8.19 -8.33,-14.4 -12.42,-6.21l-12.42 24.84c-4.09,8.19 8.33,14.4 12.42,6.21l12.42 -24.84zm-43.48 86.96c4.09,-8.19 -8.33,-14.4 -12.42,-6.21l-12.42 24.84c-4.09,8.19 8.33,14.4 12.42,6.21l12.42 -24.84zm-43.48 86.96c4.09,-8.19 -8.33,-14.4 -12.42,-6.21l-12.42 24.84c-4.09,8.19 8.33,14.4 12.42,6.21l12.42 -24.84zm-43.48 86.96c4.09,-8.19 -8.33,-14.4 -12.42,-6.21l-12.42 24.84c-4.09,8.19 8.33,14.4 12.42,6.21l12.42 -24.84zm-43.48 86.96c4.09,-8.19 -8.33,-14.4 -12.42,-6.21l-12.42 24.84c-4.09,8.19 8.33,14.4 12.42,6.21l12.42 -24.84zm-43.48 86.96c4.09,-8.19 -8.33,-14.4 -12.42,-6.21l-12.42 24.84c-4.09,8.19 8.33,14.4 12.42,6.21l12.42 -24.84zm-43.48 86.96c4.09,-8.19 -8.33,-14.4 -12.42,-6.21l-12.42 24.84c-4.09,8.19 8.33,14.4 12.42,6.21l12.42 -24.84zm-43.48 86.96c4.09,-8.19 -8.33,-14.4 -12.42,-6.21l-12.42 24.84c-4.09,8.19 8.33,14.4 12.42,6.21l12.42 -24.84zm-43.48 86.95c4.09,-8.19 -8.33,-14.4 -12.42,-6.21l-12.42 24.84c-4.09,8.19 8.33,14.4 12.42,6.21l12.42 -24.84zm-43.48 86.95c4.09,-8.19 -8.33,-14.4 -12.42,-6.21l-12.42 24.84c-4.09,8.19 8.33,14.4 12.42,6.21l12.42 -24.84zm-43.48 86.95c4.09,-8.19 -8.33,-14.4 -12.42,-6.21l-12.42 24.84c-4.09,8.19 8.33,14.4 12.42,6.21l12.42 -24.84zm-43.48 86.95c4.09,-8.19 -8.33,-14.4 -12.42,-6.21l-12.42 24.84c-4.09,8.19 8.33,14.4 12.42,6.21l12.42 -24.84zm-43.48 86.95c4.09,-8.19 -8.33,-14.4 -12.42,-6.21l-12.42 24.84c-4.09,8.19 8.33,14.4 12.42,6.21l12.42 -24.84zm-43.47 86.95c4.09,-8.19 -8.33,-14.4 -12.42,-6.21l-12.42 24.84c-4.09,8.19 8.33,14.4 12.42,6.21l12.42 -24.84zm-43.47 86.95c4.09,-8.19 -8.33,-14.4 -12.42,-6.21l-12.42 24.84c-4.09,8.19 8.33,14.4 12.42,6.21l12.42 -24.84zm-43.47 86.95c4.09,-8.19 -8.33,-14.4 -12.42,-6.21l-12.42 24.84c-4.09,8.19 8.33,14.4 12.42,6.21l12.42 -24.84zm1329.78 555.5c-9.14,0 -9.14,13.89 0,13.89l27.78 0c0.5,0 0.97,-0.05 1.42,-0.13 0.45,0.08 0.92,0.13 1.42,0.13l27.78 0c9.14,0 9.14,-13.89 0,-13.89l-27.78 0c-0.5,0 -0.97,0.05 -1.42,0.13 -0.45,-0.08 -0.92,-0.13 -1.42,-0.13l-27.78 0zm97.22 0c-9.14,0 -9.14,13.89 0,13.89l27.78 0c0.5,0 0.97,-0.05 1.42,-0.13 0.45,0.08 0.92,0.13 1.42,0.13l27.78 0c9.14,0 9.14,-13.89 0,-13.89l-27.78 0c-0.5,0 -0.97,0.05 -1.42,0.13 -0.45,-0.08 -0.92,-0.13 -1.42,-0.13l-27.78 0zm97.22 0c-9.14,0 -9.14,13.89 0,13.89l27.78 0c0.5,0 0.97,-0.05 1.42,-0.13 0.45,0.08 0.92,0.13 1.42,0.13l27.78 0c9.14,0 9.14,-13.89 0,-13.89l-27.78 0c-0.5,0 -0.97,0.05 -1.42,0.13 -0.45,-0.08 -0.92,-0.13 -1.42,-0.13l-27.78 0zm97.22 0c-9.14,0 -9.14,13.89 0,13.89l27.78 0c0.5,0 0.97,-0.05 1.42,-0.13 0.45,0.08 0.92,0.13 1.42,0.13l27.78 0c9.14,0 9.14,-13.89 0,-13.89l-27.78 0c-0.5,0 -0.97,0.05 -1.42,0.13 -0.45,-0.08 -0.92,-0.13 -1.42,-0.13l-27.78 0zm97.22 0c-9.14,0 -9.14,13.89 0,13.89l27.78 0c0.5,0 0.97,-0.05 1.42,-0.13 0.45,0.08 0.92,0.13 1.42,0.13l27.78 0c9.14,0 9.14,-13.89 0,-13.89l-27.78 0c-0.5,0 -0.97,0.05 -1.42,0.13 -0.45,-0.08 -0.92,-0.13 -1.42,-0.13l-27.78 0zm97.22 0c-9.14,0 -9.14,13.89 0,13.89l27.78 0c0.5,0 0.97,-0.05 1.42,-0.13 0.45,0.08 0.92,0.13 1.42,0.13l27.78 0c9.14,0 9.14,-13.89 0,-13.89l-27.78 0c-0.5,0 -0.97,0.05 -1.42,0.13 -0.45,-0.08 -0.92,-0.13 -1.42,-0.13l-27.78 0zm97.22 0c-9.14,0 -9.14,13.89 0,13.89l27.78 0c0.5,0 0.97,-0.05 1.42,-0.13 0.45,0.08 0.92,0.13 1.42,0.13l27.78 0c9.14,0 9.14,-13.89 0,-13.89l-27.78 0c-0.5,0 -0.97,0.05 -1.42,0.13 -0.45,-0.08 -0.92,-0.13 -1.42,-0.13l-27.78 0zm97.22 0c-9.14,0 -9.14,13.89 0,13.89l27.78 0c0.5,0 0.97,-0.05 1.42,-0.13 0.45,0.08 0.92,0.13 1.42,0.13l27.78 0c9.14,0 9.14,-13.89 0,-13.89l-27.78 0c-0.5,0 -0.97,0.05 -1.42,0.13 -0.45,-0.08 -0.92,-0.13 -1.42,-0.13l-27.78 0zm97.22 0c-9.14,0 -9.14,13.89 0,13.89l27.78 0c0.5,0 0.97,-0.05 1.42,-0.13 0.45,0.08 0.92,0.13 1.42,0.13l27.78 0c9.14,0 9.14,-13.89 0,-13.89l-27.78 0c-0.5,0 -0.97,0.05 -1.42,0.13 -0.45,-0.08 -0.92,-0.13 -1.42,-0.13l-27.78 0zm97.22 0c-9.14,0 -9.14,13.89 0,13.89l27.78 0c0.5,0 0.97,-0.05 1.42,-0.13 0.45,0.08 0.92,0.13 1.42,0.13l27.78 0c9.14,0 9.14,-13.89 0,-13.89l-27.78 0c-0.5,0 -0.97,0.05 -1.42,0.13 -0.45,-0.08 -0.92,-0.13 -1.42,-0.13l-27.78 0zm97.22 0c-9.14,0 -9.14,13.89 0,13.89l27.78 0c0.5,0 0.97,-0.05 1.42,-0.13 0.45,0.08 0.92,0.13 1.42,0.13l27.78 0c9.14,0 9.14,-13.89 0,-13.89l-27.78 0c-0.5,0 -0.97,0.05 -1.42,0.13 -0.45,-0.08 -0.92,-0.13 -1.42,-0.13l-27.78 0zm97.22 0c-9.14,0 -9.14,13.89 0,13.89l27.78 0c0.5,0 0.97,-0.05 1.42,-0.13 0.45,0.08 0.92,0.13 1.42,0.13l27.78 0c9.14,0 9.14,-13.89 0,-13.89l-27.78 0c-0.5,0 -0.97,0.05 -1.42,0.13 -0.45,-0.08 -0.92,-0.13 -1.42,-0.13l-27.78 0zm97.22 0c-9.14,0 -9.14,13.89 0,13.89l27.78 0c0.5,0 0.97,-0.05 1.42,-0.13 0.45,0.08 0.92,0.13 1.42,0.13l27.78 0c9.14,0 9.14,-13.89 0,-13.89l-27.78 0c-0.5,0 -0.97,0.05 -1.42,0.13 -0.45,-0.08 -0.92,-0.13 -1.42,-0.13l-27.78 0zm97.22 0c-9.14,0 -9.14,13.89 0,13.89l27.78 0c0.5,0 0.97,-0.05 1.42,-0.13 0.45,0.08 0.92,0.13 1.42,0.13l27.78 0c9.14,0 9.14,-13.89 0,-13.89l-27.78 0c-0.5,0 -0.97,0.05 -1.42,0.13 -0.45,-0.08 -0.92,-0.13 -1.42,-0.13l-27.78 0zm97.22 0c-9.14,0 -9.14,13.89 0,13.89l27.78 0c0.5,0 0.97,-0.05 1.42,-0.13 0.45,0.08 0.92,0.13 1.42,0.13l27.78 0c9.14,0 9.14,-13.89 0,-13.89l-27.78 0c-0.5,0 -0.97,0.05 -1.42,0.13 -0.45,-0.08 -0.92,-0.13 -1.42,-0.13l-27.78 0zm97.22 0c-9.14,0 -9.14,13.89 0,13.89l27.78 0c0.5,0 0.97,-0.05 1.42,-0.13 0.45,0.08 0.92,0.13 1.42,0.13l27.78 0c9.14,0 9.14,-13.89 0,-13.89l-27.78 0c-0.5,0 -0.97,0.05 -1.42,0.13 -0.45,-0.08 -0.92,-0.13 -1.42,-0.13l-27.78 0zm97.22 0c-9.14,0 -9.14,13.89 0,13.89l27.78 0c0.5,0 0.97,-0.05 1.42,-0.13 0.45,0.08 0.92,0.13 1.42,0.13l27.78 0c9.14,0 9.14,-13.89 0,-13.89l-27.78 0c-0.5,0 -0.97,0.05 -1.42,0.13 -0.45,-0.08 -0.92,-0.13 -1.42,-0.13l-27.78 0zm97.22 0c-9.14,0 -9.14,13.89 0,13.89l27.78 0c0.5,0 0.97,-0.05 1.42,-0.13 0.45,0.08 0.92,0.13 1.42,0.13l27.78 0c9.14,0 9.14,-13.89 0,-13.89l-27.78 0c-0.5,0 -0.97,0.05 -1.42,0.13 -0.45,-0.08 -0.92,-0.13 -1.42,-0.13l-27.78 0zm97.22 0c-9.14,0 -9.14,13.89 0,13.89l27.78 0c0.5,0 0.97,-0.05 1.42,-0.13 0.45,0.08 0.92,0.13 1.42,0.13l27.78 0c9.14,0 9.14,-13.89 0,-13.89l-27.78 0c-0.5,0 -0.97,0.05 -1.42,0.13 -0.45,-0.08 -0.92,-0.13 -1.42,-0.13l-27.78 0zm97.22 0c-9.14,0 -9.14,13.89 0,13.89l27.78 0c0.5,0 0.97,-0.05 1.42,-0.13 0.45,0.08 0.92,0.13 1.42,0.13l27.78 0c9.14,0 9.14,-13.89 0,-13.89l-27.78 0c-0.5,0 -0.97,0.05 -1.42,0.13 -0.45,-0.08 -0.92,-0.13 -1.42,-0.13l-27.78 0zm97.22 0c-9.14,0 -9.14,13.89 0,13.89l27.78 0c0.5,0 0.97,-0.05 1.42,-0.13 0.45,0.08 0.92,0.13 1.42,0.13l27.78 0c9.14,0 9.14,-13.89 0,-13.89l-27.78 0c-0.5,0 -0.97,0.05 -1.42,0.13 -0.45,-0.08 -0.92,-0.13 -1.42,-0.13l-27.78 0zm97.22 0c-9.14,0 -9.14,13.89 0,13.89l27.78 0c0.5,0 0.97,-0.05 1.42,-0.13 0.45,0.08 0.92,0.13 1.42,0.13l27.78 0c9.14,0 9.14,-13.89 0,-13.89l-27.78 0c-0.5,0 -0.97,0.05 -1.42,0.13 -0.45,-0.08 -0.92,-0.13 -1.42,-0.13l-27.78 0zm97.22 0c-9.14,0 -9.14,13.89 0,13.89l27.78 0c0.5,0 0.97,-0.05 1.42,-0.13 0.45,0.08 0.92,0.13 1.42,0.13l27.78 0c9.14,0 9.14,-13.89 0,-13.89l-27.78 0c-0.5,0 -0.97,0.05 -1.42,0.13 -0.45,-0.08 -0.92,-0.13 -1.42,-0.13l-27.78 0zm24.41 -23.67c6.07,7.8 16.49,-1.41 11.31,-8.05l-16.11 -22.63c-6.07,-7.8 -16.49,1.41 -11.31,8.05l16.11 22.63zm-56.37 -79.21c6.07,7.8 16.49,-1.41 11.31,-8.05l-16.11 -22.63c-6.07,-7.8 -16.49,1.41 -11.31,8.05l16.11 22.63zm-56.37 -79.21c6.07,7.8 16.49,-1.41 11.31,-8.05l-16.11 -22.63c-6.07,-7.8 -16.49,1.41 -11.31,8.05l16.11 22.63zm-56.37 -79.21c6.07,7.8 16.49,-1.41 11.31,-8.05l-16.11 -22.63c-6.07,-7.8 -16.49,1.41 -11.31,8.05l16.11 22.63zm-56.37 -79.21c6.07,7.8 16.49,-1.41 11.31,-8.05l-16.11 -22.63c-6.07,-7.8 -16.49,1.41 -11.31,8.05l16.11 22.63zm-112.74 -158.43c6.07,7.8 16.49,-1.41 11.31,-8.05l-16.11 -22.63c-6.07,-7.8 -16.49,1.41 -11.31,8.05l16.11 22.63zm-56.37 -79.21c6.07,7.8 16.49,-1.41 11.31,-8.05l-16.11 -22.63c-6.07,-7.8 -16.49,1.41 -11.31,8.05l16.11 22.63zm-56.37 -79.21c6.07,7.8 16.49,-1.41 11.31,-8.05l-16.11 -22.63c-6.07,-7.8 -16.49,1.41 -11.31,8.05l16.11 22.63zm-56.37 -79.21c6.07,7.8 16.49,-1.41 11.31,-8.05l-16.11 -22.63c-6.07,-7.8 -16.49,1.41 -11.31,8.05l16.11 22.63zm-56.37 -79.21c6.07,7.8 16.49,-1.41 11.31,-8.05l-16.11 -22.63c-6.07,-7.8 -16.49,1.41 -11.31,8.05l16.11 22.63zm-112.73 -158.42c6.07,7.8 16.49,-1.41 11.31,-8.05l-16.11 -22.63c-6.07,-7.8 -16.49,1.41 -11.31,8.05l16.11 22.63zm-56.37 -79.21c6.07,7.8 16.49,-1.41 11.31,-8.05l-16.11 -22.63c-6.07,-7.8 -16.49,1.41 -11.31,8.05l16.11 22.63zm-56.37 -79.21c6.07,7.8 16.49,-1.41 11.31,-8.05l-16.11 -22.63c-6.07,-7.8 -16.49,1.41 -11.31,8.05l16.11 22.63zm-56.37 -79.21c6.07,7.8 16.49,-1.41 11.31,-8.05l-16.11 -22.63c-6.07,-7.8 -16.49,1.41 -11.31,8.05l16.11 22.63zm-56.37 -79.21c6.07,7.8 16.49,-1.41 11.31,-8.05l-16.11 -22.63c-6.07,-7.8 -16.49,1.41 -11.31,8.05l16.11 22.63zm-56.37 -79.21c6.07,7.8 16.49,-1.41 11.31,-8.05l-16.1 -22.63c-6.07,-7.8 -16.49,1.41 -11.31,8.05l16.1 22.63zm-56.36 -79.21c6.07,7.8 16.49,-1.41 11.31,-8.05l-16.1 -22.63c-6.07,-7.8 -16.49,1.41 -11.31,8.05l16.1 22.63zm-157.79 12.01c5.17,-6.65 -5.24,-15.86 -11.31,-8.05l-16.11 22.63c-5.17,6.65 5.24,15.86 11.31,8.05l16.11 -22.63zm-56.37 79.21c5.17,-6.65 -5.24,-15.86 -11.31,-8.05l-16.11 22.63c-5.17,6.65 5.24,15.86 11.31,8.05l16.11 -22.63zm-56.37 79.21c5.17,-6.65 -5.24,-15.86 -11.31,-8.05l-16.11 22.63c-5.17,6.65 5.24,15.86 11.31,8.05l16.11 -22.63zm-56.37 79.21c5.17,-6.65 -5.24,-15.86 -11.31,-8.05l-16.11 22.63c-5.17,6.65 5.24,15.86 11.31,8.05l16.11 -22.63zm-56.37 79.21c5.17,-6.65 -5.24,-15.86 -11.31,-8.05l-16.11 22.63c-5.17,6.65 5.24,15.86 11.31,8.05l16.11 -22.63zm-56.37 79.21c5.17,-6.65 -5.24,-15.86 -11.31,-8.05l-16.11 22.63c-5.17,6.65 5.24,15.86 11.31,8.05l16.11 -22.63zm-56.37 79.21c5.17,-6.65 -5.24,-15.86 -11.31,-8.05l-16.11 22.63c-5.17,6.65 5.24,15.86 11.31,8.05l16.11 -22.63zm-56.37 79.21c5.17,-6.65 -5.24,-15.86 -11.31,-8.05l-16.11 22.63c-5.17,6.65 5.24,15.86 11.31,8.05l16.11 -22.63zm-56.37 79.21c5.17,-6.65 -5.24,-15.86 -11.31,-8.05l-16.11 22.63c-5.17,6.65 5.24,15.86 11.31,8.05l16.11 -22.63zm-56.37 79.21c5.17,-6.65 -5.24,-15.86 -11.31,-8.05l-16.11 22.63c-5.17,6.65 5.24,15.86 11.31,8.05l16.11 -22.63zm-56.37 79.21c5.17,-6.65 -5.24,-15.86 -11.31,-8.05l-16.11 22.63c-5.17,6.65 5.24,15.86 11.31,8.05l16.11 -22.63zm-56.37 79.21c5.17,-6.65 -5.24,-15.86 -11.31,-8.05l-16.11 22.63c-5.17,6.65 5.24,15.86 11.31,8.05l16.11 -22.63zm-56.37 79.21c5.17,-6.65 -5.24,-15.86 -11.31,-8.05l-16.11 22.63c-5.17,6.65 5.24,15.86 11.31,8.05l16.11 -22.63zm-56.37 79.21c5.17,-6.65 -5.24,-15.86 -11.31,-8.05l-16.11 22.63c-5.17,6.65 5.24,15.86 11.31,8.05l16.11 -22.63zm-56.37 79.21c5.17,-6.65 -5.24,-15.86 -11.31,-8.05l-16.11 22.63c-5.17,6.65 5.24,15.86 11.31,8.05l16.11 -22.63zm-56.37 79.21c5.17,-6.65 -5.24,-15.86 -11.31,-8.05l-16.11 22.63c-5.17,6.65 5.24,15.86 11.31,8.05l16.11 -22.63zm-56.37 79.21c5.17,-6.65 -5.24,-15.86 -11.31,-8.05l-16.1 22.63c-5.17,6.65 5.24,15.86 11.31,8.05l16.1 -22.63zm-56.36 79.21c5.17,-6.65 -5.24,-15.86 -11.31,-8.05l-16.1 22.63c-5.17,6.65 5.24,15.86 11.31,8.05l16.1 -22.63zm-56.36 79.21c5.17,-6.65 -5.24,-15.86 -11.31,-8.05l-14.03 19.72 -17.55 0c-9.14,0 -9.14,13.89 0,13.89l20.35 0c0.59,0.09 1.21,0.09 1.82,0l5.6 0c6.81,0 8.55,-7.7 5.21,-11.64l9.9 -13.91zm23.72 -1561.62c-9.14,0 -9.14,13.89 0,13.89l27.78 0c9.14,0 9.14,-13.89 0,-13.89l-27.78 0zm97.22 0c-9.14,0 -9.14,13.89 0,13.89l27.78 0c9.14,0 9.14,-13.89 0,-13.89l-27.78 0zm97.22 0c-9.14,0 -9.14,13.89 0,13.89l27.78 0c9.14,0 9.14,-13.89 0,-13.89l-27.78 0zm97.23 13.89l27.77 0c9.14,0 9.14,-13.89 0,-13.89l-20.83 0 3.35 -6.7c4.09,-8.19 -8.33,-14.4 -12.42,-6.21l-12.42 24.84c-4.09,8.19 8.33,14.4 12.42,6.21l2.13 -4.25zm97.21 -13.89c-9.14,0 -9.14,13.89 0,13.89l27.78 0c9.14,0 9.14,-13.89 0,-13.89l-27.78 0zm97.22 0c-9.14,0 -9.14,13.89 0,13.89l27.78 0c6.4,0 8.32,-6.81 5.76,-10.89 2.4,0.12 4.85,-0.98 6.28,-3.83l12.42 -24.84c4.09,-8.19 -8.33,-14.4 -12.42,-6.21l-12.42 24.84c-1.36,2.72 -0.89,5.23 0.48,7.05l-0.09 -0 -27.78 0zm97.22 0c-9.14,0 -9.14,13.89 0,13.89l27.78 0c9.14,0 9.14,-13.89 0,-13.89l-27.78 0zm97.22 0c-9.14,0 -9.14,13.89 0,13.89l27.78 0c9.14,0 9.14,-13.89 0,-13.89l-27.78 0zm97.22 0c-9.14,0 -9.14,13.89 0,13.89l27.78 0c9.14,0 9.14,-13.89 0,-13.89l-27.78 0zm97.22 0c-9.14,0 -9.14,13.89 0,13.89l27.78 0c9.14,0 9.14,-13.89 0,-13.89l-27.78 0zm291.66 0c-9.14,0 -9.14,13.89 0,13.89l27.78 0c9.14,0 9.14,-13.89 0,-13.89l-27.78 0zm97.22 0c-9.14,0 -9.14,13.89 0,13.89l27.78 0c9.14,0 9.14,-13.89 0,-13.89l-27.78 0zm97.22 0c-9.14,0 -9.14,13.89 0,13.89l27.78 0c9.14,0 9.14,-13.89 0,-13.89l-27.78 0zm97.22 0c-9.14,0 -9.14,13.89 0,13.89l27.78 0c9.14,0 9.14,-13.89 0,-13.89l-27.78 0zm97.22 0c-9.14,0 -9.14,13.89 0,13.89l27.78 0c9.14,0 9.14,-13.89 0,-13.89l-27.78 0zm97.22 0c-9.14,0 -9.14,13.89 0,13.89l27.78 0c9.14,0 9.14,-13.89 0,-13.89l-27.78 0zm97.22 0c-9.14,0 -9.14,13.89 0,13.89l27.78 0c9.14,0 9.14,-13.89 0,-13.89l-27.78 0zm194.44 0c-9.14,0 -9.14,13.89 0,13.89l27.78 0c9.14,0 9.14,-13.89 0,-13.89l-27.78 0zm97.22 0c-9.14,0 -9.14,13.89 0,13.89l27.78 0c9.14,0 9.14,-13.89 0,-13.89l-27.78 0zm97.22 0c-9.14,0 -9.14,13.89 0,13.89l27.78 0c9.14,0 9.14,-13.89 0,-13.89l-27.78 0zm24.41 -23.67c6.07,7.8 16.49,-1.41 11.31,-8.05l-16.11 -22.63c-6.07,-7.8 -16.49,1.41 -11.31,8.05l16.11 22.63zm-56.37 -79.21c6.07,7.8 16.49,-1.41 11.31,-8.05l-16.11 -22.63c-6.07,-7.8 -16.49,1.41 -11.31,8.05l16.11 22.63zm-56.37 -79.21c6.07,7.8 16.49,-1.41 11.31,-8.05l-16.11 -22.63c-6.07,-7.8 -16.49,1.41 -11.31,8.05l16.11 22.63zm-112.74 -158.43c6.07,7.8 16.49,-1.41 11.31,-8.05l-16.11 -22.63c-6.07,-7.8 -16.49,1.41 -11.31,8.05l16.11 22.63zm-56.37 -79.21c6.07,7.8 16.49,-1.41 11.31,-8.05l-16.11 -22.63c-6.07,-7.8 -16.49,1.41 -11.31,8.05l16.11 22.63zm-56.37 -79.21c6.07,7.8 16.49,-1.41 11.31,-8.05l-16.11 -22.63c-6.07,-7.8 -16.49,1.41 -11.31,8.05l16.11 22.63zm-56.37 -79.21c6.07,7.8 16.49,-1.41 11.31,-8.05l-16.11 -22.63c-6.07,-7.8 -16.49,1.41 -11.31,8.05l16.11 22.63zm-56.37 -79.21c6.07,7.8 16.49,-1.41 11.31,-8.05l-16.11 -22.63c-6.07,-7.8 -16.49,1.41 -11.31,8.05l16.11 22.63zm-56.37 -79.21c6.07,7.8 16.49,-1.41 11.31,-8.05l-16.11 -22.63c-6.07,-7.8 -16.49,1.41 -11.31,8.05l16.11 22.63zm-56.37 -79.21c6.07,7.8 16.49,-1.41 11.31,-8.05l-16.11 -22.63c-6.07,-7.8 -16.49,1.41 -11.31,8.05l16.11 22.63zm-56.37 -79.21c6.07,7.8 16.49,-1.41 11.31,-8.05l-16.11 -22.63c-6.07,-7.8 -16.49,1.41 -11.31,8.05l16.11 22.63zm-56.37 -79.21c6.07,7.8 16.49,-1.41 11.31,-8.05l-16.11 -22.63c-6.07,-7.8 -16.49,1.41 -11.31,8.05l16.11 22.63zm-56.37 -79.21c6.07,7.8 16.49,-1.41 11.31,-8.05l-16.11 -22.63c-6.07,-7.8 -16.49,1.41 -11.31,8.05l16.11 22.63zm-56.37 -79.21c6.07,7.8 16.49,-1.41 11.31,-8.05l-16.11 -22.63c-6.07,-7.8 -16.49,1.41 -11.31,8.05l16.11 22.63zm-56.37 -79.21c6.07,7.8 16.49,-1.41 11.31,-8.05l-16.11 -22.63c-6.07,-7.8 -16.49,1.41 -11.31,8.05l16.11 22.63zm-56.37 -79.21c6.07,7.8 16.49,-1.41 11.31,-8.05l-16.11 -22.63c-6.07,-7.8 -16.49,1.41 -11.31,8.05l16.11 22.63zm-56.37 -79.21c6.07,7.8 16.49,-1.41 11.31,-8.05l-16.1 -22.63c-6.07,-7.8 -16.49,1.41 -11.31,8.05l16.1 22.63zm-56.36 -79.21c6.07,7.8 16.49,-1.41 11.31,-8.05l-16.1 -22.63c-6.07,-7.8 -16.49,1.41 -11.31,8.05l16.1 22.63zm-56.36 -79.21c6.07,7.8 16.49,-1.41 11.31,-8.05l-16.1 -22.63c-1.2,-1.55 -2.58,-2.43 -3.97,-2.79 -0.64,-10.6 -9.01,-20.66 -23.77,8.85 -4.09,8.19 8.33,14.4 12.42,6.21l2.31 -4.63c0.46,0.28 0.76,0.46 1.26,0.67 0.25,0.1 0.51,0.18 0.78,0.24l15.75 22.14zm-45.06 12.01c5.17,-6.65 -5.24,-15.86 -11.31,-8.05l-16.11 22.63c-4.71,6.05 3.5,14.23 9.59,9.76 -0.25,0.35 -0.49,0.73 -0.7,1.15l-12.42 24.84c-4.09,8.19 8.33,14.4 12.42,6.21l12.42 -24.84c3.47,-6.94 -4.93,-12.46 -10.06,-8.99l0.06 -0.07 16.11 -22.63zm-56.37 79.21c5.17,-6.65 -5.24,-15.86 -11.31,-8.05l-16.11 22.63c-5.17,6.65 5.24,15.86 11.31,8.05l16.11 -22.63zm-56.37 79.21c5.17,-6.65 -5.24,-15.86 -11.31,-8.05l-16.11 22.63c-5.17,6.65 5.24,15.86 11.31,8.05l16.11 -22.63zm-56.37 79.21c5.17,-6.65 -5.24,-15.86 -11.31,-8.05l-16.11 22.63c-5.17,6.65 5.24,15.86 11.31,8.05l16.11 -22.63zm-56.37 79.21c5.17,-6.65 -5.24,-15.86 -11.31,-8.05l-16.11 22.63c-5.17,6.65 5.24,15.86 11.31,8.05l16.11 -22.63zm-56.37 79.21c5.17,-6.65 -5.24,-15.86 -11.31,-8.05l-16.11 22.63c-5.17,6.65 5.24,15.86 11.31,8.05l16.11 -22.63zm-56.37 79.21c5.17,-6.65 -5.24,-15.86 -11.31,-8.05l-16.11 22.63c-5.17,6.65 5.24,15.86 11.31,8.05l16.11 -22.63zm-56.37 79.21c5.17,-6.65 -5.24,-15.86 -11.31,-8.05l-16.11 22.63c-5.17,6.65 5.24,15.86 11.31,8.05l16.11 -22.63zm-56.37 79.21c5.17,-6.65 -5.24,-15.86 -11.31,-8.05l-16.11 22.63c-5.17,6.65 5.24,15.86 11.31,8.05l16.11 -22.63zm-56.37 79.21c5.17,-6.65 -5.24,-15.86 -11.31,-8.05l-16.11 22.63c-5.17,6.65 5.24,15.86 11.31,8.05l16.11 -22.63zm-69.22 73.33l-14.56 20.46c-5.17,6.65 5.24,15.86 11.31,8.05l10.28 -14.45 0.69 1.38c4.09,8.18 16.52,1.98 12.42,-6.21l-12.42 -24.84c-4.09,-8.18 -16.52,-1.98 -12.42,6.21l4.7 9.4zm-43.51 85.1c5.17,-6.65 -5.24,-15.86 -11.31,-8.05l-16.11 22.63c-5.17,6.65 5.24,15.86 11.31,8.05l16.11 -22.63zm-56.37 79.21c5.17,-6.65 -5.24,-15.86 -11.31,-8.05l-16.11 22.63c-5.17,6.65 5.24,15.86 11.31,8.05l16.11 -22.63zm-56.37 79.21c5.17,-6.65 -5.24,-15.86 -11.31,-8.05l-16.11 22.63c-5.17,6.65 5.24,15.86 11.31,8.05l16.11 -22.63zm-56.37 79.21c5.17,-6.65 -5.24,-15.86 -11.31,-8.05l-16.11 22.63c-5.17,6.65 5.24,15.86 11.31,8.05l16.11 -22.63zm-56.37 79.21c5.17,-6.65 -5.24,-15.86 -11.31,-8.05l-16.11 22.63c-5.17,6.65 5.24,15.86 11.31,8.05l16.11 -22.63zm-56.37 79.21c5.17,-6.65 -5.24,-15.86 -11.31,-8.05l-16.11 22.63c-5.17,6.65 5.24,15.86 11.31,8.05l16.11 -22.63zm-56.37 79.21c5.17,-6.65 -5.24,-15.86 -11.31,-8.05l-16.1 22.63c-5.17,6.65 5.24,15.86 11.31,8.05l16.1 -22.63zm-56.36 79.21c5.17,-6.65 -5.24,-15.86 -11.31,-8.05l-16.1 22.63c-5.17,6.65 5.24,15.86 11.31,8.05l16.1 -22.63zm-56.36 79.21c5.17,-6.65 -5.24,-15.86 -11.31,-8.05l-16.1 22.63c-5.17,6.65 5.24,15.86 11.31,8.05l16.1 -22.63zm904.62 1145.08l8.87 0c9.14,0 9.14,-13.89 0,-13.89l-8.87 0 -8.87 0 -10.03 0 -8.87 0 -8.87 0c-9.14,0 -9.14,13.89 0,13.89l8.87 0 8.87 0 10.03 0 8.87 0zm97.22 0l8.87 0c9.14,0 9.14,-13.89 0,-13.89l-8.87 0 -8.87 0 -10.03 0 -8.87 0 -8.87 0c-9.14,0 -9.14,13.89 0,13.89l8.87 0 8.87 0 10.03 0 8.87 0zm97.22 0l8.87 0c9.14,0 9.14,-13.89 0,-13.89l-8.87 0 -8.87 0 -10.03 0 -8.87 0 -8.87 0c-9.14,0 -9.14,13.89 0,13.89l8.87 0 8.87 0 10.03 0 8.87 0zm97.22 0l8.87 0c9.14,0 9.14,-13.89 0,-13.89l-8.87 0 -8.87 0 -10.03 0 -8.87 0 -8.87 0c-9.14,0 -9.14,13.89 0,13.89l8.87 0 8.87 0 10.03 0 8.87 0zm97.22 0l8.87 0c9.14,0 9.14,-13.89 0,-13.89l-8.87 0 -8.87 0 -10.03 0 -8.87 0 -8.87 0c-9.14,0 -9.14,13.89 0,13.89l8.87 0 8.87 0 10.03 0 8.87 0zm1694.98 -22.31c4.09,8.18 16.52,1.98 12.42,-6.21l-12.42 -24.85c-4.09,-8.18 -16.52,-1.98 -12.42,6.21l12.42 24.85zm-43.48 -86.97c4.09,8.18 16.52,1.98 12.42,-6.21l-12.42 -24.84c-4.09,-8.18 -16.52,-1.98 -12.42,6.21l12.42 24.84zm-43.48 -86.96c4.09,8.18 16.52,1.98 12.42,-6.21l-12.42 -24.84c-4.09,-8.18 -16.52,-1.98 -12.42,6.21l12.42 24.84zm-43.48 -86.96c4.09,8.18 16.52,1.98 12.42,-6.21l-12.42 -24.84c-4.09,-8.18 -16.52,-1.98 -12.42,6.21l12.42 24.84zm-43.48 -86.96c4.09,8.18 16.52,1.98 12.42,-6.21l-12.42 -24.84c-4.09,-8.18 -16.52,-1.98 -12.42,6.21l12.42 24.84zm-43.48 -86.96c4.09,8.18 16.52,1.98 12.42,-6.21l-12.42 -24.84c-4.09,-8.18 -16.52,-1.98 -12.42,6.21l12.42 24.84zm-43.48 -86.96c4.09,8.18 16.52,1.98 12.42,-6.21l-12.42 -24.84c-4.09,-8.18 -16.52,-1.98 -12.42,6.21l12.42 24.84zm-43.48 -86.96c4.09,8.18 16.52,1.98 12.42,-6.21l-12.42 -24.84c-4.09,-8.18 -16.52,-1.98 -12.42,6.21l12.42 24.84zm-43.48 -86.96c4.09,8.18 16.52,1.98 12.42,-6.21l-12.42 -24.84c-4.09,-8.18 -16.52,-1.98 -12.42,6.21l12.42 24.84zm-43.48 -86.96c4.09,8.18 16.52,1.98 12.42,-6.21l-12.42 -24.84c-4.09,-8.18 -16.52,-1.98 -12.42,6.21l12.42 24.84zm-43.48 -86.96c4.09,8.18 16.52,1.98 12.42,-6.21l-12.42 -24.84c-4.09,-8.18 -16.52,-1.98 -12.42,6.21l12.42 24.84zm-43.48 -86.96c4.09,8.18 16.52,1.98 12.42,-6.21l-12.42 -24.84c-4.09,-8.18 -16.52,-1.98 -12.42,6.21l12.42 24.84zm-43.48 -86.96c4.09,8.18 16.52,1.98 12.42,-6.21l-12.42 -24.84c-4.09,-8.18 -16.52,-1.98 -12.42,6.21l12.42 24.84zm-43.48 -86.96c4.09,8.18 16.52,1.98 12.42,-6.21l-12.42 -24.84c-4.09,-8.18 -16.52,-1.98 -12.42,6.21l12.42 24.84zm-43.48 -86.96c4.09,8.18 16.52,1.98 12.42,-6.21l-12.42 -24.84c-4.09,-8.18 -16.52,-1.98 -12.42,6.21l12.42 24.84zm-43.48 -86.96c4.09,8.18 16.52,1.98 12.42,-6.21l-12.42 -24.84c-4.09,-8.18 -16.52,-1.98 -12.42,6.21l12.42 24.84zm-43.48 -86.96c4.09,8.18 16.52,1.98 12.42,-6.21l-12.42 -24.84c-4.09,-8.18 -16.52,-1.98 -12.42,6.21l12.42 24.84zm-43.48 -86.95c4.09,8.18 16.52,1.98 12.42,-6.21l-12.42 -24.84c-4.09,-8.18 -16.52,-1.98 -12.42,6.21l12.42 24.84zm-43.48 -86.95c4.09,8.18 16.52,1.98 12.42,-6.21l-12.42 -24.84c-4.09,-8.18 -16.52,-1.98 -12.42,6.21l12.42 24.84zm-86.95 -173.91c4.09,8.18 16.52,1.98 12.42,-6.21l-12.42 -24.84c-4.09,-8.18 -16.52,-1.98 -12.42,6.21l12.42 24.84zm-43.48 -86.95c4.09,8.18 16.52,1.98 12.42,-6.21l-12.42 -24.84c-4.09,-8.18 -16.52,-1.98 -12.42,6.21l12.42 24.84zm-43.48 -86.95c4.09,8.18 16.52,1.98 12.42,-6.21l-12.42 -24.84c-4.09,-8.18 -16.52,-1.98 -12.42,6.21l12.42 24.84zm-43.47 -86.95c4.09,8.18 16.52,1.98 12.42,-6.21l-12.42 -24.84c-4.09,-8.18 -16.52,-1.98 -12.42,6.21l12.42 24.84zm-43.47 -86.95c4.09,8.18 16.52,1.98 12.42,-6.21l-12.42 -24.84c-4.09,-8.18 -16.52,-1.98 -12.42,6.21l12.42 24.84zm-43.47 -86.95c4.09,8.18 16.52,1.98 12.42,-6.21l-12.42 -24.84c-4.09,-8.18 -16.52,-1.98 -12.42,6.21l12.42 24.84zm-31.06 -6.37c4.09,-8.19 -8.33,-14.4 -12.42,-6.21l-12.42 24.84c-4.09,8.19 8.33,14.4 12.42,6.21l12.42 -24.84zm-43.48 86.96c4.09,-8.19 -8.33,-14.4 -12.42,-6.21l-12.42 24.84c-4.09,8.19 8.33,14.4 12.42,6.21l12.42 -24.84zm-43.48 86.96c4.09,-8.19 -8.33,-14.4 -12.42,-6.21l-12.42 24.84c-4.09,8.19 8.33,14.4 12.42,6.21l12.42 -24.84zm-43.48 86.96c4.09,-8.19 -8.33,-14.4 -12.42,-6.21l-12.42 24.84c-4.09,8.19 8.33,14.4 12.42,6.21l12.42 -24.84zm-43.48 86.96c4.09,-8.19 -8.33,-14.4 -12.42,-6.21l-12.42 24.84c-4.09,8.19 8.33,14.4 12.42,6.21l12.42 -24.84zm-43.48 86.96c4.09,-8.19 -8.33,-14.4 -12.42,-6.21l-12.42 24.84c-4.09,8.19 8.33,14.4 12.42,6.21l12.42 -24.84zm-43.48 86.96c4.09,-8.19 -8.33,-14.4 -12.42,-6.21l-12.42 24.84c-4.09,8.19 8.33,14.4 12.42,6.21l7.46 -14.92c0.13,0.53 0.33,1.06 0.6,1.61l12.42 24.84c4.09,8.18 16.52,1.98 12.42,-6.21l-12.42 -24.84c-2.03,-4.05 -6.09,-4.57 -9.19,-3.08l1.12 -2.24zm-43.48 86.96c4.09,-8.19 -8.33,-14.4 -12.42,-6.21l-12.42 24.84c-4.09,8.19 8.33,14.4 12.42,6.21l12.42 -24.84zm-43.48 86.96c4.09,-8.19 -8.33,-14.4 -12.42,-6.21l-12.42 24.84c-4.09,8.19 8.33,14.4 12.42,6.21l12.42 -24.84zm-43.48 86.96c4.09,-8.19 -8.33,-14.4 -12.42,-6.21l-12.42 24.84c-4.09,8.19 8.33,14.4 12.42,6.21l12.42 -24.84zm-43.48 86.96c4.09,-8.19 -8.33,-14.4 -12.42,-6.21l-12.42 24.84c-4.09,8.19 8.33,14.4 12.42,6.21l12.42 -24.84zm-43.48 86.96c4.09,-8.19 -8.33,-14.4 -12.42,-6.21l-12.42 24.84c-4.09,8.19 8.33,14.4 12.42,6.21l12.42 -24.84zm-43.48 86.96c4.09,-8.19 -8.33,-14.4 -12.42,-6.21l-12.42 24.84c-4.09,8.19 8.33,14.4 12.42,6.21l12.42 -24.84zm-43.48 86.96c4.09,-8.19 -8.33,-14.4 -12.42,-6.21l-12.42 24.84c-4.09,8.19 8.33,14.4 12.42,6.21l12.42 -24.84zm-43.48 86.96c4.09,-8.19 -8.33,-14.4 -12.42,-6.21l-12.42 24.84c-4.09,8.19 8.33,14.4 12.42,6.21l12.42 -24.84zm-43.48 86.96c4.09,-8.19 -8.33,-14.4 -12.42,-6.21l-12.42 24.84c-4.09,8.19 8.33,14.4 12.42,6.21l12.42 -24.84zm-43.48 86.96c4.09,-8.19 -8.33,-14.4 -12.42,-6.21l-12.42 24.84c-4.09,8.19 8.33,14.4 12.42,6.21l12.42 -24.84zm-43.48 86.95c4.09,-8.19 -8.33,-14.4 -12.42,-6.21l-12.42 24.84c-4.09,8.19 8.33,14.4 12.42,6.21l12.42 -24.84zm-43.48 86.95c4.09,-8.19 -8.33,-14.4 -12.42,-6.21l-12.42 24.84c-4.09,8.19 8.33,14.4 12.42,6.21l12.42 -24.84zm-43.48 86.95c4.09,-8.19 -8.33,-14.4 -12.42,-6.21l-12.42 24.84c-4.09,8.19 8.33,14.4 12.42,6.21l12.42 -24.84zm-43.48 86.95c4.09,-8.19 -8.33,-14.4 -12.42,-6.21l-12.42 24.84c-4.09,8.19 8.33,14.4 12.42,6.21l12.42 -24.84zm-43.48 86.95c4.09,-8.19 -8.33,-14.4 -12.42,-6.21l-12.42 24.84c-4.09,8.19 8.33,14.4 12.42,6.21l12.42 -24.84zm-43.47 86.95c4.09,-8.19 -8.33,-14.4 -12.42,-6.21l-12.42 24.84c-4.09,8.19 8.33,14.4 12.42,6.21l12.42 -24.84zm-43.47 86.95c4.09,-8.19 -8.33,-14.4 -12.42,-6.21l-12.42 24.84c-4.09,8.19 8.33,14.4 12.42,6.21l12.42 -24.84zm544.75 180.29c4.09,8.18 16.52,1.98 12.42,-6.21l-12.42 -24.85c-4.09,-8.18 -16.52,-1.98 -12.42,6.21l12.42 24.85zm-86.97 -173.92c4.09,8.18 16.52,1.98 12.42,-6.21l-12.42 -24.84c-4.09,-8.18 -16.52,-1.98 -12.42,6.21l12.42 24.84zm-43.48 -86.96c4.09,8.18 16.52,1.98 12.42,-6.21l-12.42 -24.84c-4.09,-8.18 -16.52,-1.98 -12.42,6.21l12.42 24.84zm-43.48 -86.96c4.09,8.18 16.52,1.98 12.42,-6.21l-12.42 -24.84c-4.09,-8.18 -16.52,-1.98 -12.42,6.21l12.42 24.84zm-43.48 -86.96c4.09,8.18 16.52,1.98 12.42,-6.21l-12.42 -24.84c-4.09,-8.18 -16.52,-1.98 -12.42,6.21l12.42 24.84zm-43.48 -86.96c4.09,8.18 16.52,1.98 12.42,-6.21l-12.42 -24.84c-4.09,-8.18 -16.52,-1.98 -12.42,6.21l12.42 24.84zm-43.48 -86.96c4.09,8.18 16.52,1.98 12.42,-6.21l-12.42 -24.84c-4.09,-8.18 -16.52,-1.98 -12.42,6.21l12.42 24.84zm-43.48 -86.96c4.09,8.18 16.52,1.98 12.42,-6.21l-12.42 -24.84c-4.09,-8.18 -16.52,-1.98 -12.42,6.21l12.42 24.84zm-43.48 -86.96c4.09,8.18 16.52,1.98 12.42,-6.21l-12.42 -24.84c-4.09,-8.18 -16.52,-1.98 -12.42,6.21l12.42 24.84zm-43.48 -86.96c4.09,8.18 16.52,1.98 12.42,-6.21l-12.42 -24.84c-4.09,-8.18 -16.52,-1.98 -12.42,6.21l12.42 24.84zm-43.48 -86.96c4.09,8.18 16.52,1.98 12.42,-6.21l-12.42 -24.84c-4.09,-8.18 -16.52,-1.98 -12.42,6.21l12.42 24.84zm-43.48 -86.96c4.09,8.18 16.52,1.98 12.42,-6.21l-12.42 -24.84c-4.09,-8.18 -16.52,-1.98 -12.42,6.21l12.42 24.84zm-43.48 -86.96c4.09,8.18 16.52,1.98 12.42,-6.21l-12.42 -24.84c-4.09,-8.18 -16.52,-1.98 -12.42,6.21l12.42 24.84zm-43.48 -86.96c4.09,8.18 16.52,1.98 12.42,-6.21l-12.42 -24.84c-4.09,-8.18 -16.52,-1.98 -12.42,6.21l12.42 24.84zm-43.48 -86.96c4.09,8.18 16.52,1.98 12.42,-6.21l-12.42 -24.84c-4.09,-8.18 -16.52,-1.98 -12.42,6.21l12.42 24.84zm-43.48 -86.96c4.09,8.18 16.52,1.98 12.42,-6.21l-12.42 -24.84c-4.09,-8.18 -16.52,-1.98 -12.42,6.21l12.42 24.84zm-43.48 -86.95c4.09,8.18 16.52,1.98 12.42,-6.21l-12.42 -24.84c-4.09,-8.18 -16.52,-1.98 -12.42,6.21l12.42 24.84zm-43.48 -86.95c4.09,8.18 16.52,1.98 12.42,-6.21l-12.42 -24.84c-4.09,-8.18 -16.52,-1.98 -12.42,6.21l12.42 24.84zm-43.48 -86.95c4.09,8.18 16.52,1.98 12.42,-6.21l-12.42 -24.84c-4.09,-8.18 -16.52,-1.98 -12.42,6.21l12.42 24.84zm-43.48 -86.95c4.09,8.18 16.52,1.98 12.42,-6.21l-12.42 -24.84c-4.09,-8.18 -16.52,-1.98 -12.42,6.21l12.42 24.84zm-86.95 -173.91c4.09,8.18 16.52,1.98 12.42,-6.21l-12.42 -24.84c-4.09,-8.18 -16.52,-1.98 -12.42,6.21l12.42 24.84zm-43.47 -86.95c4.09,8.18 16.52,1.98 12.42,-6.21l-12.42 -24.84c-4.09,-8.18 -16.52,-1.98 -12.42,6.21l12.42 24.84zm-43.47 -86.95c4.09,8.18 16.52,1.98 12.42,-6.21l-12.42 -24.84c-4.09,-8.18 -16.52,-1.98 -12.42,6.21l12.42 24.84zm-43.47 -86.95c4.09,8.18 16.52,1.98 12.42,-6.21l-12.42 -24.84c-4.09,-8.18 -16.52,-1.98 -12.42,6.21l12.42 24.84zm-31.06 -6.37c4.09,-8.19 -8.33,-14.4 -12.42,-6.21l-12.42 24.84c-4.09,8.19 8.33,14.4 12.42,6.21l12.42 -24.84zm-43.48 86.96c4.09,-8.19 -8.33,-14.4 -12.42,-6.21l-12.42 24.84c-4.09,8.19 8.33,14.4 12.42,6.21l12.42 -24.84zm-43.48 86.96c4.09,-8.19 -8.33,-14.4 -12.42,-6.21l-12.42 24.84c-4.09,8.19 8.33,14.4 12.42,6.21l12.42 -24.84zm-43.48 86.96c4.09,-8.19 -8.33,-14.4 -12.42,-6.21l-12.42 24.84c-4.09,8.19 8.33,14.4 12.42,6.21l12.42 -24.84zm-43.48 86.96c4.09,-8.19 -8.33,-14.4 -12.42,-6.21l-12.42 24.84c-4.09,8.19 8.33,14.4 12.42,6.21l12.42 -24.84zm-43.48 86.96c4.09,-8.19 -8.33,-14.4 -12.42,-6.21l-12.42 24.84c-4.09,8.19 8.33,14.4 12.42,6.21l12.42 -24.84zm-86.97 173.92c4.09,-8.19 -8.33,-14.4 -12.42,-6.21l-12.42 24.84c-4.09,8.19 8.33,14.4 12.42,6.21l12.42 -24.84zm-43.48 86.96c4.09,-8.19 -8.33,-14.4 -12.42,-6.21l-12.42 24.84c-4.09,8.19 8.33,14.4 12.42,6.21l12.42 -24.84zm-43.48 86.96c4.09,-8.19 -8.33,-14.4 -12.42,-6.21l-12.42 24.84c-4.09,8.19 8.33,14.4 12.42,6.21l12.42 -24.84zm-43.48 86.96c4.09,-8.19 -8.33,-14.4 -12.42,-6.21l-12.42 24.84c-4.09,8.19 8.33,14.4 12.42,6.21l12.42 -24.84zm-43.48 86.96c4.09,-8.19 -8.33,-14.4 -12.42,-6.21l-12.42 24.84c-4.09,8.19 8.33,14.4 12.42,6.21l12.42 -24.84zm-43.48 86.96c4.09,-8.19 -8.33,-14.4 -12.42,-6.21l-12.42 24.84c-4.09,8.19 8.33,14.4 12.42,6.21l12.42 -24.84zm-43.48 86.96c4.09,-8.19 -8.33,-14.4 -12.42,-6.21l-12.42 24.84c-4.09,8.19 8.33,14.4 12.42,6.21l12.42 -24.84zm-43.48 86.96c4.09,-8.19 -8.33,-14.4 -12.42,-6.21l-12.42 24.84c-4.09,8.19 8.33,14.4 12.42,6.21l12.42 -24.84zm-43.48 86.96c4.09,-8.19 -8.33,-14.4 -12.42,-6.21l-12.42 24.84c-4.09,8.19 8.33,14.4 12.42,6.21l12.42 -24.84zm-43.48 86.96c4.09,-8.19 -8.33,-14.4 -12.42,-6.21l-12.42 24.84c-4.09,8.19 8.33,14.4 12.42,6.21l12.42 -24.84zm-43.48 86.95c4.09,-8.19 -8.33,-14.4 -12.42,-6.21l-12.42 24.84c-4.09,8.19 8.33,14.4 12.42,6.21l12.42 -24.84zm-43.48 86.95c4.09,-8.19 -8.33,-14.4 -12.42,-6.21l-12.42 24.84c-4.09,8.19 8.33,14.4 12.42,6.21l12.42 -24.84zm-43.48 86.95c4.09,-8.19 -8.33,-14.4 -12.42,-6.21l-12.42 24.84c-4.09,8.19 8.33,14.4 12.42,6.21l12.42 -24.84zm-43.48 86.95c4.09,-8.19 -8.33,-14.4 -12.42,-6.21l-12.42 24.84c-4.09,8.19 8.33,14.4 12.42,6.21l12.42 -24.84zm-43.48 86.95c4.09,-8.19 -8.33,-14.4 -12.42,-6.21l-12.42 24.84c-4.09,8.19 8.33,14.4 12.42,6.21l12.42 -24.84zm-43.47 86.95c4.09,-8.19 -8.33,-14.4 -12.42,-6.21l-12.42 24.84c-4.09,8.19 8.33,14.4 12.42,6.21l12.42 -24.84zm-43.47 86.95c4.09,-8.19 -8.33,-14.4 -12.42,-6.21l-12.42 24.84c-4.09,8.19 8.33,14.4 12.42,6.21l12.42 -24.84zm-43.47 86.95c4.09,-8.19 -8.33,-14.4 -12.42,-6.21l-12.42 24.84c-4.09,8.19 8.33,14.4 12.42,6.21l12.42 -24.84zm-43.47 86.95c4.09,-8.19 -8.33,-14.4 -12.42,-6.21l-12.42 24.84c-4.09,8.19 8.33,14.4 12.42,6.21l12.42 -24.84zm2991.62 6.38c4.09,8.18 16.52,1.98 12.42,-6.21l-12.42 -24.85c-4.09,-8.18 -16.52,-1.98 -12.42,6.21l12.42 24.85zm-43.48 -86.97c4.09,8.18 16.52,1.98 12.42,-6.21l-12.42 -24.84c-4.09,-8.18 -16.52,-1.98 -12.42,6.21l12.42 24.84zm-43.48 -86.96c4.09,8.18 16.52,1.98 12.42,-6.21l-12.42 -24.84c-4.09,-8.18 -16.52,-1.98 -12.42,6.21l12.42 24.84zm-43.48 -86.96c4.09,8.18 16.52,1.98 12.42,-6.21l-12.42 -24.84c-4.09,-8.18 -16.52,-1.98 -12.42,6.21l12.42 24.84zm-86.97 -173.92c4.09,8.18 16.52,1.98 12.42,-6.21l-12.42 -24.84c-4.09,-8.18 -16.52,-1.98 -12.42,6.21l12.42 24.84zm-43.48 -86.96c4.09,8.18 16.52,1.98 12.42,-6.21l-12.42 -24.84c-4.09,-8.18 -16.52,-1.98 -12.42,6.21l12.42 24.84zm-43.48 -86.96c4.09,8.18 16.52,1.98 12.42,-6.21l-12.42 -24.84c-4.09,-8.18 -16.52,-1.98 -12.42,6.21l12.42 24.84zm-43.48 -86.96c4.09,8.18 16.52,1.98 12.42,-6.21l-12.42 -24.84c-4.09,-8.18 -16.52,-1.98 -12.42,6.21l12.42 24.84zm-43.48 -86.96c4.09,8.18 16.52,1.98 12.42,-6.21l-12.42 -24.84c-4.09,-8.18 -16.52,-1.98 -12.42,6.21l12.42 24.84zm-86.95 -173.92c4.09,8.18 16.52,1.98 12.42,-6.21l-12.42 -24.84c-4.09,-8.18 -16.52,-1.98 -12.42,6.21l12.42 24.84zm-43.48 -86.96c4.09,8.18 16.52,1.98 12.42,-6.21l-12.42 -24.84c-4.09,-8.18 -16.52,-1.98 -12.42,6.21l12.42 24.84zm-43.48 -86.96c4.09,8.18 16.52,1.98 12.42,-6.21l-12.42 -24.84c-4.09,-8.18 -16.52,-1.98 -12.42,6.21l12.42 24.84zm-43.48 -86.96c4.09,8.18 16.52,1.98 12.42,-6.21l-12.42 -24.84c-4.09,-8.18 -16.52,-1.98 -12.42,6.21l12.42 24.84zm-43.48 -86.96c4.09,8.18 16.52,1.98 12.42,-6.21l-12.42 -24.84c-4.09,-8.18 -16.52,-1.98 -12.42,6.21l12.42 24.84zm-43.48 -86.96c4.09,8.18 16.52,1.98 12.42,-6.21l-12.42 -24.84c-4.09,-8.18 -16.52,-1.98 -12.42,6.21l12.42 24.84zm-43.48 -86.95c4.09,8.18 16.52,1.98 12.42,-6.21l-12.42 -24.84c-4.09,-8.18 -16.52,-1.98 -12.42,6.21l12.42 24.84zm-43.48 -86.95c4.09,8.18 16.52,1.98 12.42,-6.21l-12.42 -24.84c-4.09,-8.18 -16.52,-1.98 -12.42,6.21l12.42 24.84zm-43.48 -86.95c4.09,8.18 16.52,1.98 12.42,-6.21l-12.42 -24.84c-4.09,-8.18 -16.52,-1.98 -12.42,6.21l12.42 24.84zm-43.48 -86.95c4.09,8.18 16.52,1.98 12.42,-6.21l-12.42 -24.84c-4.09,-8.18 -16.52,-1.98 -12.42,6.21l12.42 24.84zm-43.48 -86.95c4.09,8.18 16.52,1.98 12.42,-6.21l-12.42 -24.84c-4.09,-8.18 -16.52,-1.98 -12.42,6.21l12.42 24.84zm-43.48 -86.95c4.09,8.18 16.52,1.98 12.42,-6.21l-12.42 -24.84c-4.09,-8.18 -16.52,-1.98 -12.42,6.21l12.42 24.84zm-43.47 -86.95c4.09,8.18 16.52,1.98 12.42,-6.21l-12.42 -24.84c-4.09,-8.18 -16.52,-1.98 -12.42,6.21l12.42 24.84zm-43.47 -86.95c4.09,8.18 16.52,1.98 12.42,-6.21l-12.42 -24.84c-4.09,-8.18 -16.52,-1.98 -12.42,6.21l12.42 24.84zm-43.47 -86.95c4.09,8.18 16.52,1.98 12.42,-6.21l-12.42 -24.84c-4.09,-8.18 -16.52,-1.98 -12.42,6.21l12.42 24.84zm-31.06 -6.37c4.09,-8.19 -8.33,-14.4 -12.42,-6.21l-12.42 24.84c-4.09,8.19 8.33,14.4 12.42,6.21l12.42 -24.84zm-43.48 86.96c4.09,-8.19 -8.33,-14.4 -12.42,-6.21l-12.42 24.84c-4.09,8.19 8.33,14.4 12.42,6.21l12.42 -24.84zm-43.48 86.96c4.09,-8.19 -8.33,-14.4 -12.42,-6.21l-12.42 24.84c-4.09,8.19 8.33,14.4 12.42,6.21l12.42 -24.84zm-43.48 86.96c4.09,-8.19 -8.33,-14.4 -12.42,-6.21l-12.42 24.84c-4.09,8.19 8.33,14.4 12.42,6.21l12.42 -24.84zm-43.48 86.96c4.09,-8.19 -8.33,-14.4 -12.42,-6.21l-12.42 24.84c-4.09,8.19 8.33,14.4 12.42,6.21l12.42 -24.84zm-43.48 86.96c4.09,-8.19 -8.33,-14.4 -12.42,-6.21l-12.42 24.84c-4.09,8.19 8.33,14.4 12.42,6.21l12.42 -24.84zm-43.48 86.96c4.09,-8.19 -8.33,-14.4 -12.42,-6.21l-12.42 24.84c-4.09,8.19 8.33,14.4 12.42,6.21l12.42 -24.84zm-43.48 86.96c4.09,-8.19 -8.33,-14.4 -12.42,-6.21l-12.42 24.84c-4.09,8.19 8.33,14.4 12.42,6.21l12.42 -24.84zm-43.48 86.96c4.09,-8.19 -8.33,-14.4 -12.42,-6.21l-12.42 24.84c-4.09,8.19 8.33,14.4 12.42,6.21l12.42 -24.84zm-43.48 86.96c4.09,-8.19 -8.33,-14.4 -12.42,-6.21l-12.42 24.84c-4.09,8.19 8.33,14.4 12.42,6.21l12.42 -24.84zm-43.48 86.96c4.09,-8.19 -8.33,-14.4 -12.42,-6.21l-12.42 24.84c-4.09,8.19 8.33,14.4 12.42,6.21l12.42 -24.84zm-43.48 86.96c4.09,-8.19 -8.33,-14.4 -12.42,-6.21l-12.42 24.84c-4.09,8.19 8.33,14.4 12.42,6.21l12.42 -24.84zm-86.95 173.92c4.09,-8.19 -8.33,-14.4 -12.42,-6.21l-12.42 24.84c-4.09,8.19 8.33,14.4 12.42,6.21l12.42 -24.84zm-43.48 86.96c4.09,-8.19 -8.33,-14.4 -12.42,-6.21l-12.42 24.84c-4.09,8.19 8.33,14.4 12.42,6.21l12.42 -24.84zm-86.95 173.92c4.09,-8.19 -8.33,-14.4 -12.42,-6.21l-12.42 24.84c-4.09,8.19 8.33,14.4 12.42,6.21l12.42 -24.84zm-43.48 86.95c4.09,-8.19 -8.33,-14.4 -12.42,-6.21l-12.42 24.84c-4.09,8.19 8.33,14.4 12.42,6.21l12.42 -24.84zm-43.48 86.95c4.09,-8.19 -8.33,-14.4 -12.42,-6.21l-12.42 24.84c-4.09,8.19 8.33,14.4 12.42,6.21l12.42 -24.84zm-43.48 86.95c4.09,-8.19 -8.33,-14.4 -12.42,-6.21l-12.42 24.84c-4.09,8.19 8.33,14.4 12.42,6.21l12.42 -24.84zm-43.48 86.95c4.09,-8.19 -8.33,-14.4 -12.42,-6.21l-12.42 24.84c-4.09,8.19 8.33,14.4 12.42,6.21l12.42 -24.84zm-86.95 173.91c4.09,-8.19 -8.33,-14.4 -12.42,-6.21l-12.42 24.84c-4.09,8.19 8.33,14.4 12.42,6.21l12.42 -24.84zm-43.47 86.95c4.09,-8.19 -8.33,-14.4 -12.42,-6.21l-12.42 24.84c-4.09,8.19 8.33,14.4 12.42,6.21l12.42 -24.84zm-43.47 86.95c4.09,-8.19 -8.33,-14.4 -12.42,-6.21l-12.42 24.84c-4.09,8.19 8.33,14.4 12.42,6.21l12.42 -24.84zm-374.9 555.5c-9.14,0 -9.14,13.89 0,13.89l27.78 0c9.14,0 9.14,-13.89 0,-13.89l-27.78 0zm97.22 0c-9.14,0 -9.14,13.89 0,13.89l27.78 0c9.14,0 9.14,-13.89 0,-13.89l-27.78 0zm97.22 0c-9.14,0 -9.14,13.89 0,13.89l27.78 0c9.14,0 9.14,-13.89 0,-13.89l-27.78 0zm2430.52 0c-9.14,0 -9.14,13.89 0,13.89l27.78 0c9.14,0 9.14,-13.89 0,-13.89l-27.78 0zm97.22 0c-9.14,0 -9.14,13.89 0,13.89l27.78 0c9.14,0 9.14,-13.89 0,-13.89l-27.78 0zm97.22 0c-9.14,0 -9.14,13.89 0,13.89l27.78 0c9.14,0 9.14,-13.89 0,-13.89l-27.78 0zm97.22 0c-9.14,0 -9.14,13.89 0,13.89l27.78 0c9.14,0 9.14,-13.89 0,-13.89l-27.78 0zm79.07 2.67c4.09,8.18 16.52,1.98 12.42,-6.21l-12.42 -24.85c-4.09,-8.18 -16.52,-1.98 -12.42,6.21l12.42 24.85zm-43.48 -86.97c4.09,8.18 16.52,1.98 12.42,-6.21l-12.42 -24.84c-4.09,-8.18 -16.52,-1.98 -12.42,6.21l12.42 24.84zm-43.48 -86.96c4.09,8.18 16.52,1.98 12.42,-6.21l-12.42 -24.84c-4.09,-8.18 -16.52,-1.98 -12.42,6.21l12.42 24.84zm-43.48 -86.96c4.09,8.18 16.52,1.98 12.42,-6.21l-12.42 -24.84c-4.09,-8.18 -16.52,-1.98 -12.42,6.21l12.42 24.84zm-43.48 -86.96c4.09,8.18 16.52,1.98 12.42,-6.21l-12.42 -24.84c-4.09,-8.18 -16.52,-1.98 -12.42,6.21l12.42 24.84zm-86.97 -173.92c4.09,8.18 16.52,1.98 12.42,-6.21l-12.42 -24.84c-4.09,-8.18 -16.52,-1.98 -12.42,6.21l12.42 24.84zm-43.48 -86.96c4.09,8.18 16.52,1.98 12.42,-6.21l-12.42 -24.84c-4.09,-8.18 -16.52,-1.98 -12.42,6.21l12.42 24.84zm-43.48 -86.96c4.09,8.18 16.52,1.98 12.42,-6.21l-12.42 -24.84c-4.09,-8.18 -16.52,-1.98 -12.42,6.21l12.42 24.84zm-43.48 -86.96c4.09,8.18 16.52,1.98 12.42,-6.21l-12.42 -24.84c-4.09,-8.18 -16.52,-1.98 -12.42,6.21l12.42 24.84zm-43.48 -86.96c4.09,8.18 16.52,1.98 12.42,-6.21l-12.42 -24.84c-4.09,-8.18 -16.52,-1.98 -12.42,6.21l12.42 24.84zm-43.48 -86.96c4.09,8.18 16.52,1.98 12.42,-6.21l-12.42 -24.84c-4.09,-8.18 -16.52,-1.98 -12.42,6.21l12.42 24.84zm-43.48 -86.96c4.09,8.18 16.52,1.98 12.42,-6.21l-12.42 -24.84c-4.09,-8.18 -16.52,-1.98 -12.42,6.21l12.42 24.84zm-43.48 -86.96c4.09,8.18 16.52,1.98 12.42,-6.21l-12.42 -24.84c-4.09,-8.18 -16.52,-1.98 -12.42,6.21l12.42 24.84zm-43.48 -86.96c4.09,8.18 16.52,1.98 12.42,-6.21l-12.42 -24.84c-4.09,-8.18 -16.52,-1.98 -12.42,6.21l12.42 24.84zm-43.48 -86.96c4.09,8.18 16.52,1.98 12.42,-6.21l-12.42 -24.84c-4.09,-8.18 -16.52,-1.98 -12.42,6.21l12.42 24.84zm-43.48 -86.96c4.09,8.18 16.52,1.98 12.42,-6.21l-12.42 -24.84c-4.09,-8.18 -16.52,-1.98 -12.42,6.21l12.42 24.84zm-43.48 -86.96c4.09,8.18 16.52,1.98 12.42,-6.21l-12.42 -24.84c-4.09,-8.18 -16.52,-1.98 -12.42,6.21l12.42 24.84zm-86.95 -173.92c4.09,8.18 16.52,1.98 12.42,-6.21l-12.42 -24.84c-4.09,-8.18 -16.52,-1.98 -12.42,6.21l12.42 24.84zm-43.48 -86.96c4.09,8.18 16.52,1.98 12.42,-6.21l-12.42 -24.84c-4.09,-8.18 -16.52,-1.98 -12.42,6.21l12.42 24.84zm-43.48 -86.96c4.09,8.18 16.52,1.98 12.42,-6.21l-12.42 -24.84c-4.09,-8.18 -16.52,-1.98 -12.42,6.21l12.42 24.84zm-43.48 -86.96c4.09,8.18 16.52,1.98 12.42,-6.21l-12.42 -24.84c-4.09,-8.18 -16.52,-1.98 -12.42,6.21l12.42 24.84zm-43.48 -86.96c4.09,8.18 16.52,1.98 12.42,-6.21l-12.42 -24.84c-4.09,-8.18 -16.52,-1.98 -12.42,6.21l12.42 24.84zm-86.95 -173.91c4.09,8.18 16.52,1.98 12.42,-6.21l-12.42 -24.84c-4.09,-8.18 -16.52,-1.98 -12.42,6.21l12.42 24.84zm-43.48 -86.95c4.09,8.18 16.52,1.98 12.42,-6.21l-12.42 -24.84c-4.09,-8.18 -16.52,-1.98 -12.42,6.21l12.42 24.84zm-43.48 -86.95c4.09,8.18 16.52,1.98 12.42,-6.21l-12.42 -24.84c-4.09,-8.18 -16.52,-1.98 -12.42,6.21l12.42 24.84zm-43.48 -86.95c4.09,8.18 16.52,1.98 12.42,-6.21l-12.42 -24.84c-4.09,-8.18 -16.52,-1.98 -12.42,6.21l12.42 24.84zm-43.48 -86.95c4.09,8.18 16.52,1.98 12.42,-6.21l-12.42 -24.84c-4.09,-8.18 -16.52,-1.98 -12.42,6.21l12.42 24.84zm-43.48 -86.95c4.09,8.18 16.52,1.98 12.42,-6.21l-12.42 -24.84c-4.09,-8.18 -16.52,-1.98 -12.42,6.21l12.42 24.84zm-43.48 -86.95c4.09,8.18 16.52,1.98 12.42,-6.21l-12.42 -24.84c-4.09,-8.18 -16.52,-1.98 -12.42,6.21l12.42 24.84zm-43.47 -86.95c4.09,8.18 16.52,1.98 12.42,-6.21l-12.42 -24.84c-4.09,-8.18 -16.52,-1.98 -12.42,6.21l12.42 24.84zm-43.47 -86.95c4.09,8.18 16.52,1.98 12.42,-6.21l-12.42 -24.84c-4.09,-8.18 -16.52,-1.98 -12.42,6.21l12.42 24.84zm-43.47 -86.95c4.09,8.18 16.52,1.98 12.42,-6.21l-12.42 -24.84c-4.09,-8.18 -16.52,-1.98 -12.42,6.21l12.42 24.84zm-43.47 -86.95c4.09,8.18 16.52,1.98 12.42,-6.21l-12.42 -24.84c-4.09,-8.18 -16.52,-1.98 -12.42,6.21l12.42 24.84zm-118.02 69.51c4.09,-8.19 -8.33,-14.4 -12.42,-6.21l-12.42 24.84c-4.09,8.19 8.33,14.4 12.42,6.21l12.42 -24.84zm-43.48 86.96c4.09,-8.19 -8.33,-14.4 -12.42,-6.21l-12.42 24.84c-4.09,8.19 8.33,14.4 12.42,6.21l12.42 -24.84zm-43.48 86.96c4.09,-8.19 -8.33,-14.4 -12.42,-6.21l-12.42 24.84c-4.09,8.19 8.33,14.4 12.42,6.21l12.42 -24.84zm-43.48 86.96c4.09,-8.19 -8.33,-14.4 -12.42,-6.21l-12.42 24.84c-4.09,8.19 8.33,14.4 12.42,6.21l12.42 -24.84zm-43.48 86.96c4.09,-8.19 -8.33,-14.4 -12.42,-6.21l-12.42 24.84c-4.09,8.19 8.33,14.4 12.42,6.21l12.42 -24.84zm-43.48 86.96c4.09,-8.19 -8.33,-14.4 -12.42,-6.21l-12.42 24.84c-4.09,8.19 8.33,14.4 12.42,6.21l12.42 -24.84zm-43.48 86.96c4.09,-8.19 -8.33,-14.4 -12.42,-6.21l-12.42 24.84c-4.09,8.19 8.33,14.4 12.42,6.21l12.42 -24.84zm-43.48 86.96c4.09,-8.19 -8.33,-14.4 -12.42,-6.21l-12.42 24.84c-4.09,8.19 8.33,14.4 12.42,6.21l12.42 -24.84zm-43.48 86.96c4.09,-8.19 -8.33,-14.4 -12.42,-6.21l-12.42 24.84c-4.09,8.19 8.33,14.4 12.42,6.21l12.42 -24.84zm-43.48 86.96c4.09,-8.19 -8.33,-14.4 -12.42,-6.21l-12.42 24.84c-4.09,8.19 8.33,14.4 12.42,6.21l12.42 -24.84zm-43.48 86.96c4.09,-8.19 -8.33,-14.4 -12.42,-6.21l-12.42 24.84c-4.09,8.19 8.33,14.4 12.42,6.21l12.42 -24.84zm-43.48 86.96c4.09,-8.19 -8.33,-14.4 -12.42,-6.21l-12.42 24.84c-4.09,8.19 8.33,14.4 12.42,6.21l12.42 -24.84zm-43.48 86.96c4.09,-8.19 -8.33,-14.4 -12.42,-6.21l-12.42 24.84c-4.09,8.19 8.33,14.4 12.42,6.21l12.42 -24.84zm-43.48 86.96c4.09,-8.19 -8.33,-14.4 -12.42,-6.21l-12.42 24.84c-4.09,8.19 8.33,14.4 12.42,6.21l12.42 -24.84zm-43.48 86.96c4.09,-8.19 -8.33,-14.4 -12.42,-6.21l-12.42 24.84c-4.09,8.19 8.33,14.4 12.42,6.21l12.42 -24.84zm-43.48 86.96c4.09,-8.19 -8.33,-14.4 -12.42,-6.21l-12.42 24.84c-4.09,8.19 8.33,14.4 12.42,6.21l12.42 -24.84zm-86.95 173.92c4.09,-8.19 -8.33,-14.4 -12.42,-6.21l-12.42 24.84c-4.09,8.19 8.33,14.4 12.42,6.21l12.42 -24.84zm-43.48 86.96c4.09,-8.19 -8.33,-14.4 -12.42,-6.21l-12.42 24.84c-4.09,8.19 8.33,14.4 12.42,6.21l12.42 -24.84zm-43.48 86.96c4.09,-8.19 -8.33,-14.4 -12.42,-6.21l-12.42 24.84c-4.09,8.19 8.33,14.4 12.42,6.21l12.42 -24.84zm-43.48 86.96c4.09,-8.19 -8.33,-14.4 -12.42,-6.21l-12.42 24.84c-4.09,8.19 8.33,14.4 12.42,6.21l12.42 -24.84zm-43.48 86.96c4.09,-8.19 -8.33,-14.4 -12.42,-6.21l-12.42 24.84c-4.09,8.19 8.33,14.4 12.42,6.21l12.42 -24.84zm-86.95 173.91c4.09,-8.19 -8.33,-14.4 -12.42,-6.21l-12.42 24.84c-4.09,8.19 8.33,14.4 12.42,6.21l12.42 -24.84zm-43.48 86.95c4.09,-8.19 -8.33,-14.4 -12.42,-6.21l-12.42 24.84c-4.09,8.19 8.33,14.4 12.42,6.21l12.42 -24.84zm-43.48 86.95c4.09,-8.19 -8.33,-14.4 -12.42,-6.21l-12.42 24.84c-4.09,8.19 8.33,14.4 12.42,6.21l12.42 -24.84zm-43.48 86.95c4.09,-8.19 -8.33,-14.4 -12.42,-6.21l-12.42 24.84c-4.09,8.19 8.33,14.4 12.42,6.21l12.42 -24.84zm-43.48 86.95c4.09,-8.19 -8.33,-14.4 -12.42,-6.21l-12.42 24.84c-4.09,8.19 8.33,14.4 12.42,6.21l12.42 -24.84zm-43.48 86.95c4.09,-8.19 -8.33,-14.4 -12.42,-6.21l-12.42 24.84c-4.09,8.19 8.33,14.4 12.42,6.21l12.42 -24.84zm-86.95 173.91c4.09,-8.19 -8.33,-14.4 -12.42,-6.21l-12.42 24.84c-4.09,8.19 8.33,14.4 12.42,6.21l12.42 -24.84zm-43.47 86.95c4.09,-8.19 -8.33,-14.4 -12.42,-6.21l-12.42 24.84c-4.09,8.19 8.33,14.4 12.42,6.21l12.42 -24.84zm-43.47 86.95c4.09,-8.19 -8.33,-14.4 -12.42,-6.21l-12.42 24.84c-4.09,8.19 8.33,14.4 12.42,6.21l12.42 -24.84zm-43.47 86.95c4.09,-8.19 -8.33,-14.4 -12.42,-6.21l-12.42 24.84c-4.09,8.19 8.33,14.4 12.42,6.21l12.42 -24.84zm-43.47 86.95c4.09,-8.19 -8.33,-14.4 -12.42,-6.21l-12.42 24.84c-4.09,8.19 8.33,14.4 12.42,6.21l12.42 -24.84z"/>
  <path class="fil1" d="M2705 1493.36c47.86,0 86.66,38.8 86.66,86.66 0,47.86 -38.8,86.66 -86.66,86.66 -47.86,0 -86.66,-38.8 -86.66,-86.66 0,-47.86 38.8,-86.66 86.66,-86.66z"/>
 </g>
</svg>
