<?xml version="1.0" encoding="UTF-8"?>
<!DOCTYPE svg PUBLIC "-//W3C//DTD SVG 1.1//EN" "http://www.w3.org/Graphics/SVG/1.1/DTD/svg11.dtd">
<!-- Creator: CorelDRAW 2021 (64-Bit) -->
<svg xmlns="http://www.w3.org/2000/svg" xml:space="preserve" width="5.39993in" height="3.16227in" version="1.1" style="shape-rendering:geometricPrecision; text-rendering:geometricPrecision; image-rendering:optimizeQuality; fill-rule:evenodd; clip-rule:evenodd"
viewBox="0 0 5399.51 3162.03"
 xmlns:xlink="http://www.w3.org/1999/xlink"
 xmlns:xodm="http://www.corel.com/coreldraw/odm/2003">
 <defs>
  <style type="text/css">
   <![CDATA[
    .fil1 {fill:#5CE05C}
    .fil0 {fill:black;fill-rule:nonzero}
   ]]>
  </style>
 </defs>
 <g id="Layer_x0020_1">
  <metadata id="CorelCorpID_0Corel-Layer"/>
  <path class="fil0" d="M1133.42 24.2c0,-9.14 -13.89,-9.14 -13.89,0l0 27.78c0,9.14 13.89,9.14 13.89,0l0 -27.78zm1566.34 1471.89c46.62,0 84.41,37.79 84.41,84.41 0,46.62 -37.79,84.41 -84.41,84.41 -46.62,0 -84.41,-37.79 -84.41,-84.41 0,-46.62 37.79,-84.41 84.41,-84.41zm-1112.59 98.09c-0.04,-1.78 -0.56,-3.31 -1.52,-4.48 0.26,-0.3 0.49,-0.64 0.68,-1 7.16,0.27 15.09,-1.22 17.49,-1.27l0.11 0 4.06 0c9.14,0 9.14,-13.89 0,-13.89l-4.06 0 -16.77 0 0 -16.09c0,-9.14 -13.89,-9.14 -13.89,0l0 23.04 0 4.74c0,1.96 0.64,3.51 1.65,4.63 -6.25,7.66 -1.65,30.1 -1.65,32.1 0,9.14 13.89,9.14 13.89,0l0 -27.78zm2225.17 -6.74l0 17.85c0,0.94 0.15,1.78 0.41,2.52 -0.26,0.74 -0.41,1.58 -0.41,2.52l0 27.78c0,9.14 13.89,9.14 13.89,0l0 -27.78c0,-0.94 -0.15,-1.78 -0.41,-2.52 0.26,-0.74 0.41,-1.58 0.41,-2.52l0 -23.43c2.38,-6.99 0,-18.57 0,-22.1 0,-9.14 -13.89,-9.14 -13.89,0l0 13.79 -0.1 0c-9.14,0 -9.14,13.89 0,13.89l0.1 0zm-2225.17 103.96c0,-1.88 -0.59,-3.37 -1.52,-4.47 0.93,-1.11 1.52,-2.6 1.52,-4.48l0 -27.78c0,-9.14 -13.89,-9.14 -13.89,0l0 27.78c0,1.88 0.59,3.37 1.52,4.48 -0.93,1.11 -1.52,2.59 -1.52,4.47l0 27.78c0,9.14 13.89,9.14 13.89,0l0 -27.78zm0 97.22c0,-1.88 -0.59,-3.37 -1.52,-4.47 0.93,-1.11 1.52,-2.6 1.52,-4.48l0 -27.78c0,-9.14 -13.89,-9.14 -13.89,0l0 27.78c0,1.88 0.59,3.37 1.52,4.48 -0.93,1.11 -1.52,2.59 -1.52,4.47l0 27.78c0,9.14 13.89,9.14 13.89,0l0 -27.78zm0 97.22c0,-1.88 -0.59,-3.37 -1.52,-4.47 0.93,-1.11 1.52,-2.6 1.52,-4.48l0 -27.78c0,-9.14 -13.89,-9.14 -13.89,0l0 27.78c0,1.88 0.59,3.37 1.52,4.48 -0.93,1.11 -1.52,2.59 -1.52,4.47l0 27.78c0,9.14 13.89,9.14 13.89,0l0 -27.78zm0 97.22c0,-1.88 -0.59,-3.37 -1.52,-4.47 0.93,-1.11 1.52,-2.6 1.52,-4.48l0 -27.78c0,-9.14 -13.89,-9.14 -13.89,0l0 27.78c0,1.88 0.59,3.37 1.52,4.48 -0.93,1.11 -1.52,2.59 -1.52,4.47l0 27.78c0,9.14 13.89,9.14 13.89,0l0 -27.78zm0 97.22c0,-1.88 -0.59,-3.37 -1.52,-4.47 0.93,-1.11 1.52,-2.6 1.52,-4.48l0 -27.78c0,-9.14 -13.89,-9.14 -13.89,0l0 27.78c0,1.88 0.59,3.37 1.52,4.48 -0.93,1.11 -1.52,2.59 -1.52,4.47l0 27.78c0,9.14 13.89,9.14 13.89,0l0 -27.78zm0 97.22c0,-1.88 -0.59,-3.37 -1.52,-4.47 0.93,-1.11 1.52,-2.6 1.52,-4.48l0 -27.78c0,-9.14 -13.89,-9.14 -13.89,0l0 27.78c0,1.88 0.59,3.37 1.52,4.48 -0.93,1.11 -1.52,2.59 -1.52,4.47l0 27.78c0,9.14 13.89,9.14 13.89,0l0 -27.78zm0 97.22c0,-1.88 -0.59,-3.37 -1.52,-4.47 0.93,-1.11 1.52,-2.6 1.52,-4.48l0 -27.78c0,-9.14 -13.89,-9.14 -13.89,0l0 27.78c0,1.88 0.59,3.37 1.52,4.48 -0.93,1.11 -1.52,2.59 -1.52,4.47l0 27.78c0,9.14 13.89,9.14 13.89,0l0 -27.78zm0 97.22c0,-1.88 -0.59,-3.37 -1.52,-4.47 0.93,-1.11 1.52,-2.6 1.52,-4.48l0 -27.78c0,-9.14 -13.89,-9.14 -13.89,0l0 27.78c0,1.88 0.59,3.37 1.52,4.48 -0.93,1.11 -1.52,2.59 -1.52,4.47l0 27.78c0,9.14 13.89,9.14 13.89,0l0 -27.78zm0 97.22c0,-1.88 -0.59,-3.37 -1.52,-4.47 0.93,-1.11 1.52,-2.6 1.52,-4.48l0 -27.78c0,-9.14 -13.89,-9.14 -13.89,0l0 27.78c0,1.88 0.59,3.37 1.52,4.48 -0.93,1.11 -1.52,2.59 -1.52,4.47l0 27.78c0,9.14 13.89,9.14 13.89,0l0 -27.78zm0 97.22c0,-1.88 -0.59,-3.37 -1.52,-4.47 0.93,-1.11 1.52,-2.6 1.52,-4.48l0 -27.78c0,-9.14 -13.89,-9.14 -13.89,0l0 27.78c0,1.88 0.59,3.37 1.52,4.48 -0.93,1.11 -1.52,2.59 -1.52,4.47l0 27.78c0,9.14 13.89,9.14 13.89,0l0 -27.78zm0 97.22c0,-1.87 -0.59,-3.37 -1.52,-4.47 0.93,-1.11 1.52,-2.6 1.52,-4.47l0 -27.78c0,-9.14 -13.89,-9.14 -13.89,0l0 27.78c0,1.87 0.59,3.37 1.52,4.47 -0.93,1.11 -1.52,2.6 -1.52,4.47l0 27.78c0,9.14 13.89,9.14 13.89,0l0 -27.78zm0 97.22c0,-9.14 -13.89,-9.14 -13.89,0l0 27.78c0,9.14 13.89,9.14 13.89,0l0 -27.78zm0 97.22c0,-9.14 -13.89,-9.14 -13.89,0l0 27.78c0,9.14 13.89,9.14 13.89,0l0 -27.78zm0 97.22c0,-9.14 -13.89,-9.14 -13.89,0l0 27.78c0,9.14 13.89,9.14 13.89,0l0 -27.78zm0 97.22c0,-9.14 -13.89,-9.14 -13.89,0l0 27.78c0,9.14 13.89,9.14 13.89,0l0 -27.78zm-0.55 94.34c-2.56,-5.92 -13.34,-7.29 -13.34,6.94l0.09 0.09c0.31,12.58 26.21,6.85 30.57,6.85l17.9 0c9.14,0 9.14,-13.89 0,-13.89l-17.9 0 -9.88 0 -7.44 0zm86.76 0c-9.14,0 -9.14,13.89 0,13.89l17.9 0 9.88 0 17.9 0c9.14,0 9.14,-13.89 0,-13.89l-17.9 0 -9.88 0 -17.9 0zm97.22 0c-9.14,0 -9.14,13.89 0,13.89l17.9 0 9.88 0 17.9 0c9.14,0 9.14,-13.89 0,-13.89l-17.9 0 -9.88 0 -17.9 0zm97.22 0c-9.14,0 -9.14,13.89 0,13.89l17.9 0 9.88 0 17.9 0c9.14,0 9.14,-13.89 0,-13.89l-17.9 0 -9.88 0 -17.9 0zm97.22 0c-9.14,0 -9.14,13.89 0,13.89l17.9 0 9.88 0 17.9 0c9.14,0 9.14,-13.89 0,-13.89l-17.9 0 -9.88 0 -17.9 0zm97.22 0c-9.14,0 -9.14,13.89 0,13.89l17.9 0 9.88 0 17.9 0c9.14,0 9.14,-13.89 0,-13.89l-17.9 0 -9.88 0 -17.9 0zm97.22 0c-9.14,0 -9.14,13.89 0,13.89l17.9 0 9.88 0 17.9 0c9.14,0 9.14,-13.89 0,-13.89l-17.9 0 -9.88 0 -17.9 0zm97.22 0c-9.14,0 -9.14,13.89 0,13.89l17.9 0 9.88 0 17.9 0c9.14,0 9.14,-13.89 0,-13.89l-17.9 0 -9.88 0 -17.9 0zm97.22 0c-9.14,0 -9.14,13.89 0,13.89l17.9 0 9.88 0 17.9 0c9.14,0 9.14,-13.89 0,-13.89l-17.9 0 -9.88 0 -17.9 0zm97.22 0c-9.14,0 -9.14,13.89 0,13.89l17.9 0 9.88 0 17.9 0c9.14,0 9.14,-13.89 0,-13.89l-17.9 0 -9.88 0 -17.9 0zm97.22 0c-9.14,0 -9.14,13.89 0,13.89l17.9 0 9.88 0 17.9 0c9.14,0 9.14,-13.89 0,-13.89l-17.9 0 -9.88 0 -17.9 0zm97.22 0c-9.14,0 -9.14,13.89 0,13.89l17.9 0 9.88 0 17.9 0c9.14,0 9.14,-13.89 0,-13.89l-17.9 0 -9.88 0 -17.9 0zm97.22 0c-9.14,0 -9.14,13.89 0,13.89l17.9 0 9.88 0 17.9 0c9.14,0 9.14,-13.89 0,-13.89l-17.9 0 -9.88 0 -17.9 0zm97.22 0c-9.14,0 -9.14,13.89 0,13.89l17.9 0 9.88 0 17.9 0c9.14,0 9.14,-13.89 0,-13.89l-17.9 0 -9.88 0 -17.9 0zm97.22 0c-9.14,0 -9.14,13.89 0,13.89l17.9 0 9.87 0 17.9 0c9.14,0 9.14,-13.89 0,-13.89l-17.9 0 -9.87 0 -17.9 0zm97.22 0c-9.14,0 -9.14,13.89 0,13.89l17.9 0 9.87 0 17.9 0c9.14,0 9.14,-13.89 0,-13.89l-17.9 0 -9.87 0 -17.9 0zm97.22 0c-9.14,0 -9.14,13.89 0,13.89l17.9 0 9.87 0 17.9 0c9.14,0 9.14,-13.89 0,-13.89l-17.9 0 -9.87 0 -17.9 0zm97.22 0c-9.14,0 -9.14,13.89 0,13.89l17.9 0 9.87 0 17.9 0c9.14,0 9.14,-13.89 0,-13.89l-17.9 0 -9.87 0 -17.9 0zm97.22 0c-9.14,0 -9.14,13.89 0,13.89l17.9 0 9.87 0 17.9 0c9.14,0 9.14,-13.89 0,-13.89l-17.9 0 -9.87 0 -17.9 0zm97.22 0c-9.14,0 -9.14,13.89 0,13.89l17.9 0 9.87 0 17.9 0c9.14,0 9.14,-13.89 0,-13.89l-17.9 0 -9.87 0 -17.9 0zm97.22 0c-9.14,0 -9.14,13.89 0,13.89l17.9 0 9.87 0 17.9 0c9.14,0 9.14,-13.89 0,-13.89l-17.9 0 -9.87 0 -17.9 0zm97.22 0c-9.14,0 -9.14,13.89 0,13.89l17.9 0 9.87 0 17.9 0c9.14,0 9.14,-13.89 0,-13.89l-17.9 0 -9.87 0 -17.9 0zm97.22 0c-9.14,0 -9.14,13.89 0,13.89l17.9 0 9.87 0 17.9 0c9.14,0 9.14,-13.89 0,-13.89l-17.9 0 -9.87 0 -17.9 0zm97.22 0c-9.14,0 -9.14,13.89 0,13.89l7.05 0 0.09 -0.09c2.39,-0.06 4.09,-1 5.29,-2.5 1.13,1.54 2.96,2.59 5.48,2.59l27.77 0c9.14,0 9.14,-13.89 0,-13.89l-27.77 0c-1.08,0 -2.04,0.2 -2.86,0.54 0.04,-5.85 -1.06,-11.94 -1.06,-14.33 0,-9.14 -13.89,-9.14 -13.89,0l0 13.79 -0.1 0zm0.1 -83.23c0,9.14 13.89,9.14 13.89,0l0 -27.78c0,-9.14 -13.89,-9.14 -13.89,0l0 27.78zm0 -97.22c0,9.14 13.89,9.14 13.89,0l0 -27.78c0,-9.14 -13.89,-9.14 -13.89,0l0 27.78zm0 -97.22c0,9.14 13.89,9.14 13.89,0l0 -27.78c0,-9.14 -13.89,-9.14 -13.89,0l0 27.78zm0 -97.22c0,9.14 13.89,9.14 13.89,0l0 -27.78c0,-9.14 -13.89,-9.14 -13.89,0l0 27.78zm0 -97.22c0,0.94 0.15,1.78 0.41,2.52 -0.26,0.75 -0.41,1.58 -0.41,2.52l0 27.78c0,9.14 13.89,9.14 13.89,0l0 -27.78c0,-0.94 -0.15,-1.77 -0.41,-2.52 0.26,-0.75 0.41,-1.59 0.41,-2.52l0 -27.78c0,-9.14 -13.89,-9.14 -13.89,0l0 27.78zm0 -97.22c0,0.94 0.15,1.78 0.41,2.52 -0.26,0.75 -0.41,1.58 -0.41,2.52l0 27.78c0,9.14 13.89,9.14 13.89,0l0 -27.78c0,-0.94 -0.15,-1.77 -0.41,-2.52 0.26,-0.75 0.41,-1.59 0.41,-2.52l0 -27.78c0,-9.14 -13.89,-9.14 -13.89,0l0 27.78zm0 -97.22c0,0.94 0.15,1.78 0.41,2.52 -0.26,0.75 -0.41,1.58 -0.41,2.52l0 27.78c0,9.14 13.89,9.14 13.89,0l0 -27.78c0,-0.94 -0.15,-1.77 -0.41,-2.52 0.26,-0.75 0.41,-1.59 0.41,-2.52l0 -27.78c0,-9.14 -13.89,-9.14 -13.89,0l0 27.78zm0 -97.22c0,0.94 0.15,1.78 0.41,2.52 -0.26,0.75 -0.41,1.58 -0.41,2.52l0 27.78c0,9.14 13.89,9.14 13.89,0l0 -27.78c0,-0.94 -0.15,-1.77 -0.41,-2.52 0.26,-0.75 0.41,-1.59 0.41,-2.52l0 -27.78c0,-9.14 -13.89,-9.14 -13.89,0l0 27.78zm0 -97.22c0,0.94 0.15,1.78 0.41,2.52 -0.26,0.75 -0.41,1.58 -0.41,2.52l0 27.78c0,9.14 13.89,9.14 13.89,0l0 -27.78c0,-0.94 -0.15,-1.77 -0.41,-2.52 0.26,-0.75 0.41,-1.59 0.41,-2.52l0 -27.78c0,-9.14 -13.89,-9.14 -13.89,0l0 27.78zm0 -97.22c0,0.94 0.15,1.78 0.41,2.52 -0.26,0.75 -0.41,1.58 -0.41,2.52l0 27.78c0,9.14 13.89,9.14 13.89,0l0 -27.78c0,-0.94 -0.15,-1.77 -0.41,-2.52 0.26,-0.75 0.41,-1.59 0.41,-2.52l0 -27.78c0,-9.14 -13.89,-9.14 -13.89,0l0 27.78zm0 -97.22c0,0.94 0.15,1.78 0.41,2.52 -0.26,0.75 -0.41,1.58 -0.41,2.52l0 27.78c0,9.14 13.89,9.14 13.89,0l0 -27.78c0,-0.94 -0.15,-1.77 -0.41,-2.52 0.26,-0.75 0.41,-1.59 0.41,-2.52l0 -27.78c0,-9.14 -13.89,-9.14 -13.89,0l0 27.78zm0 -97.22c0,0.94 0.15,1.78 0.41,2.52 -0.26,0.75 -0.41,1.58 -0.41,2.52l0 27.78c0,9.14 13.89,9.14 13.89,0l0 -27.78c0,-0.94 -0.15,-1.77 -0.41,-2.52 0.26,-0.75 0.41,-1.59 0.41,-2.52l0 -27.78c0,-9.14 -13.89,-9.14 -13.89,0l0 27.78zm0 -97.22c0,0.94 0.15,1.78 0.41,2.52 -0.26,0.75 -0.41,1.58 -0.41,2.52l0 27.78c0,9.14 13.89,9.14 13.89,0l0 -27.78c0,-0.94 -0.15,-1.77 -0.41,-2.52 0.26,-0.75 0.41,-1.59 0.41,-2.52l0 -27.78c0,-9.14 -13.89,-9.14 -13.89,0l0 27.78zm0 -97.22c0,0.94 0.15,1.78 0.41,2.52 -0.26,0.75 -0.41,1.58 -0.41,2.52l0 27.78c0,9.14 13.89,9.14 13.89,0l0 -27.78c0,-0.94 -0.15,-1.77 -0.41,-2.52 0.26,-0.75 0.41,-1.59 0.41,-2.52l0 -27.78c0,-9.14 -13.89,-9.14 -13.89,0l0 27.78zm0 -97.22c0,0.94 0.15,1.78 0.41,2.52 -0.26,0.75 -0.41,1.58 -0.41,2.52l0 27.78c0,9.14 13.89,9.14 13.89,0l0 -27.78c0,-0.94 -0.15,-1.77 -0.41,-2.52 0.26,-0.75 0.41,-1.59 0.41,-2.52l0 -27.77c0,-9.14 -13.89,-9.14 -13.89,0l0 27.77zm-65.49 -115.07c9.14,0 9.14,-13.89 0,-13.89l-4.06 0 -23.72 0 -4.06 0c-9.14,0 -9.14,13.89 0,13.89l4.06 0 23.72 0 4.06 0zm-97.22 0c9.14,0 9.14,-13.89 0,-13.89l-4.06 0 -23.72 0 -4.06 0c-9.14,0 -9.14,13.89 0,13.89l4.06 0 23.72 0 4.06 0zm-97.22 0c9.14,0 9.14,-13.89 0,-13.89l-4.06 0 -23.72 0 -4.06 0c-9.14,0 -9.14,13.89 0,13.89l4.06 0 23.72 0 4.06 0zm-97.22 0c9.14,0 9.14,-13.89 0,-13.89l-4.06 0 -23.72 0 -4.06 0c-9.14,0 -9.14,13.89 0,13.89l4.06 0 23.72 0 4.06 0zm-97.22 0c9.14,0 9.14,-13.89 0,-13.89l-4.06 0 -23.72 0 -4.06 0c-9.14,0 -9.14,13.89 0,13.89l4.06 0 23.72 0 4.06 0zm-97.22 0c9.14,0 9.14,-13.89 0,-13.89l-4.06 0 -23.72 0 -4.06 0c-9.14,0 -9.14,13.89 0,13.89l4.06 0 23.72 0 4.06 0zm-97.22 0c9.14,0 9.14,-13.89 0,-13.89l-3.08 0 0 -16.09c0,-9.14 -13.89,-9.14 -13.89,0l0 16.09 -10.81 0 -4.06 0c-9.14,0 -9.14,13.89 0,13.89l4.06 0 11.11 0c1.84,6.2 11.44,6.2 13.27,0l3.39 0zm-97.22 0c9.14,0 9.14,-13.89 0,-13.89l-4.06 0 -23.72 0 -4.06 0c-9.14,0 -9.14,13.89 0,13.89l4.06 0 23.72 0 4.06 0zm-97.22 0c9.14,0 9.14,-13.89 0,-13.89l-4.06 0 -23.71 0 -4.06 0c-9.14,0 -9.14,13.89 0,13.89l4.06 0 23.71 0 4.06 0zm-97.22 0c9.14,0 9.14,-13.89 0,-13.89l-4.06 0 -23.72 0 -4.06 0c-9.14,0 -9.14,13.89 0,13.89l4.06 0 23.72 0 4.06 0zm-291.66 0c9.14,0 9.14,-13.89 0,-13.89l-4.06 0 -23.72 0 -4.06 0c-9.14,0 -9.14,13.89 0,13.89l4.06 0 23.72 0 4.06 0zm-97.22 0c9.14,0 9.14,-13.89 0,-13.89l-4.06 0 -23.72 0 -4.06 0c-9.14,0 -9.14,13.89 0,13.89l4.06 0 23.72 0 4.06 0zm-97.22 0c9.14,0 9.14,-13.89 0,-13.89l-4.06 0 -23.72 0 -4.06 0c-9.14,0 -9.14,13.89 0,13.89l4.06 0 23.72 0 4.06 0zm-97.22 0c9.14,0 9.14,-13.89 0,-13.89l-4.06 0 -23.72 0 -4.06 0c-9.14,0 -9.14,13.89 0,13.89l4.06 0 23.72 0 4.06 0zm-97.22 0c9.14,0 9.14,-13.89 0,-13.89l-4.06 0 -23.72 0 -4.06 0c-9.14,0 -9.14,13.89 0,13.89l4.06 0 23.72 0 4.06 0zm-97.22 0c9.14,0 9.14,-13.89 0,-13.89l-4.06 0 -23.72 0 -4.06 0c-9.14,0 -9.14,13.89 0,13.89l4.06 0 23.72 0 4.06 0zm-97.22 0c9.14,0 9.14,-13.89 0,-13.89l-4.06 0 -23.72 0 -4.06 0c-9.14,0 -9.14,13.89 0,13.89l4.06 0 23.72 0 4.06 0zm-97.22 0c9.14,0 9.14,-13.89 0,-13.89l-4.06 0 -23.72 0 -4.06 0c-9.14,0 -9.14,13.89 0,13.89l4.06 0 23.72 0 4.06 0zm-97.22 0c9.14,0 9.14,-13.89 0,-13.89l-4.06 0 -23.72 0 -4.06 0c-9.14,0 -9.14,13.89 0,13.89l4.06 0 23.72 0 4.06 0zm-97.22 0c9.14,0 9.14,-13.89 0,-13.89l-4.06 0 -23.72 0 -4.06 0c-9.14,0 -9.14,13.89 0,13.89l4.06 0 23.72 0 4.06 0zm-118.05 -1566.54c-0.07,-3.54 -2.08,-6.13 -5.63,-6.74l26.46 0c0.84,0 1.6,-0.12 2.29,-0.33 0.68,0.21 1.45,0.33 2.29,0.33l27.78 0c9.14,0 9.14,-13.89 0,-13.89l-27.78 0c-0.84,0 -1.6,0.12 -2.29,0.33 -0.68,-0.21 -1.45,-0.33 -2.29,-0.33l-27.78 0c-8.81,0 -9.13,12.91 -0.94,13.83 -12.35,1.67 -6,32.23 -6,34.58 0,9.14 13.89,9.14 13.89,0l0 -27.78zm2222.31 -14.44c-0.05,0.53 -0.05,1.07 0.01,1.61 0.21,2.04 1.18,3.76 2.85,4.96l0 18.98c0,9.14 13.89,9.14 13.89,0l0 -24.79 -0.09 -0.09c-0.22,-9.06 -15.71,-9.71 -16.66,-0.66zm-2222.31 111.66c0,-9.14 -13.89,-9.14 -13.89,0l0 27.78c0,9.14 13.89,9.14 13.89,0l0 -27.78zm0 97.22c0,-9.14 -13.89,-9.14 -13.89,0l0 27.78c0,9.14 13.89,9.14 13.89,0l0 -27.78zm0 97.22c0,-9.14 -13.89,-9.14 -13.89,0l0 27.78c0,9.14 13.89,9.14 13.89,0l0 -27.78zm0 97.22c0,-9.14 -13.89,-9.14 -13.89,0l0 27.78c0,0.79 0.1,1.5 0.29,2.15l-11.1 0c-9.14,0 -9.14,13.89 0,13.89l17.75 0 10.03 0 17.75 0c9.14,0 9.14,-13.89 0,-13.89l-17.75 0 -3.37 0c0.19,-0.65 0.29,-1.37 0.29,-2.15l0 -27.78zm-13.89 106.02l0 18.97c0,9.14 13.89,9.14 13.89,0l0 -18.97 0 -8.8 0 -18.97c0,-9.14 -13.89,-9.14 -13.89,0l0 18.97 0 8.8zm0 97.22l0 18.97c0,9.14 13.89,9.14 13.89,0l0 -18.97 0 -8.8 0 -18.97c0,-9.14 -13.89,-9.14 -13.89,0l0 18.97 0 8.8zm0 97.22l0 18.97c0,9.14 13.89,9.14 13.89,0l0 -18.97 0 -8.8 0 -18.97c0,-9.14 -13.89,-9.14 -13.89,0l0 18.97 0 8.8zm0 97.22l0 18.97c0,9.14 13.89,9.14 13.89,0l0 -18.97 0 -8.8 0 -18.97c0,-9.14 -13.89,-9.14 -13.89,0l0 18.97 0 8.8zm0 97.22l0 18.97c0,9.14 13.89,9.14 13.89,0l0 -18.97 0 -8.8 0 -18.97c0,-9.14 -13.89,-9.14 -13.89,0l0 18.97 0 8.8zm0 97.22l0 18.98c0,9.14 13.89,9.14 13.89,0l0 -18.98 0 -8.8 0 -18.97c0,-9.14 -13.89,-9.14 -13.89,0l0 18.97 0 8.8zm0 97.22l0 18.97c0,9.14 13.89,9.14 13.89,0l0 -18.97 0 -8.8 0 -18.97c0,-9.14 -13.89,-9.14 -13.89,0l0 18.97 0 8.8zm0 97.22l0 18.97c0,9.14 13.89,9.14 13.89,0l0 -18.97 0 -8.8 0 -18.97c0,-9.14 -13.89,-9.14 -13.89,0l0 18.97 0 8.8zm0 97.22l0 18.97c0,9.14 13.89,9.14 13.89,0l0 -18.97 0 -8.8 0 -18.97c0,-9.14 -13.89,-9.14 -13.89,0l0 18.97 0 8.8zm0 97.22l0 18.97c0,9.14 13.89,9.14 13.89,0l0 -18.97 0 -8.8 0 -18.97c0,-9.14 -13.89,-9.14 -13.89,0l0 18.97 0 8.8zm0 97.22l0 18.97c0,9.14 13.89,9.14 13.89,0l0 -18.97 0 -8.8 0 -18.97c0,-9.14 -13.89,-9.14 -13.89,0l0 18.97 0 8.8zm2239.06 2.3c0,9.14 13.89,9.14 13.89,0l0 -27.78c0,-9.14 -13.89,-9.14 -13.89,0l0 27.78zm0 -97.22c0,9.14 13.89,9.14 13.89,0l0 -27.78c0,-9.14 -13.89,-9.14 -13.89,0l0 27.78zm0 -97.22c0,9.14 13.89,9.14 13.89,0l0 -27.78c0,-9.14 -13.89,-9.14 -13.89,0l0 27.78zm0 -97.22c0,9.14 13.89,9.14 13.89,0l0 -27.78c0,-9.14 -13.89,-9.14 -13.89,0l0 27.78zm0 -97.22c0,9.14 13.89,9.14 13.89,0l0 -27.78c0,-9.14 -13.89,-9.14 -13.89,0l0 27.78zm0 -97.22c0,9.14 13.89,9.14 13.89,0l0 -27.78c0,-9.14 -13.89,-9.14 -13.89,0l0 27.78zm0 -97.22c0,9.14 13.89,9.14 13.89,0l0 -27.78c0,-9.14 -13.89,-9.14 -13.89,0l0 27.78zm0 -97.22c0,9.14 13.89,9.14 13.89,0l0 -27.78c0,-9.14 -13.89,-9.14 -13.89,0l0 27.78zm0 -97.22c0,9.14 13.89,9.14 13.89,0l0 -27.78c0,-9.14 -13.89,-9.14 -13.89,0l0 27.78zm0 -97.22c0,9.14 13.89,9.14 13.89,0l0 -27.78c0,-9.14 -13.89,-9.14 -13.89,0l0 27.78zm0 -97.22c0,9.14 13.89,9.14 13.89,0l0 -27.78c0,-9.14 -13.89,-9.14 -13.89,0l0 27.78zm0 -97.22c0,9.14 13.89,9.14 13.89,0l0 -27.78c0,-9.14 -13.89,-9.14 -13.89,0l0 27.78zm0 -97.22c0,9.14 13.89,9.14 13.89,0l0 -27.78c0,-9.14 -13.89,-9.14 -13.89,0l0 27.78zm0 -97.22c0,9.14 13.89,9.14 13.89,0l0 -27.78c0,-9.14 -13.89,-9.14 -13.89,0l0 27.78zm0 -97.22c0,9.14 13.89,9.14 13.89,0l0 -27.77c0,-9.14 -13.89,-9.14 -13.89,0l0 27.77zm-65.49 -115.07c0.84,0 1.61,-0.12 2.29,-0.33 0.68,0.21 1.45,0.33 2.29,0.33l27.78 0c9.14,0 9.14,-13.89 0,-13.89l-27.78 0c-0.84,0 -1.6,0.12 -2.29,0.33 -0.69,-0.21 -1.45,-0.33 -2.29,-0.33l-27.78 0c-9.14,0 -9.14,13.89 0,13.89l27.78 0zm-97.22 0c0.84,0 1.61,-0.12 2.29,-0.33 0.68,0.21 1.45,0.33 2.29,0.33l27.78 0c9.14,0 9.14,-13.89 0,-13.89l-27.78 0c-0.84,0 -1.6,0.12 -2.29,0.33 -0.69,-0.21 -1.45,-0.33 -2.29,-0.33l-27.78 0c-9.14,0 -9.14,13.89 0,13.89l27.78 0zm-97.22 0c0.84,0 1.61,-0.12 2.29,-0.33 0.68,0.21 1.45,0.33 2.29,0.33l27.78 0c9.14,0 9.14,-13.89 0,-13.89l-27.78 0c-0.84,0 -1.6,0.12 -2.29,0.33 -0.69,-0.21 -1.45,-0.33 -2.29,-0.33l-27.78 0c-9.14,0 -9.14,13.89 0,13.89l27.78 0zm-97.22 0c0.84,0 1.61,-0.12 2.29,-0.33 0.68,0.21 1.45,0.33 2.29,0.33l27.78 0c9.14,0 9.14,-13.89 0,-13.89l-27.78 0c-0.84,0 -1.6,0.12 -2.29,0.33 -0.69,-0.21 -1.45,-0.33 -2.29,-0.33l-27.78 0c-9.14,0 -9.14,13.89 0,13.89l27.78 0zm-97.22 0c0.84,0 1.61,-0.12 2.29,-0.33 0.68,0.21 1.45,0.33 2.29,0.33l27.78 0c9.14,0 9.14,-13.89 0,-13.89l-27.78 0c-0.84,0 -1.6,0.12 -2.29,0.33 -0.69,-0.21 -1.45,-0.33 -2.29,-0.33l-27.78 0c-9.14,0 -9.14,13.89 0,13.89l27.78 0zm-97.22 0c0.84,0 1.61,-0.12 2.29,-0.33 0.68,0.21 1.45,0.33 2.29,0.33l27.78 0c9.14,0 9.14,-13.89 0,-13.89l-27.78 0c-0.84,0 -1.6,0.12 -2.29,0.33 -0.69,-0.21 -1.45,-0.33 -2.29,-0.33l-27.78 0c-9.14,0 -9.14,13.89 0,13.89l27.78 0zm-97.22 0c0.84,0 1.61,-0.12 2.29,-0.33 0.68,0.21 1.45,0.33 2.29,0.33l27.78 0c9.14,0 9.14,-13.89 0,-13.89l-27.78 0c-0.84,0 -1.6,0.12 -2.29,0.33 -0.69,-0.21 -1.45,-0.33 -2.29,-0.33l-27.78 0c-9.14,0 -9.14,13.89 0,13.89l27.78 0zm-97.22 0c0.84,0 1.61,-0.12 2.29,-0.33 0.68,0.21 1.45,0.33 2.29,0.33l27.78 0c9.14,0 9.14,-13.89 0,-13.89l-27.78 0c-0.84,0 -1.6,0.12 -2.29,0.33 -0.69,-0.21 -1.45,-0.33 -2.29,-0.33l-27.78 0c-9.14,0 -9.14,13.89 0,13.89l27.78 0zm-97.22 0c0.84,0 1.61,-0.12 2.29,-0.33 0.68,0.21 1.45,0.33 2.29,0.33l27.78 0c9.14,0 9.14,-13.89 0,-13.89l-27.78 0c-0.84,0 -1.6,0.12 -2.29,0.33 -0.69,-0.21 -1.45,-0.33 -2.29,-0.33l-27.77 0c-9.14,0 -9.14,13.89 0,13.89l27.77 0zm-97.22 0c0.84,0 1.6,-0.12 2.29,-0.33 0.68,0.21 1.45,0.33 2.29,0.33l27.78 0c9.14,0 9.14,-13.89 0,-13.89l-27.78 0c-0.84,0 -1.6,0.12 -2.29,0.33 -0.68,-0.21 -1.45,-0.33 -2.29,-0.33l-27.78 0c-9.14,0 -9.14,13.89 0,13.89l27.78 0zm-97.22 0c0.84,0 1.6,-0.12 2.29,-0.33 0.68,0.21 1.45,0.33 2.29,0.33l27.78 0c9.14,0 9.14,-13.89 0,-13.89l-27.78 0c-0.84,0 -1.6,0.12 -2.29,0.33 -0.68,-0.21 -1.45,-0.33 -2.29,-0.33l-27.78 0c-9.14,0 -9.14,13.89 0,13.89l27.78 0zm-97.22 0c0.84,0 1.6,-0.12 2.29,-0.33 0.68,0.21 1.45,0.33 2.29,0.33l27.78 0c9.14,0 9.14,-13.89 0,-13.89l-27.78 0c-0.84,0 -1.6,0.12 -2.29,0.33 -0.68,-0.21 -1.45,-0.33 -2.29,-0.33l-27.78 0c-9.14,0 -9.14,13.89 0,13.89l27.78 0zm-97.22 0c0.84,0 1.6,-0.12 2.29,-0.33 0.68,0.21 1.45,0.33 2.29,0.33l27.78 0c9.14,0 9.14,-13.89 0,-13.89l-27.78 0c-0.84,0 -1.6,0.12 -2.29,0.33 -0.68,-0.21 -1.45,-0.33 -2.29,-0.33l-27.78 0c-9.14,0 -9.14,13.89 0,13.89l27.78 0zm-97.22 0c0.84,0 1.6,-0.12 2.29,-0.33 0.68,0.21 1.45,0.33 2.29,0.33l27.78 0c9.14,0 9.14,-13.89 0,-13.89l-27.78 0c-0.84,0 -1.6,0.12 -2.29,0.33 -0.68,-0.21 -1.45,-0.33 -2.29,-0.33l-27.78 0c-9.14,0 -9.14,13.89 0,13.89l27.78 0zm-97.22 0c0.84,0 1.6,-0.12 2.29,-0.33 0.68,0.21 1.45,0.33 2.29,0.33l27.78 0c9.14,0 9.14,-13.89 0,-13.89l-27.78 0c-0.84,0 -1.6,0.12 -2.29,0.33 -0.68,-0.21 -1.45,-0.33 -2.29,-0.33l-27.78 0c-9.14,0 -9.14,13.89 0,13.89l27.78 0zm-97.22 0c0.84,0 1.6,-0.12 2.29,-0.33 0.68,0.21 1.45,0.33 2.29,0.33l27.78 0c9.14,0 9.14,-13.89 0,-13.89l-27.78 0c-0.84,0 -1.6,0.12 -2.29,0.33 -0.68,-0.21 -1.45,-0.33 -2.29,-0.33l-27.78 0c-9.14,0 -9.14,13.89 0,13.89l27.78 0zm-97.22 0c0.84,0 1.6,-0.12 2.29,-0.33 0.68,0.21 1.45,0.33 2.29,0.33l27.78 0c9.14,0 9.14,-13.89 0,-13.89l-27.78 0c-0.84,0 -1.6,0.12 -2.29,0.33 -0.68,-0.21 -1.45,-0.33 -2.29,-0.33l-27.78 0c-9.14,0 -9.14,13.89 0,13.89l27.78 0zm-97.22 0c0.84,0 1.6,-0.12 2.29,-0.33 0.68,0.21 1.45,0.33 2.29,0.33l27.78 0c9.14,0 9.14,-13.89 0,-13.89l-27.78 0c-0.84,0 -1.6,0.12 -2.29,0.33 -0.68,-0.21 -1.45,-0.33 -2.29,-0.33l-27.78 0c-9.14,0 -9.14,13.89 0,13.89l27.78 0zm-97.22 0c0.84,0 1.6,-0.12 2.29,-0.33 0.68,0.21 1.45,0.33 2.29,0.33l27.78 0c9.14,0 9.14,-13.89 0,-13.89l-27.78 0c-0.84,0 -1.6,0.12 -2.29,0.33 -0.68,-0.21 -1.45,-0.33 -2.29,-0.33l-27.78 0c-9.14,0 -9.14,13.89 0,13.89l27.78 0zm-97.22 0c0.84,0 1.6,-0.12 2.29,-0.33 0.68,0.21 1.45,0.33 2.29,0.33l27.78 0c9.14,0 9.14,-13.89 0,-13.89l-27.78 0c-0.84,0 -1.6,0.12 -2.29,0.33 -0.68,-0.21 -1.45,-0.33 -2.29,-0.33l-27.78 0c-9.14,0 -9.14,13.89 0,13.89l27.78 0zm-97.22 0c0.84,0 1.6,-0.12 2.29,-0.33 0.68,0.21 1.45,0.33 2.29,0.33l27.78 0c9.14,0 9.14,-13.89 0,-13.89l-27.78 0c-0.84,0 -1.6,0.12 -2.29,0.33 -0.68,-0.21 -1.45,-0.33 -2.29,-0.33l-27.78 0c-9.14,0 -9.14,13.89 0,13.89l27.78 0zm-97.22 0c0.84,0 1.6,-0.12 2.29,-0.33 0.68,0.21 1.45,0.33 2.29,0.33l27.78 0c9.14,0 9.14,-13.89 0,-13.89l-27.78 0c-0.84,0 -1.6,0.12 -2.29,0.33 -0.68,-0.21 -1.45,-0.33 -2.29,-0.33l-27.78 0c-9.14,0 -9.14,13.89 0,13.89l27.78 0zm1455.23 473.87c0,-9.14 -13.89,-9.14 -13.89,0l0 27.78c0,9.14 13.89,9.14 13.89,0l0 -27.78zm2222.31 -42.12c-0.05,0.53 -0.05,1.07 0.01,1.61 0.21,2.04 1.18,3.76 2.85,4.96l0 18.98c0,9.14 13.89,9.14 13.89,0l0 -24.79 -0.09 -0.09c-0.22,-9.06 -15.71,-9.71 -16.66,-0.66zm-2222.31 139.34c0,-9.14 -13.89,-9.14 -13.89,0l0 27.78c0,9.14 13.89,9.14 13.89,0l0 -27.78zm0 97.22c0,-9.14 -13.89,-9.14 -13.89,0l0 27.78c0,9.14 13.89,9.14 13.89,0l0 -27.78zm0 97.22c0,-9.14 -13.89,-9.14 -13.89,0l0 27.78c0,9.14 13.89,9.14 13.89,0l0 -27.78zm0 97.22c0,-9.14 -13.89,-9.14 -13.89,0l0 27.78c0,9.14 13.89,9.14 13.89,0l0 -27.78zm0 97.22c0,-9.14 -13.89,-9.14 -13.89,0l0 27.77c0,9.14 13.89,9.14 13.89,0l0 -27.77zm0 97.22c0,-9.14 -13.89,-9.14 -13.89,0l0 27.78c0,9.14 13.89,9.14 13.89,0l0 -27.78zm0 97.22c0,-9.14 -13.89,-9.14 -13.89,0l0 27.78c0,9.14 13.89,9.14 13.89,0l0 -27.78zm0 97.22c0,-9.14 -13.89,-9.14 -13.89,0l0 27.78c0,9.14 13.89,9.14 13.89,0l0 -27.78zm0 97.22c0,-9.14 -13.89,-9.14 -13.89,0l0 27.78c0,9.14 13.89,9.14 13.89,0l0 -27.78zm0 97.22c0,-9.14 -13.89,-9.14 -13.89,0l0 27.78c0,9.14 13.89,9.14 13.89,0l0 -27.78zm0 194.44c0,-9.14 -13.89,-9.14 -13.89,0l0 27.78c0,9.14 13.89,9.14 13.89,0l0 -27.78zm0 97.22c0,-9.14 -13.89,-9.14 -13.89,0l0 27.78c0,9.14 13.89,9.14 13.89,0l0 -27.78zm0 97.22c0,-9.14 -13.89,-9.14 -13.89,0l0 27.78c0,9.14 13.89,9.14 13.89,0l0 -27.78zm0 97.22c0,-9.14 -13.89,-9.14 -13.89,0l0 27.78c0,9.14 13.89,9.14 13.89,0l0 -27.78zm0 97.22c0,-9.14 -13.89,-9.14 -13.89,0l0 27.78c0,9.14 13.89,9.14 13.89,0l0 -27.78zm0 97.22c0,-9.14 -13.89,-9.14 -13.89,0l0 27.78c0,9.14 13.89,9.14 13.89,0l0 -27.78zm0 97.22c0,-9.14 -13.89,-9.14 -13.89,0l0 27.78c0,9.14 13.89,9.14 13.89,0l0 -27.78zm0 97.22c0,-9.14 -13.89,-9.14 -13.89,0l0 27.78c0,9.14 13.89,9.14 13.89,0l0 -27.78zm0 97.22c0,-9.14 -13.89,-9.14 -13.89,0l0 27.78c0,9.14 13.89,9.14 13.89,0l0 -27.78zm0 97.22c0,-9.14 -13.89,-9.14 -13.89,0l0 27.78c0,9.14 13.89,9.14 13.89,0l0 -27.78zm0 97.22c0,-9.14 -13.89,-9.14 -13.89,0l0 27.78c0,9.14 13.89,9.14 13.89,0l0 -27.78zm12.87 94.39l17.75 0c9.14,0 9.14,-13.89 0,-13.89l-17.75 0 -10.03 0 -17.75 0c-9.14,0 -9.14,13.89 0,13.89l17.75 0 10.03 0zm97.22 0l17.75 0c9.14,0 9.14,-13.89 0,-13.89l-17.75 0 -10.03 0 -17.75 0c-9.14,0 -9.14,13.89 0,13.89l17.75 0 10.03 0zm97.22 0l17.75 0c9.14,0 9.14,-13.89 0,-13.89l-17.75 0 -10.03 0 -17.75 0c-9.14,0 -9.14,13.89 0,13.89l17.75 0 10.03 0zm97.22 0l17.75 0c9.14,0 9.14,-13.89 0,-13.89l-17.75 0 -10.03 0 -17.75 0c-9.14,0 -9.14,13.89 0,13.89l17.75 0 10.03 0zm97.22 0l17.75 0c9.14,0 9.14,-13.89 0,-13.89l-17.75 0 -10.03 0 -17.75 0c-9.14,0 -9.14,13.89 0,13.89l17.75 0 10.03 0zm97.22 0l17.75 0c9.14,0 9.14,-13.89 0,-13.89l-17.75 0 -10.03 0 -17.75 0c-9.14,0 -9.14,13.89 0,13.89l17.75 0 10.03 0zm97.22 0l17.75 0c9.14,0 9.14,-13.89 0,-13.89l-17.75 0 -10.03 0 -17.75 0c-9.14,0 -9.14,13.89 0,13.89l17.75 0 10.03 0zm87.19 -13.89c-9.14,0 -9.14,13.89 0,13.89l27.78 0c9.14,0 9.14,-13.89 0,-13.89l-27.78 0zm97.22 0c-9.14,0 -9.14,13.89 0,13.89l27.78 0c9.14,0 9.14,-13.89 0,-13.89l-27.78 0zm97.22 0c-9.14,0 -9.14,13.89 0,13.89l27.78 0c9.14,0 9.14,-13.89 0,-13.89l-27.78 0zm97.22 0c-9.14,0 -9.14,13.89 0,13.89l27.78 0c9.14,0 9.14,-13.89 0,-13.89l-27.78 0zm97.22 0c-9.14,0 -9.14,13.89 0,13.89l27.78 0c2.61,0 4.48,-1.14 5.6,-2.76l0 3.17c0,9.14 13.89,9.14 13.89,0l0 -27.78c0,-9.14 -13.89,-9.14 -13.89,0l0 16.24c-1.12,-1.62 -2.98,-2.76 -5.6,-2.76l-27.78 0zm97.22 0c-9.14,0 -9.14,13.89 0,13.89l27.78 0c9.14,0 9.14,-13.89 0,-13.89l-27.78 0zm97.22 0c-9.14,0 -9.14,13.89 0,13.89l27.78 0c9.14,0 9.14,-13.89 0,-13.89l-27.78 0zm97.22 0c-9.14,0 -9.14,13.89 0,13.89l27.78 0c9.14,0 9.14,-13.89 0,-13.89l-27.78 0zm97.22 0c-9.14,0 -9.14,13.89 0,13.89l27.78 0c9.14,0 9.14,-13.89 0,-13.89l-27.78 0zm97.22 0c-9.14,0 -9.14,13.89 0,13.89l27.78 0c9.14,0 9.14,-13.89 0,-13.89l-27.78 0zm97.22 0c-9.14,0 -9.14,13.89 0,13.89l27.77 0c9.14,0 9.14,-13.89 0,-13.89l-27.77 0zm97.22 0c-9.14,0 -9.14,13.89 0,13.89l27.78 0c9.14,0 9.14,-13.89 0,-13.89l-27.78 0zm97.22 0c-9.14,0 -9.14,13.89 0,13.89l27.78 0c9.14,0 9.14,-13.89 0,-13.89l-27.78 0zm97.22 0c-9.14,0 -9.14,13.89 0,13.89l27.78 0c9.14,0 9.14,-13.89 0,-13.89l-27.78 0zm97.22 0c-9.14,0 -9.14,13.89 0,13.89l27.78 0c9.14,0 9.14,-13.89 0,-13.89l-27.78 0zm97.22 0c-9.14,0 -9.14,13.89 0,13.89l27.78 0c9.14,0 9.14,-13.89 0,-13.89l-27.78 0zm83.48 0.15c0,9.14 13.89,9.14 13.89,0l0 -27.78c0,-9.14 -13.89,-9.14 -13.89,0l0 27.78zm0 -97.22c0,9.14 13.89,9.14 13.89,0l0 -27.78c0,-9.14 -13.89,-9.14 -13.89,0l0 27.78zm0 -97.22c0,9.14 13.89,9.14 13.89,0l0 -27.78c0,-9.14 -13.89,-9.14 -13.89,0l0 27.78zm0 -97.22c0,9.14 13.89,9.14 13.89,0l0 -27.78c0,-9.14 -13.89,-9.14 -13.89,0l0 27.78zm0 -97.22c0,9.14 13.89,9.14 13.89,0l0 -27.78c0,-9.14 -13.89,-9.14 -13.89,0l0 27.78zm0 -97.22c0,9.14 13.89,9.14 13.89,0l0 -27.78c0,-9.14 -13.89,-9.14 -13.89,0l0 27.78zm0 -97.22c0,9.14 13.89,9.14 13.89,0l0 -27.78c0,-9.14 -13.89,-9.14 -13.89,0l0 27.78zm0 -97.22c0,9.14 13.89,9.14 13.89,0l0 -27.78c0,-9.14 -13.89,-9.14 -13.89,0l0 27.78zm0 -97.22c0,9.14 13.89,9.14 13.89,0l0 -27.78c0,-9.14 -13.89,-9.14 -13.89,0l0 27.78zm0 -97.22c0,9.14 13.89,9.14 13.89,0l0 -27.78c0,-9.14 -13.89,-9.14 -13.89,0l0 27.78zm0 -97.22c0,9.14 13.89,9.14 13.89,0l0 -27.78c0,-9.14 -13.89,-9.14 -13.89,0l0 27.78zm0 -97.22c0,9.14 13.89,9.14 13.89,0l0 -27.78c0,-9.14 -13.89,-9.14 -13.89,0l0 27.78zm0 -97.22c0,9.14 13.89,9.14 13.89,0l0 -27.78c0,-9.14 -13.89,-9.14 -13.89,0l0 27.78zm0 -97.22c0,9.14 13.89,9.14 13.89,0l0 -27.78c0,-9.14 -13.89,-9.14 -13.89,0l0 27.78zm0 -97.22c0,9.14 13.89,9.14 13.89,0l0 -27.78c0,-9.14 -13.89,-9.14 -13.89,0l0 27.78zm0 -97.22c0,9.14 13.89,9.14 13.89,0l0 -27.78c0,-9.14 -13.89,-9.14 -13.89,0l0 27.78zm0 -97.22c0,9.14 13.89,9.14 13.89,0l0 -27.78c0,-9.14 -13.89,-9.14 -13.89,0l0 27.78zm0 -97.22c0,9.14 13.89,9.14 13.89,0l0 -27.78c0,-9.14 -13.89,-9.14 -13.89,0l0 27.78zm0 -97.22c0,9.14 13.89,9.14 13.89,0l0 -27.78c0,-9.14 -13.89,-9.14 -13.89,0l0 27.78zm0 -97.22c0,9.14 13.89,9.14 13.89,0l0 -27.78c0,-9.14 -13.89,-9.14 -13.89,0l0 27.78zm0 -97.22c0,9.14 13.89,9.14 13.89,0l0 -27.78c0,-9.14 -13.89,-9.14 -13.89,0l0 27.78zm0 -97.22c0,9.14 13.89,9.14 13.89,0l0 -27.78c0,-9.14 -13.89,-9.14 -13.89,0l0 27.78zm0 -97.22c0,9.14 13.89,9.14 13.89,0l0 -27.78c0,-9.14 -13.89,-9.14 -13.89,0l0 27.78zm-65.49 -115.07c9.14,0 9.14,-13.89 0,-13.89l-27.78 0c-9.14,0 -9.14,13.89 0,13.89l27.78 0zm-97.22 0c9.14,0 9.14,-13.89 0,-13.89l-27.78 0c-9.14,0 -9.14,13.89 0,13.89l27.78 0zm-97.22 0c9.14,0 9.14,-13.89 0,-13.89l-27.78 0c-9.14,0 -9.14,13.89 0,13.89l27.78 0zm-97.22 0c9.14,0 9.14,-13.89 0,-13.89l-27.78 0c-9.14,0 -9.14,13.89 0,13.89l27.78 0zm-97.22 0c9.14,0 9.14,-13.89 0,-13.89l-27.78 0c-9.14,0 -9.14,13.89 0,13.89l27.78 0zm-97.22 0c9.14,0 9.14,-13.89 0,-13.89l-27.78 0c-9.14,0 -9.14,13.89 0,13.89l27.78 0zm-97.22 0c9.14,0 9.14,-13.89 0,-13.89l-27.78 0c-9.14,0 -9.14,13.89 0,13.89l27.78 0zm-97.22 0c9.14,0 9.14,-13.89 0,-13.89l-27.78 0c-9.14,0 -9.14,13.89 0,13.89l27.78 0zm-97.22 0c9.14,0 9.14,-13.89 0,-13.89l-27.77 0c-9.14,0 -9.14,13.89 0,13.89l27.77 0zm-97.22 0c9.14,0 9.14,-13.89 0,-13.89l-27.78 0c-9.14,0 -9.14,13.89 0,13.89l27.78 0zm-97.22 0c9.14,0 9.14,-13.89 0,-13.89l-27.78 0c-9.14,0 -9.14,13.89 0,13.89l27.78 0zm-97.22 0c9.14,0 9.14,-13.89 0,-13.89l-27.78 0c-9.14,0 -9.14,13.89 0,13.89l27.78 0zm-97.22 0c9.14,0 9.14,-13.89 0,-13.89l-27.78 0c-9.14,0 -9.14,13.89 0,13.89l27.78 0zm-97.22 0c9.14,0 9.14,-13.89 0,-13.89l-27.78 0c-9.14,0 -9.14,13.89 0,13.89l27.78 0zm-97.22 0c9.14,0 9.14,-13.89 0,-13.89l-27.78 0c-9.14,0 -9.14,13.89 0,13.89l27.78 0zm-97.22 0c9.14,0 9.14,-13.89 0,-13.89l-27.78 0c-9.14,0 -9.14,13.89 0,13.89l27.78 0zm-97.22 0c9.14,0 9.14,-13.89 0,-13.89l-17.75 0 -10.03 0 -17.75 0c-9.14,0 -9.14,13.89 0,13.89l17.75 0 10.03 0 17.75 0zm-97.22 0c9.14,0 9.14,-13.89 0,-13.89l-17.75 0 -10.03 0 -17.75 0c-9.14,0 -9.14,13.89 0,13.89l17.75 0 10.03 0 17.75 0zm-97.22 0c9.14,0 9.14,-13.89 0,-13.89l-17.75 0 -10.03 0 -17.75 0c-9.14,0 -9.14,13.89 0,13.89l17.75 0 10.03 0 17.75 0zm-97.22 0c9.14,0 9.14,-13.89 0,-13.89l-17.75 0 -10.03 0 -17.75 0c-9.14,0 -9.14,13.89 0,13.89l17.75 0 10.03 0 17.75 0zm-97.22 0c9.14,0 9.14,-13.89 0,-13.89l-17.75 0 -10.03 0 -17.75 0c-9.14,0 -9.14,13.89 0,13.89l17.75 0 10.03 0 17.75 0zm-97.22 0c9.14,0 9.14,-13.89 0,-13.89l-17.75 0 -10.03 0 -17.75 0c-9.14,0 -9.14,13.89 0,13.89l17.75 0 10.03 0 17.75 0zm-97.22 0c9.14,0 9.14,-13.89 0,-13.89l-17.75 0 -10.03 0 -17.75 0c-9.14,0 -9.14,13.89 0,13.89l17.75 0 10.03 0 17.75 0zm-3167.39 34.43c0,-9.14 -13.89,-9.14 -13.89,0l0 27.78c0,9.14 13.89,9.14 13.89,0l0 -27.78zm2222.31 -42.12c-0.05,0.53 -0.05,1.07 0.01,1.61 0.21,2.04 1.18,3.76 2.85,4.96l0 18.98c0,9.14 13.89,9.14 13.89,0l0 -24.79 -0.09 -0.09c-0.22,-9.06 -15.71,-9.71 -16.66,-0.66zm-2222.31 139.34c0,-9.14 -13.89,-9.14 -13.89,0l0 27.78c0,9.14 13.89,9.14 13.89,0l0 -27.78zm0 97.22c0,-9.14 -13.89,-9.14 -13.89,0l0 27.78c0,9.14 13.89,9.14 13.89,0l0 -27.78zm0 97.22c0,-9.14 -13.89,-9.14 -13.89,0l0 27.78c0,9.14 13.89,9.14 13.89,0l0 -27.78zm0 97.22c0,-9.14 -13.89,-9.14 -13.89,0l0 27.78c0,9.14 13.89,9.14 13.89,0l0 -27.78zm0 97.22c0,-9.14 -13.89,-9.14 -13.89,0l0 27.77c0,9.14 13.89,9.14 13.89,0l0 -27.77zm0 97.22c0,-9.14 -13.89,-9.14 -13.89,0l0 27.78c0,9.14 13.89,9.14 13.89,0l0 -27.78zm0 97.22c0,-9.14 -13.89,-9.14 -13.89,0l0 27.78c0,9.14 13.89,9.14 13.89,0l0 -27.78zm0 97.22c0,-9.14 -13.89,-9.14 -13.89,0l0 27.78c0,9.14 13.89,9.14 13.89,0l0 -27.78zm0 97.22c0,-9.14 -13.89,-9.14 -13.89,0l0 27.78c0,9.14 13.89,9.14 13.89,0l0 -27.78zm0 97.22c0,-9.14 -13.89,-9.14 -13.89,0l0 27.78c0,9.14 13.89,9.14 13.89,0l0 -27.78zm0 97.22c0,-9.14 -13.89,-9.14 -13.89,0l0 27.78c0,9.14 13.89,9.14 13.89,0l0 -27.78zm0 97.22c0,-9.14 -13.89,-9.14 -13.89,0l0 27.78c0,9.14 13.89,9.14 13.89,0l0 -27.78zm0 97.22c0,-9.14 -13.89,-9.14 -13.89,0l0 27.78c0,9.14 13.89,9.14 13.89,0l0 -27.78zm0 97.22c0,-9.14 -13.89,-9.14 -13.89,0l0 27.78c0,9.14 13.89,9.14 13.89,0l0 -27.78zm0 97.22c0,-9.14 -13.89,-9.14 -13.89,0l0 27.78c0,9.14 13.89,9.14 13.89,0l0 -27.78zm0 97.22c0,-9.14 -13.89,-9.14 -13.89,0l0 27.78c0,9.14 13.89,9.14 13.89,0l0 -27.78zm0 97.22c0,-9.14 -13.89,-9.14 -13.89,0l0 27.78c0,9.14 13.89,9.14 13.89,0l0 -27.78zm0 97.22c0,-9.14 -13.89,-9.14 -13.89,0l0 27.78c0,9.14 13.89,9.14 13.89,0l0 -27.78zm0 97.22c0,-9.14 -13.89,-9.14 -13.89,0l0 27.78c0,9.14 13.89,9.14 13.89,0l0 -27.78zm0 97.22c0,-9.14 -13.89,-9.14 -13.89,0l0 27.78c0,9.14 13.89,9.14 13.89,0l0 -27.78zm0 97.22c0,-9.14 -13.89,-9.14 -13.89,0l0 27.78c0,9.14 13.89,9.14 13.89,0l0 -27.78zm0 97.22c0,-9.14 -13.89,-9.14 -13.89,0l0 27.78c0,9.14 13.89,9.14 13.89,0l0 -27.78zm2.84 80.5c-9.14,0 -9.14,13.89 0,13.89l27.78 0c9.14,0 9.14,-13.89 0,-13.89l-27.78 0zm97.22 0c-9.14,0 -9.14,13.89 0,13.89l27.78 0c9.14,0 9.14,-13.89 0,-13.89l-27.78 0zm97.22 0c-9.14,0 -9.14,13.89 0,13.89l27.78 0c9.14,0 9.14,-13.89 0,-13.89l-27.78 0zm97.22 0c-9.14,0 -9.14,13.89 0,13.89l27.78 0c9.14,0 9.14,-13.89 0,-13.89l-27.78 0zm97.22 0c-9.14,0 -9.14,13.89 0,13.89l27.78 0c9.14,0 9.14,-13.89 0,-13.89l-27.78 0zm97.22 0c-9.14,0 -9.14,13.89 0,13.89l27.78 0c9.14,0 9.14,-13.89 0,-13.89l-27.78 0zm97.22 0c-9.14,0 -9.14,13.89 0,13.89l27.78 0c9.14,0 9.14,-13.89 0,-13.89l-27.78 0zm97.22 0c-9.14,0 -9.14,13.89 0,13.89l27.78 0c9.14,0 9.14,-13.89 0,-13.89l-27.78 0zm97.22 0c-9.14,0 -9.14,13.89 0,13.89l27.78 0c9.14,0 9.14,-13.89 0,-13.89l-27.78 0zm97.22 0c-9.14,0 -9.14,13.89 0,13.89l27.78 0c9.14,0 9.14,-13.89 0,-13.89l-27.78 0zm97.22 0c-9.14,0 -9.14,13.89 0,13.89l27.78 0c9.14,0 9.14,-13.89 0,-13.89l-27.78 0zm97.22 0c-9.14,0 -9.14,13.89 0,13.89l27.78 0c9.14,0 9.14,-13.89 0,-13.89l-27.78 0zm97.22 0c-9.14,0 -9.14,13.89 0,13.89l27.78 0c9.14,0 9.14,-13.89 0,-13.89l-27.78 0zm97.22 0c-9.14,0 -9.14,13.89 0,13.89l27.78 0c9.14,0 9.14,-13.89 0,-13.89l-27.78 0zm97.22 0c-9.14,0 -9.14,13.89 0,13.89l27.78 0c9.14,0 9.14,-13.89 0,-13.89l-27.78 0zm97.22 0c-9.14,0 -9.14,13.89 0,13.89l27.78 0c9.14,0 9.14,-13.89 0,-13.89l-27.78 0zm97.22 0c-9.14,0 -9.14,13.89 0,13.89l17.75 0 10.03 0 17.75 0c9.14,0 9.14,-13.89 0,-13.89l-17.75 0 -10.03 0 -17.75 0zm97.22 0c-9.14,0 -9.14,13.89 0,13.89l17.75 0 10.03 0 17.75 0c9.14,0 9.14,-13.89 0,-13.89l-17.75 0 -10.03 0 -17.75 0zm97.22 0c-9.14,0 -9.14,13.89 0,13.89l17.75 0 10.03 0 17.75 0c9.14,0 9.14,-13.89 0,-13.89l-17.75 0 -10.03 0 -17.75 0zm97.22 0c-9.14,0 -9.14,13.89 0,13.89l17.75 0 10.03 0 17.75 0c9.14,0 9.14,-13.89 0,-13.89l-17.75 0 -10.03 0 -17.75 0zm97.22 0c-9.14,0 -9.14,13.89 0,13.89l17.75 0 10.03 0 17.75 0c9.14,0 9.14,-13.89 0,-13.89l-17.75 0 -10.03 0 -17.75 0zm97.22 0c-9.14,0 -9.14,13.89 0,13.89l17.75 0 10.03 0 17.75 0c9.14,0 9.14,-13.89 0,-13.89l-17.75 0 -10.03 0 -17.75 0zm97.22 0c-9.14,0 -9.14,13.89 0,13.89l17.75 0 10.03 0 17.75 0c9.14,0 9.14,-13.89 0,-13.89l-17.75 0 -10.03 0 -17.75 0zm83.48 0.15c0,9.14 13.89,9.14 13.89,0l0 -27.78c0,-9.14 -13.89,-9.14 -13.89,0l0 27.78zm0 -97.22c0,9.14 13.89,9.14 13.89,0l0 -27.78c0,-9.14 -13.89,-9.14 -13.89,0l0 27.78zm0 -97.22c0,9.14 13.89,9.14 13.89,0l0 -27.78c0,-9.14 -13.89,-9.14 -13.89,0l0 27.78zm0 -97.22c0,9.14 13.89,9.14 13.89,0l0 -27.78c0,-9.14 -13.89,-9.14 -13.89,0l0 27.78zm0 -97.22c0,9.14 13.89,9.14 13.89,0l0 -27.78c0,-9.14 -13.89,-9.14 -13.89,0l0 27.78zm0 -97.22c0,9.14 13.89,9.14 13.89,0l0 -27.78c0,-9.14 -13.89,-9.14 -13.89,0l0 27.78zm0 -97.22c0,9.14 13.89,9.14 13.89,0l0 -27.78c0,-9.14 -13.89,-9.14 -13.89,0l0 27.78zm0 -97.22c0,9.14 13.89,9.14 13.89,0l0 -27.78c0,-9.14 -13.89,-9.14 -13.89,0l0 27.78zm0 -97.22c0,9.14 13.89,9.14 13.89,0l0 -27.78c0,-9.14 -13.89,-9.14 -13.89,0l0 27.78zm0 -97.22c0,9.14 13.89,9.14 13.89,0l0 -27.78c0,-9.14 -13.89,-9.14 -13.89,0l0 27.78zm0 -97.22c0,9.14 13.89,9.14 13.89,0l0 -27.78c0,-9.14 -13.89,-9.14 -13.89,0l0 27.78zm0 -97.22c0,9.14 13.89,9.14 13.89,0l0 -27.78c0,-9.14 -13.89,-9.14 -13.89,0l0 27.78zm0 -97.22c0,9.14 13.89,9.14 13.89,0l0 -27.78c0,-9.14 -13.89,-9.14 -13.89,0l0 27.78zm0 -97.22c0,9.14 13.89,9.14 13.89,0l0 -27.78c0,-9.14 -13.89,-9.14 -13.89,0l0 27.78zm0 -97.22c0,9.14 13.89,9.14 13.89,0l0 -27.78c0,-9.14 -13.89,-9.14 -13.89,0l0 27.78zm0 -97.22c0,9.14 13.89,9.14 13.89,0l0 -27.78c0,-9.14 -13.89,-9.14 -13.89,0l0 27.78zm0 -97.22c0,9.14 13.89,9.14 13.89,0l0 -27.78c0,-9.14 -13.89,-9.14 -13.89,0l0 27.78zm0 -97.22c0,9.14 13.89,9.14 13.89,0l0 -27.78c0,-9.14 -13.89,-9.14 -13.89,0l0 27.78zm0 -97.22c0,9.14 13.89,9.14 13.89,0l0 -27.78c0,-9.14 -13.89,-9.14 -13.89,0l0 27.78zm0 -97.22c0,9.14 13.89,9.14 13.89,0l0 -27.78c0,-9.14 -13.89,-9.14 -13.89,0l0 27.78zm0 -97.22c0,9.14 13.89,9.14 13.89,0l0 -27.78c0,-9.14 -13.89,-9.14 -13.89,0l0 27.78zm0 -97.22c0,9.14 13.89,9.14 13.89,0l0 -27.78c0,-9.14 -13.89,-9.14 -13.89,0l0 27.78zm0 -97.22c0,9.14 13.89,9.14 13.89,0l0 -27.78c0,-9.14 -13.89,-9.14 -13.89,0l0 27.78zm-75.51 -128.96l-17.75 0c-9.14,0 -9.14,13.89 0,13.89l17.75 0 10.03 0 17.75 0c9.14,0 9.14,-13.89 0,-13.89l-17.75 0 -10.03 0zm-97.22 0l-17.75 0c-9.14,0 -9.14,13.89 0,13.89l17.75 0 10.03 0 17.75 0c9.14,0 9.14,-13.89 0,-13.89l-17.75 0 -10.03 0zm-97.22 0l-17.75 0c-9.14,0 -9.14,13.89 0,13.89l17.75 0 10.03 0 17.75 0c9.14,0 9.14,-13.89 0,-13.89l-17.75 0 -10.03 0zm-97.22 0l-17.75 0c-9.14,0 -9.14,13.89 0,13.89l17.75 0 10.03 0 17.75 0c9.14,0 9.14,-13.89 0,-13.89l-17.75 0 -10.03 0zm-97.22 0l-17.75 0c-9.14,0 -9.14,13.89 0,13.89l17.75 0 10.03 0 17.75 0c9.14,0 9.14,-13.89 0,-13.89l-17.75 0 -10.03 0zm-97.22 0l-17.75 0c-9.14,0 -9.14,13.89 0,13.89l17.75 0 10.03 0 17.75 0c9.14,0 9.14,-13.89 0,-13.89l-17.75 0 -10.03 0zm-184.41 13.89c9.14,0 9.14,-13.89 0,-13.89l-27.78 0c-9.14,0 -9.14,13.89 0,13.89l27.78 0zm-97.22 0c9.14,0 9.14,-13.89 0,-13.89l-27.77 0c-9.14,0 -9.14,13.89 0,13.89l27.77 0zm-97.22 0c9.14,0 9.14,-13.89 0,-13.89l-27.78 0c-9.14,0 -9.14,13.89 0,13.89l27.78 0zm-97.22 0c9.14,0 9.14,-13.89 0,-13.89l-27.78 0c-9.14,0 -9.14,13.89 0,13.89l27.78 0zm-97.22 0c9.14,0 9.14,-13.89 0,-13.89l-27.78 0c-9.14,0 -9.14,13.89 0,13.89l27.78 0zm-97.22 0c9.14,0 9.14,-13.89 0,-13.89l-27.78 0c-9.14,0 -9.14,13.89 0,13.89l27.78 0zm-97.22 0c9.14,0 9.14,-13.89 0,-13.89l-27.78 0c-9.14,0 -9.14,13.89 0,13.89l27.78 0zm-97.22 0c9.14,0 9.14,-13.89 0,-13.89l-27.78 0c-9.14,0 -9.14,13.89 0,13.89l27.78 0zm-97.22 0c9.14,0 9.14,-13.89 0,-13.89l-27.78 0c-9.14,0 -9.14,13.89 0,13.89l27.78 0zm-97.22 0c9.14,0 9.14,-13.89 0,-13.89l-27.78 0c-9.14,0 -9.14,13.89 0,13.89l27.78 0zm-97.22 0c9.14,0 9.14,-13.89 0,-13.89l-27.78 0c-9.14,0 -9.14,13.89 0,13.89l27.78 0zm-97.22 0c9.14,0 9.14,-13.89 0,-13.89l-27.78 0c-9.14,0 -9.14,13.89 0,13.89l27.78 0zm-97.22 0c9.14,0 9.14,-13.89 0,-13.89l-27.78 0c-9.14,0 -9.14,13.89 0,13.89l27.78 0zm-97.22 0c9.14,0 9.14,-13.89 0,-13.89l-27.78 0c-9.14,0 -9.14,13.89 0,13.89l27.78 0zm-97.22 0c9.14,0 9.14,-13.89 0,-13.89l-27.78 0c-9.14,0 -9.14,13.89 0,13.89l27.78 0zm-97.22 0c9.14,0 9.14,-13.89 0,-13.89l-27.78 0c-9.14,0 -9.14,13.89 0,13.89l27.78 0zm3774.76 -7.69c-0.05,0.53 -0.05,1.07 0.01,1.61 0.21,2.04 1.18,3.76 2.85,4.96l0 18.98c0,9.14 13.89,9.14 13.89,0l0 -24.79 -0.09 -0.09c-0.22,-9.06 -15.71,-9.71 -16.66,-0.66zm-1538.93 2261.47c-9.14,0 -9.14,13.89 0,13.89l27.78 0c9.14,0 9.14,-13.89 0,-13.89l-27.78 0zm97.22 0c-9.14,0 -9.14,13.89 0,13.89l27.78 0c9.14,0 9.14,-13.89 0,-13.89l-27.78 0zm97.22 0c-9.14,0 -9.14,13.89 0,13.89l27.78 0c9.14,0 9.14,-13.89 0,-13.89l-27.78 0zm97.22 0c-9.14,0 -9.14,13.89 0,13.89l27.78 0c9.14,0 9.14,-13.89 0,-13.89l-27.78 0zm97.22 0c-9.14,0 -9.14,13.89 0,13.89l27.78 0c9.14,0 9.14,-13.89 0,-13.89l-27.78 0zm97.22 0c-9.14,0 -9.14,13.89 0,13.89l27.78 0c9.14,0 9.14,-13.89 0,-13.89l-27.78 0zm97.22 0c-9.14,0 -9.14,13.89 0,13.89l27.78 0c9.14,0 9.14,-13.89 0,-13.89l-27.78 0zm97.22 0c-9.14,0 -9.14,13.89 0,13.89l27.78 0c9.14,0 9.14,-13.89 0,-13.89l-27.78 0zm97.22 0c-9.14,0 -9.14,13.89 0,13.89l27.78 0c9.14,0 9.14,-13.89 0,-13.89l-27.78 0zm764.02 -1166.5c0,9.14 13.89,9.14 13.89,0l0 -27.78c0,-9.14 -13.89,-9.14 -13.89,0l0 27.78zm0 -97.22c0,9.14 13.89,9.14 13.89,0l0 -27.78c0,-9.14 -13.89,-9.14 -13.89,0l0 27.78zm0 -97.22c0,9.14 13.89,9.14 13.89,0l0 -27.78c0,-9.14 -13.89,-9.14 -13.89,0l0 27.78zm0 -97.22c0,9.14 13.89,9.14 13.89,0l0 -27.78c0,-9.14 -13.89,-9.14 -13.89,0l0 27.78zm0 -97.22c0,9.14 13.89,9.14 13.89,0l0 -27.78c0,-9.14 -13.89,-9.14 -13.89,0l0 27.78zm0 -97.22c0,9.14 13.89,9.14 13.89,0l0 -27.78c0,-9.14 -13.89,-9.14 -13.89,0l0 27.78zm0 -97.22c0,9.14 13.89,9.14 13.89,0l0 -27.78c0,-9.14 -13.89,-9.14 -13.89,0l0 27.78zm0 -97.22c0,9.14 13.89,9.14 13.89,0l0 -27.78c0,-9.14 -13.89,-9.14 -13.89,0l0 27.78zm0 -97.22c0,9.14 13.89,9.14 13.89,0l0 -27.78c0,-9.14 -13.89,-9.14 -13.89,0l0 27.78zm0 -97.22c0,9.14 13.89,9.14 13.89,0l0 -27.78c0,-9.14 -13.89,-9.14 -13.89,0l0 27.78zm0 -97.22c0,9.14 13.89,9.14 13.89,0l0 -27.78c0,-9.14 -13.89,-9.14 -13.89,0l0 27.78zm-746.03 -115.07c9.14,0 9.14,-13.89 0,-13.89l-27.78 0c-9.14,0 -9.14,13.89 0,13.89l27.78 0zm-97.22 0c9.14,0 9.14,-13.89 0,-13.89l-27.77 0c-9.14,0 -9.14,13.89 0,13.89l27.77 0zm-97.22 0c9.14,0 9.14,-13.89 0,-13.89l-27.78 0c-9.14,0 -9.14,13.89 0,13.89l27.78 0zm-97.22 0c9.14,0 9.14,-13.89 0,-13.89l-27.78 0c-9.14,0 -9.14,13.89 0,13.89l27.78 0zm-97.22 0c9.14,0 9.14,-13.89 0,-13.89l-27.78 0c-9.14,0 -9.14,13.89 0,13.89l27.78 0zm-97.22 0c9.14,0 9.14,-13.89 0,-13.89l-27.78 0c-9.14,0 -9.14,13.89 0,13.89l27.78 0zm-97.22 0c9.14,0 9.14,-13.89 0,-13.89l-27.78 0c-9.14,0 -9.14,13.89 0,13.89l27.78 0zm-97.22 0c9.14,0 9.14,-13.89 0,-13.89l-27.78 0c-9.14,0 -9.14,13.89 0,13.89l27.78 0zm-97.22 0c9.14,0 9.14,-13.89 0,-13.89l-27.78 0c-9.14,0 -9.14,13.89 0,13.89l27.78 0zm-1155.13 -332.19c0,-9.14 -13.89,-9.14 -13.89,0l0 27.78c0,9.14 13.89,9.14 13.89,0l0 -27.78zm0 97.22c0,-9.14 -13.89,-9.14 -13.89,0l0 27.78c0,9.14 13.89,9.14 13.89,0l0 -27.78zm0 97.22c0,-9.14 -13.89,-9.14 -13.89,0l0 27.78c0,9.14 13.89,9.14 13.89,0l0 -27.78zm0 97.22c0,-9.14 -13.89,-9.14 -13.89,0l0 27.78c0,9.14 13.89,9.14 13.89,0l0 -27.78zm0 97.22c0,-9.14 -13.89,-9.14 -13.89,0l0 27.78c0,9.14 13.89,9.14 13.89,0l0 -27.78zm0 97.22c0,-9.14 -13.89,-9.14 -13.89,0l0 27.78c0,9.14 13.89,9.14 13.89,0l0 -27.78zm0 97.22c0,-9.14 -13.89,-9.14 -13.89,0l0 27.78c0,9.14 13.89,9.14 13.89,0l0 -27.78zm0 97.22c0,-9.14 -13.89,-9.14 -13.89,0l0 27.78c0,9.14 13.89,9.14 13.89,0l0 -27.78zm0 97.22c0,-9.14 -13.89,-9.14 -13.89,0l0 27.78c0,9.14 13.89,9.14 13.89,0l0 -27.78zm0 97.22c0,-9.14 -13.89,-9.14 -13.89,0l0 27.78c0,9.14 13.89,9.14 13.89,0l0 -27.78zm0 97.22c0,-9.14 -13.89,-9.14 -13.89,0l0 27.78c0,9.14 13.89,9.14 13.89,0l0 -27.78zm0 97.22c0,-9.14 -13.89,-9.14 -13.89,0l0 27.78c0,9.14 13.89,9.14 13.89,0l0 -27.78zm0 97.22c0,-9.14 -13.89,-9.14 -13.89,0l0 27.78c0,9.14 13.89,9.14 13.89,0l0 -27.78zm0 97.22c0,-9.14 -13.89,-9.14 -13.89,0l0 27.78c0,9.14 13.89,9.14 13.89,0l0 -27.78zm0 97.22c0,-9.14 -13.89,-9.14 -13.89,0l0 27.78c0,9.14 13.89,9.14 13.89,0l0 -27.78zm0 97.22c0,-9.14 -13.89,-9.14 -13.89,0l0 27.78c0,9.14 13.89,9.14 13.89,0l0 -27.78zm0 97.22c0,-9.14 -13.89,-9.14 -13.89,0l0 27.78c0,9.14 13.89,9.14 13.89,0l0 -27.78zm0 97.22c0,-9.14 -13.89,-9.14 -13.89,0l0 27.78c0,9.14 13.89,9.14 13.89,0l0 -27.78zm0 97.22c0,-9.14 -13.89,-9.14 -13.89,0l0 27.78c0,9.14 13.89,9.14 13.89,0l0 -27.78zm0 97.22c0,-9.14 -13.89,-9.14 -13.89,0l0 27.78c0,9.14 13.89,9.14 13.89,0l0 -27.78zm0 97.22c0,-9.14 -13.89,-9.14 -13.89,0l0 27.78c0,9.14 13.89,9.14 13.89,0l0 -27.78zm0 97.22c0,-9.14 -13.89,-9.14 -13.89,0l0 27.78c0,9.14 13.89,9.14 13.89,0l0 -27.78zm0 97.22c0,-9.14 -13.89,-9.14 -13.89,0l0 27.78c0,9.14 13.89,9.14 13.89,0l0 -27.78zm0 97.22c0,-9.14 -13.89,-9.14 -13.89,0l0 27.78c0,9.14 13.89,9.14 13.89,0l0 -27.78zm0 97.22c0,-9.14 -13.89,-9.14 -13.89,0l0 27.78c0,9.14 13.89,9.14 13.89,0l0 -27.78zm0 97.22c0,-9.14 -13.89,-9.14 -13.89,0l0 27.78c0,9.14 13.89,9.14 13.89,0l0 -27.78zm0 97.22c0,-9.14 -13.89,-9.14 -13.89,0l0 27.78c0,9.14 13.89,9.14 13.89,0l0 -27.78zm0 97.22c0,-9.14 -13.89,-9.14 -13.89,0l0 27.77c0,9.14 13.89,9.14 13.89,0l0 -27.77zm0 97.22c0,-9.14 -13.89,-9.14 -13.89,0l0 27.78c0,9.14 13.89,9.14 13.89,0l0 -27.78zm0 97.22c0,-9.14 -13.89,-9.14 -13.89,0l0 27.78c0,9.14 13.89,9.14 13.89,0l0 -27.78zm0 97.22c0,-9.14 -13.89,-9.14 -13.89,0l0 27.78c0,9.14 13.89,9.14 13.89,0l0 -27.78zm0 97.22c0,-9.14 -13.89,-9.14 -13.89,0l0 18.52 0.09 0.09c0.21,8.68 9.92,6.85 16.12,6.85 9.14,0 9.14,-13.89 0,-13.89l-2.32 0 0 -11.57zm71.76 11.57c-9.14,0 -9.14,13.89 0,13.89l27.78 0c9.14,0 9.14,-13.89 0,-13.89l-27.78 0zm97.22 0c-9.14,0 -9.14,13.89 0,13.89l27.78 0c9.14,0 9.14,-13.89 0,-13.89l-27.78 0zm97.22 0c-9.14,0 -9.14,13.89 0,13.89l27.78 0c9.14,0 9.14,-13.89 0,-13.89l-27.78 0zm97.22 0c-9.14,0 -9.14,13.89 0,13.89l27.78 0c9.14,0 9.14,-13.89 0,-13.89l-27.78 0zm2430.52 0c-9.14,0 -9.14,13.89 0,13.89l27.78 0c9.14,0 9.14,-13.89 0,-13.89l-27.78 0zm97.22 0c-9.14,0 -9.14,13.89 0,13.89l27.78 0c9.14,0 9.14,-13.89 0,-13.89l-27.78 0zm97.22 0c-9.14,0 -9.14,13.89 0,13.89l27.78 0c9.14,0 9.14,-13.89 0,-13.89l-27.78 0zm97.22 0c-9.14,0 -9.14,13.89 0,13.89l27.78 0c9.14,0 9.14,-13.89 0,-13.89l-27.78 0zm47.07 -36.27c0,9.14 13.89,9.14 13.89,0l0 -27.78c0,-9.14 -13.89,-9.14 -13.89,0l0 27.78zm0 -97.22c0,9.14 13.89,9.14 13.89,0l0 -27.78c0,-9.14 -13.89,-9.14 -13.89,0l0 27.78zm0 -97.22c0,9.14 13.89,9.14 13.89,0l0 -27.78c0,-9.14 -13.89,-9.14 -13.89,0l0 27.78zm0 -97.22c0,9.14 13.89,9.14 13.89,0l0 -27.78c0,-9.14 -13.89,-9.14 -13.89,0l0 27.78zm0 -194.44c0,9.14 13.89,9.14 13.89,0l0 -27.78c0,-9.14 -13.89,-9.14 -13.89,0l0 27.78zm0 -97.22c0,9.14 13.89,9.14 13.89,0l0 -27.78c0,-9.14 -13.89,-9.14 -13.89,0l0 27.78zm0 -97.22c0,9.14 13.89,9.14 13.89,0l0 -27.78c0,-9.14 -13.89,-9.14 -13.89,0l0 27.78zm0 -97.22c0,9.14 13.89,9.14 13.89,0l0 -27.78c0,-9.14 -13.89,-9.14 -13.89,0l0 27.78zm0 -97.22c0,9.14 13.89,9.14 13.89,0l0 -27.78c0,-9.14 -13.89,-9.14 -13.89,0l0 27.78zm0 -97.22c0,9.14 13.89,9.14 13.89,0l0 -27.78c0,-9.14 -13.89,-9.14 -13.89,0l0 27.78zm0 -97.22c0,9.14 13.89,9.14 13.89,0l0 -27.78c0,-9.14 -13.89,-9.14 -13.89,0l0 27.78zm0 -97.22c0,9.14 13.89,9.14 13.89,0l0 -27.78c0,-9.14 -13.89,-9.14 -13.89,0l0 27.78zm0 -97.22c0,9.14 13.89,9.14 13.89,0l0 -27.78c0,-9.14 -13.89,-9.14 -13.89,0l0 27.78zm0 -97.22c0,9.14 13.89,9.14 13.89,0l0 -27.78c0,-9.14 -13.89,-9.14 -13.89,0l0 27.78zm0 -97.22c0,9.14 13.89,9.14 13.89,0l0 -27.78c0,-9.14 -13.89,-9.14 -13.89,0l0 27.78zm0 -97.22c0,9.14 13.89,9.14 13.89,0l0 -27.78c0,-9.14 -13.89,-9.14 -13.89,0l0 27.78zm0 -97.22c0,9.14 13.89,9.14 13.89,0l0 -27.78c0,-9.14 -13.89,-9.14 -13.89,0l0 27.78zm0 -97.22c0,9.14 13.89,9.14 13.89,0l0 -27.78c0,-9.14 -13.89,-9.14 -13.89,0l0 27.78zm0 -97.22c0,9.14 13.89,9.14 13.89,0l0 -27.78c0,-9.14 -13.89,-9.14 -13.89,0l0 27.78zm0 -97.22c0,9.14 13.89,9.14 13.89,0l0 -27.78c0,-9.14 -13.89,-9.14 -13.89,0l0 27.78zm0 -97.22c0,9.14 13.89,9.14 13.89,0l0 -27.78c0,-9.14 -13.89,-9.14 -13.89,0l0 27.78zm0 -97.22c0,9.14 13.89,9.14 13.89,0l0 -27.78c0,-9.14 -13.89,-9.14 -13.89,0l0 27.78zm0 -97.22c0,9.14 13.89,9.14 13.89,0l0 -27.78c0,-9.14 -13.89,-9.14 -13.89,0l0 27.78zm0 -97.22c0,9.14 13.89,9.14 13.89,0l0 -27.78c0,-9.14 -13.89,-9.14 -13.89,0l0 27.78zm0 -97.22c0,9.14 13.89,9.14 13.89,0l0 -27.78c0,-9.14 -13.89,-9.14 -13.89,0l0 27.78zm0 -97.22c0,9.14 13.89,9.14 13.89,0l0 -27.78c0,-9.14 -13.89,-9.14 -13.89,0l0 27.78zm0 -97.22c0,9.14 13.89,9.14 13.89,0l0 -27.78c0,-9.14 -13.89,-9.14 -13.89,0l0 27.78zm0 -97.22c0,9.14 13.89,9.14 13.89,0l0 -27.77c0,-9.14 -13.89,-9.14 -13.89,0l0 27.77zm0 -97.22c0,9.14 13.89,9.14 13.89,0l0 -27.78c0,-9.14 -13.89,-9.14 -13.89,0l0 27.78zm0 -97.22c0,9.14 13.89,9.14 13.89,0l0 -27.78c0,-9.14 -13.89,-9.14 -13.89,0l0 27.78zm0 -97.22c0,9.14 13.89,9.14 13.89,0l0 -27.78c0,-9.14 -13.89,-9.14 -13.89,0l0 27.78zm-0.78 -82.56c9.14,0 9.14,-13.89 0,-13.89l-27.78 0c-9.14,0 -9.14,13.89 0,13.89l27.78 0zm-97.22 0c9.14,0 9.14,-13.89 0,-13.89l-27.78 0c-9.14,0 -9.14,13.89 0,13.89l27.78 0zm-97.22 0c9.14,0 9.14,-13.89 0,-13.89l-27.78 0c-9.14,0 -9.14,13.89 0,13.89l27.78 0zm-97.22 0c9.14,0 9.14,-13.89 0,-13.89l-27.78 0c-9.14,0 -9.14,13.89 0,13.89l27.78 0zm-97.22 0c9.14,0 9.14,-13.89 0,-13.89l-27.78 0c-9.14,0 -9.14,13.89 0,13.89l27.78 0zm-2333.3 0c9.14,0 9.14,-13.89 0,-13.89l-27.78 0c-9.14,0 -9.14,13.89 0,13.89l27.78 0zm-97.22 0c9.14,0 9.14,-13.89 0,-13.89l-27.78 0c-9.14,0 -9.14,13.89 0,13.89l27.78 0zm-97.22 0c9.14,0 9.14,-13.89 0,-13.89l-27.78 0c-9.14,0 -9.14,13.89 0,13.89l27.78 0zm-97.22 0c9.14,0 9.14,-13.89 0,-13.89l-27.78 0c-9.14,0 -9.14,13.89 0,13.89l27.78 0zm-97.22 0c9.14,0 9.14,-13.89 0,-13.89l-27.77 0c-9.14,0 -9.14,13.89 0,13.89l27.77 0z"/>
  <path class="fil1" d="M2699.76 1494.35c47.86,0 86.66,38.8 86.66,86.66 0,47.86 -38.8,86.66 -86.66,86.66 -47.86,0 -86.66,-38.8 -86.66,-86.66 0,-47.86 38.8,-86.66 86.66,-86.66z"/>
 </g>
</svg>
